<?xml version="1.0" encoding="utf-8" ?><svg xmlns="http://www.w3.org/2000/svg" xmlns:xlink="http://www.w3.org/1999/xlink" width="1024" height="1024" viewBox="0 0 1024 1024"><path fill="#FAFAF8" d="M357.593 188.227C366.497 181.539 374.346 175.803 384.223 170.498C410.448 156.572 440.376 151.212 469.804 155.172C486.27 157.511 495.675 161.844 513.146 161.833C527.814 162.284 541.635 157.231 555.942 155.235C587.525 150.829 619.654 156.841 647.291 172.833C655.552 177.613 662.39 184.059 670.151 188.735C675.767 185.18 681.976 181.213 688.689 180.373C721.299 176.293 743.766 207.792 760.693 230.933C763.455 234.709 767.345 238.369 770.557 241.869C788.86 261.817 812.943 273.968 832.655 292.071C856.867 306.199 881.882 328.368 889.003 356.572C898.592 394.381 873.563 435.759 847.094 461.053C826.481 480.751 807.967 493.859 796.939 521.775C788.03 544.328 786.909 560.424 787.888 584.089C787.973 586.125 785.102 588.99 783.148 589.085C776.277 590.413 763.352 581.648 757.95 578.191C748.991 572.457 736.035 558.93 730.846 549.456L730.2 552.722C716.697 621.13 729.107 696.764 751.658 761.939C754.395 769.914 757.416 777.788 760.714 785.548C763.891 792.966 767.765 800.511 770.596 807.994C775.948 822.143 770.351 840.785 759.775 851.005C730.294 879.454 684.027 891.087 645.232 899.458C637.941 900.392 631.674 902.092 624.695 903.133C607.699 905.536 590.662 907.647 573.593 909.465C566.927 910.206 550.566 909.719 546.349 910.864C542.648 913.021 484.543 912.25 479.604 910.447C473.864 910.316 467.971 910.269 462.243 909.999C434.833 908.71 407.858 902.314 380.73 899.056C352.496 894.167 316.936 883.231 291.96 868.959C284.603 864.755 275.199 857.199 268.79 851.583C258.916 841.697 254.167 827.802 255.924 813.942C256.797 806.845 265.218 792.004 268.281 784.586C292.509 725.913 306.426 661.586 303.756 597.933C303.133 583.071 300.545 566.743 298.548 551.828L298.155 547.568C292.949 555.71 288.764 561.941 280.648 569.348C273.263 576.087 256.109 588.22 245.227 589.224C243.94 589.343 240.165 586.999 239.807 584.804C238.966 579.646 240.286 573.574 240.256 568.211C240.173 553.295 237.755 541.09 233.272 527.135C220.35 486.909 185.93 472.09 162.591 440.068C146.441 417.91 133.018 390.04 137.964 362.012C144.108 327.201 166.658 312.213 192.165 293.405C193.474 292.449 194.447 291.849 195.832 291C200.793 285.7 213.337 277.277 219.258 273.019C230.192 265.669 240.113 257.488 250.033 248.949C261.568 239.018 267.788 229.693 276.408 217.736C291.27 197.123 319.888 171.106 347.23 182.841C349.765 183.929 355.348 187.902 357.593 188.227Z"/><path fill="#E8C07A" d="M357.593 188.227C366.497 181.539 374.346 175.803 384.223 170.498C410.448 156.572 440.376 151.212 469.804 155.172C486.27 157.511 495.675 161.844 513.146 161.833C527.814 162.284 541.635 157.231 555.942 155.235C587.525 150.829 619.654 156.841 647.291 172.833C655.552 177.613 662.39 184.059 670.151 188.735C675.767 185.18 681.976 181.213 688.689 180.373C721.299 176.293 743.766 207.792 760.693 230.933C763.455 234.709 767.345 238.369 770.557 241.869C788.86 261.817 812.943 273.968 832.655 292.071C856.867 306.199 881.882 328.368 889.003 356.572C898.592 394.381 873.563 435.759 847.094 461.053C826.481 480.751 807.967 493.859 796.939 521.775C788.03 544.328 786.909 560.424 787.888 584.089C787.973 586.125 785.102 588.99 783.148 589.085C776.277 590.413 763.352 581.648 757.95 578.191C748.991 572.457 736.035 558.93 730.846 549.456C718.23 524.475 717.732 512.656 717.417 486.235C716.819 489.988 717.512 498.597 716.514 501.239C706.794 526.971 694.107 553.629 673.795 572.713C673.673 572.825 672.925 573.215 672.741 573.314C673.556 571.445 674.205 570.204 675.199 568.42C688.876 547.874 698.373 524.836 703.149 500.62C705.548 488.785 708.52 471.256 708.838 458.89C709.971 414.924 702.61 364.741 678.4 327.21C662.579 304.825 639.525 288.729 613.245 282.483C567.428 271.592 536.359 310.077 545.902 353.831C552.351 383.396 572.12 400.684 590.603 423.538C600.278 435.66 609.164 448.39 617.208 461.649C622.796 470.944 627.81 480.573 632.221 490.481C634.982 496.57 637.634 503.977 640.444 510.026C640.722 510.624 641.345 510.43 642.278 510.476L642.395 510.824C640.365 513.152 640.55 514.324 637.301 517.262C630.099 523.772 623.03 530.668 616.195 537.571C614.567 490.572 593.949 437.991 559.96 404.918C527.915 373.738 491.689 376.503 462.305 409.708C430.754 445.361 413.761 490.014 411.435 537.428C405.488 531.838 399.586 526.199 393.731 520.512C391.931 518.778 387.081 514.364 385.783 512.726C389.43 504.488 392.557 496.111 396.215 487.949C402.751 473.365 410.402 460.345 419.312 447.115C425.188 438.262 431.533 429.729 438.319 421.553C447.937 409.956 458.307 398.632 467.153 386.255C506.718 330.898 469.931 257.784 398.953 287.543C370.06 299.657 349.644 321.648 337.274 351.023C316.287 402.19 312.833 458.865 327.451 512.202C331.613 527.946 336.04 542.964 344.948 556.831C346.406 559.1 348.712 563.235 350.419 565.139C351.208 566.825 352.94 570.269 353.392 571.91C352.765 571.431 352.138 570.971 351.593 570.398C336.082 554.104 324.84 535.508 316.764 514.566C313.818 506.925 310.37 501.577 310.436 493.241C308.507 513.168 308.374 528.726 298.155 547.568C292.949 555.71 288.764 561.941 280.648 569.348C273.263 576.087 256.109 588.22 245.227 589.224C243.94 589.343 240.165 586.999 239.807 584.804C238.966 579.646 240.286 573.574 240.256 568.211C240.173 553.295 237.755 541.09 233.272 527.135C220.35 486.909 185.93 472.09 162.591 440.068C146.441 417.91 133.018 390.04 137.964 362.012C144.108 327.201 166.658 312.213 192.165 293.405C193.474 292.449 194.447 291.849 195.832 291C200.793 285.7 213.337 277.277 219.258 273.019C230.192 265.669 240.113 257.488 250.033 248.949C261.568 239.018 267.788 229.693 276.408 217.736C291.27 197.123 319.888 171.106 347.23 182.841C349.765 183.929 355.348 187.902 357.593 188.227Z"/><path fill="#E8C07A" d="M195.832 291C200.793 285.7 213.337 277.277 219.258 273.019C230.192 265.669 240.113 257.488 250.033 248.949C261.568 239.018 267.788 229.693 276.408 217.736C291.27 197.123 319.888 171.106 347.23 182.841C349.765 183.929 355.348 187.902 357.593 188.227C360.501 191.142 372.039 202.799 370.358 207.212C321.986 261.562 310.355 336.263 309.517 406.685C309.364 424.139 309.464 441.595 309.817 459.046C310.043 469.961 310.612 482.407 310.436 493.241C308.507 513.168 308.374 528.726 298.155 547.568C292.949 555.71 288.764 561.941 280.648 569.348C273.263 576.087 256.109 588.22 245.227 589.224C243.94 589.343 240.165 586.999 239.807 584.804C238.966 579.646 240.286 573.574 240.256 568.211C240.173 553.295 237.755 541.09 233.272 527.135C220.35 486.909 185.93 472.09 162.591 440.068C146.441 417.91 133.018 390.04 137.964 362.012C144.108 327.201 166.658 312.213 192.165 293.405C193.474 292.449 194.447 291.849 195.832 291Z"/><path fill="#2A1A0A" d="M266.985 559.248C293.711 526.423 297.373 481.212 292.043 440.729C289.851 424.082 286.245 409.938 285.472 392.948C284.239 363.429 288.441 333.936 297.87 305.937C308.641 273.494 325.828 243.227 351.847 220.62C356.354 216.704 364.901 209.953 370.358 207.212C321.986 261.562 310.355 336.263 309.517 406.685C309.364 424.139 309.464 441.595 309.817 459.046C310.043 469.961 310.612 482.407 310.436 493.241C308.507 513.168 308.374 528.726 298.155 547.568C292.949 555.71 288.764 561.941 280.648 569.348C273.263 576.087 256.109 588.22 245.227 589.224C243.94 589.343 240.165 586.999 239.807 584.804C238.966 579.646 240.286 573.574 240.256 568.211C240.173 553.295 237.755 541.09 233.272 527.135C220.35 486.909 185.93 472.09 162.591 440.068C146.441 417.91 133.018 390.04 137.964 362.012C144.108 327.201 166.658 312.213 192.165 293.405L192.071 295.726C153.064 345.706 168.164 400.703 206.125 445.906C221.131 463.18 238.317 477.36 250.161 497.299C262.493 518.059 266.029 535.684 266.985 559.248Z"/><path fill="#7B4F2E" d="M192.165 293.405C193.474 292.449 194.447 291.849 195.832 291C194.468 293.067 193.811 293.92 192.071 295.726L192.165 293.405Z"/><path fill="#E8C07A" d="M670.151 188.735C675.767 185.18 681.976 181.213 688.689 180.373C721.299 176.293 743.766 207.792 760.693 230.933C763.455 234.709 767.345 238.369 770.557 241.869C788.86 261.817 812.943 273.968 832.655 292.071C856.867 306.199 881.882 328.368 889.003 356.572C898.592 394.381 873.563 435.759 847.094 461.053C826.481 480.751 807.967 493.859 796.939 521.775C788.03 544.328 786.909 560.424 787.888 584.089C787.973 586.125 785.102 588.99 783.148 589.085C776.277 590.413 763.352 581.648 757.95 578.191C748.991 572.457 736.035 558.93 730.846 549.456C718.23 524.475 717.732 512.656 717.417 486.235C719.511 400.972 724.057 303.963 675.014 229.441C670.43 222.475 663.613 213.415 657.704 207.719C656.994 207.363 657.107 207.332 656.527 206.714C655.767 201.461 666.242 191.853 670.151 188.735Z"/><path fill="#2A1A0A" d="M657.704 207.719C665.845 208.637 689.759 233.339 695.852 241.002C730.831 284.994 746.966 350.618 741.224 406.068C740.101 416.923 737.033 428.854 735.739 439.947C732.021 471.799 732.692 507.474 746.411 536.947C750.214 545.117 755.963 553.149 761.384 560.223C761.753 534.006 765.198 518.442 778.98 494.969C790.029 476.151 806.323 463.991 820.254 447.643C852.836 409.409 872.657 361.024 847.305 312.907C842.716 304.196 838.438 299.558 832.655 292.071C856.867 306.199 881.882 328.368 889.003 356.572C898.592 394.381 873.563 435.759 847.094 461.053C826.481 480.751 807.967 493.859 796.939 521.775C788.03 544.328 786.909 560.424 787.888 584.089C787.973 586.125 785.102 588.99 783.148 589.085C776.277 590.413 763.352 581.648 757.95 578.191C748.991 572.457 736.035 558.93 730.846 549.456C718.23 524.475 717.732 512.656 717.417 486.235C719.511 400.972 724.057 303.963 675.014 229.441C670.43 222.475 663.613 213.415 657.704 207.719Z"/><path fill="#E8C07A" d="M672.741 573.314C672.925 573.215 673.673 572.825 673.795 572.713C694.107 553.629 706.794 526.971 716.514 501.239C717.512 498.597 716.819 489.988 717.417 486.235C717.732 512.656 718.23 524.475 730.846 549.456L730.2 552.722C716.697 621.13 729.107 696.764 751.658 761.939C754.395 769.914 757.416 777.788 760.714 785.548C763.891 792.966 767.765 800.511 770.596 807.994C775.948 822.143 770.351 840.785 759.775 851.005C730.294 879.454 684.027 891.087 645.232 899.458C637.941 900.392 631.674 902.092 624.695 903.133C607.699 905.536 590.662 907.647 573.593 909.465C566.927 910.206 550.566 909.719 546.349 910.864C542.648 913.021 484.543 912.25 479.604 910.447C473.864 910.316 467.971 910.269 462.243 909.999C434.833 908.71 407.858 902.314 380.73 899.056C352.496 894.167 316.936 883.231 291.96 868.959C284.603 864.755 275.199 857.199 268.79 851.583C258.916 841.697 254.167 827.802 255.924 813.942C256.797 806.845 265.218 792.004 268.281 784.586C292.509 725.913 306.426 661.586 303.756 597.933C303.133 583.071 300.545 566.743 298.548 551.828L298.155 547.568C308.374 528.726 308.507 513.168 310.436 493.241C310.37 501.577 313.818 506.925 316.764 514.566C324.84 535.508 336.082 554.104 351.593 570.398C352.138 570.971 352.765 571.431 353.392 571.91C356.607 575.66 362.231 591.038 364.664 596.667C381.739 636.174 396.34 656.765 430.971 682.276C433.823 696.353 437.778 707.267 446.108 719.139C478.09 764.722 553.779 762.718 583.675 715.885C590.678 704.914 593.824 694.434 595.9 681.449C628.216 661.088 644.007 637.991 659.159 603.604C662.82 595.297 668.706 581.071 672.741 573.314Z"/><path fill="#BA7E37" d="M672.741 573.314C672.925 573.215 673.673 572.825 673.795 572.713C694.107 553.629 706.794 526.971 716.514 501.239C717.512 498.597 716.819 489.988 717.417 486.235C717.732 512.656 718.23 524.475 730.846 549.456L730.2 552.722C725.794 555.146 722.814 556.966 719.159 560.496C718.978 560.549 718.796 560.601 718.615 560.653C694.641 581.629 672.211 605.626 656.488 633.603C645.986 652.291 635.648 673.022 627.242 692.64C616.508 718.925 604.361 738.548 583.855 758.187C557.204 783.712 524.803 799.801 487.82 786.505C448.14 772.238 419.266 735.289 402.532 698.026C383.064 654.676 363.871 611.865 328.59 578.928C323.644 574.281 314.139 564.62 308.787 560.939C305.24 557.608 302.398 554.805 298.548 551.828L298.155 547.568C308.374 528.726 308.507 513.168 310.436 493.241C310.37 501.577 313.818 506.925 316.764 514.566C324.84 535.508 336.082 554.104 351.593 570.398C352.138 570.971 352.765 571.431 353.392 571.91C356.607 575.66 362.231 591.038 364.664 596.667C381.739 636.174 396.34 656.765 430.971 682.276C433.823 696.353 437.778 707.267 446.108 719.139C478.09 764.722 553.779 762.718 583.675 715.885C590.678 704.914 593.824 694.434 595.9 681.449C628.216 661.088 644.007 637.991 659.159 603.604C662.82 595.297 668.706 581.071 672.741 573.314Z"/><path fill="#FAFAF8" d="M380.73 899.056C336.089 826.003 334.025 724.938 343.099 642.25C343.193 641.904 343.288 641.558 343.382 641.212C353.663 693.402 374.893 739.276 408.841 780.524C417.173 790.647 426.66 799.231 435.19 809.124C454.93 832.87 468.579 862.206 476.134 892.051C476.906 895.101 480.589 908.461 479.604 910.447C473.864 910.316 467.971 910.269 462.243 909.999C434.833 908.71 407.858 902.314 380.73 899.056Z"/><path fill="#FAFAF8" d="M682.992 644.517L684.79 645.541C692.287 707.734 687.924 791.381 667.178 850.404C663.703 860.415 659.646 870.215 655.025 879.753C652.199 885.523 647.476 893.815 645.232 899.458C637.941 900.392 631.674 902.092 624.695 903.133C607.699 905.536 590.662 907.647 573.593 909.465C566.927 910.206 550.566 909.719 546.349 910.864C546.651 906.081 549.026 896.343 550.274 891.557C558.28 860.379 573.107 831.368 593.686 806.615C603.7 794.665 614.107 786.279 624.668 772.724C649.215 741.378 667.302 705.475 677.885 667.093C679.805 660.052 682.16 651.712 682.992 644.517Z"/><path fill="#7B4F2E" d="M730.2 552.722C716.697 621.13 729.107 696.764 751.658 761.939C754.395 769.914 757.416 777.788 760.714 785.548C763.891 792.966 767.765 800.511 770.596 807.994C775.948 822.143 770.351 840.785 759.775 851.005C755.829 846.498 748.53 834.201 745.532 828.809C710.374 765.585 699.793 697.642 707.753 626.188C710.208 604.161 713.153 581.948 719.159 560.496C722.814 556.966 725.794 555.146 730.2 552.722Z"/><path fill="#7B4F2E" d="M298.548 551.828C302.398 554.805 305.24 557.608 308.787 560.939C315.448 586.544 319.775 612.7 321.714 639.086C327.154 709.953 316.798 768.66 281.538 831.019C278 837.277 271.596 846.033 268.79 851.583C258.916 841.697 254.167 827.802 255.924 813.942C256.797 806.845 265.218 792.004 268.281 784.586C292.509 725.913 306.426 661.586 303.756 597.933C303.133 583.071 300.545 566.743 298.548 551.828Z"/><path fill="#F5E6C8" d="M682.992 644.517C682.992 644.019 682.748 640.966 683.671 640.958C684.234 641.383 684.689 644.84 684.79 645.541L682.992 644.517Z"/><path fill="#7B4F2E" d="M645.803 509.96C674.853 509.228 685.502 536.168 677.757 560.722L676.808 560.338C680.275 539.77 667.282 517.943 647.281 511.801L646.317 511.482L645.803 509.96Z"/><path fill="#A1835E" d="M675.756 565.291C675.741 563.709 676.403 561.961 676.808 560.338L677.757 560.722C677.426 562.289 676.48 563.817 675.756 565.291Z"/><path fill="#7B4F2E" d="M642.278 510.476C643.951 509.987 644.062 510.004 645.803 509.96L646.317 511.482C644.866 511.189 643.856 511.006 642.395 510.824L642.278 510.476Z"/><path fill="#2A1A0A" d="M450.446 526.367C449.839 520.487 454.352 511.013 458.09 506.495C464.725 498.479 474.561 493.384 484.606 491.063C515.041 484.155 570.263 484.4 577.073 524.24C577.165 524.779 577.071 526.309 577.034 526.935C577.014 530.213 577.216 532.411 576.845 535.786C575.194 543.339 573.202 549.653 568.154 555.662C567.013 557.021 562.933 561.337 562.308 562.55C556.421 573.984 552.383 580.197 541.135 587.36C533.51 592.212 525.223 595.934 516.532 598.408C522.017 614.352 530.412 623.839 545.716 631.624C559.649 638.415 578.855 641.315 593.555 636.153C604.206 632.412 616.677 622.456 620.658 611.997C627.692 593.519 633.076 574.782 645.778 559.025C648.411 555.759 652.565 549.727 657.423 551.064C659.747 553.066 660.251 555.2 658.58 557.968C642.64 584.382 631.683 613.468 615.524 639.716C603.572 659.131 583.724 672.369 562.6 680.052C555.491 704.443 533.45 736.852 503.448 728.003C490.553 724.2 478.398 712.491 472.533 700.644C470.251 696.05 464.732 685.355 463.999 680.819C449.401 674.501 433.872 665.89 423.228 653.684C401.295 628.529 389.922 595.686 373.886 566.788C372.435 564.175 367.51 557.09 367.608 554.793C368.537 552.643 371.762 549.846 373.571 551.079C389.318 561.816 398.785 591.032 404.538 607.008C415.007 636.081 444.951 644.676 471.95 634.45C488.835 628.099 502.484 615.266 509.861 598.803C493.365 593.616 479.551 586.24 469.853 571.312C468.322 568.955 466.123 563.911 464.498 561.954C457.931 554.048 452.36 548.337 450.974 537.598C450.157 534.133 450.451 529.995 450.446 526.367Z"/><path fill="#F2A07A" d="M450.446 526.367C449.839 520.487 454.352 511.013 458.09 506.495C464.725 498.479 474.561 493.384 484.606 491.063C515.041 484.155 570.263 484.4 577.073 524.24C577.165 524.779 577.071 526.309 577.034 526.935C577.014 530.213 577.216 532.411 576.845 535.786L575.195 534.31C570.741 547.453 555.169 555.639 546.163 542.726C543.61 539.065 552.058 531.416 539.855 529.034C529.361 526.986 520.857 537.177 527.602 546.213C534.959 556.069 547.783 559.171 559.206 561.314C542.727 576.736 512.935 577.883 492.053 573.137C482.635 570.997 475.196 566.996 467.595 561.191C479.9 560.355 494.446 555.193 500.731 545.322C509.901 530.922 484.718 521.818 480.501 535.218C480.9 537.793 482.305 541.133 480.622 543.565C476.331 549.768 469.355 551.066 462.984 547.333C455.961 543.219 453.565 537.915 451.383 530.727C451.411 529.114 450.889 527.957 450.446 526.367Z"/><path fill="#4B2B23" d="M577.034 526.935C577.014 530.213 577.216 532.411 576.845 535.786L575.195 534.31C575.695 531.824 576.523 529.418 577.034 526.935Z"/><path fill="#F27751" d="M463.999 680.819C459.621 658.823 462.288 647.252 487.421 641.992C493.693 640.679 501.657 639.9 508.031 639.851C509.367 653.503 510.556 667.168 511.598 680.846C511.954 685.25 513.154 696.272 513.038 700.144C513.344 699.112 513.607 698.223 513.956 697.202C513.893 691.598 514.881 682.511 515.37 676.741L518.594 639.895C524.961 640.011 532.483 640.742 538.673 642.079C563.044 647.342 567.475 657.547 562.6 680.052C555.491 704.443 533.45 736.852 503.448 728.003C490.553 724.2 478.398 712.491 472.533 700.644C470.251 696.05 464.732 685.355 463.999 680.819Z"/><path fill="#9E3827" d="M513.038 700.144C513.344 699.112 513.607 698.223 513.956 697.202C514.004 698.896 513.285 704.348 513.038 700.144Z"/><path fill="#4B2B23" d="M450.446 526.367C450.889 527.957 451.411 529.114 451.383 530.727C450.674 533.505 451.123 534.732 450.974 537.598C450.157 534.133 450.451 529.995 450.446 526.367Z"/><path fill="#2A1A0A" d="M345.024 353.234C348.727 339.383 360.011 327.733 372.107 320.525C384.541 313.116 401.715 311.254 415.653 314.997C428.059 318.228 438.598 326.403 444.811 337.616C452.109 350.562 452.481 366.246 450.088 380.872C450.017 381.303 449.822 381.748 449.656 382.161C447.793 382.617 437.577 378.146 432.952 378.696C428.273 379.126 423.596 380.369 419.096 381.723C399.618 387.585 378.853 386.469 370.583 364.97C362.455 365.101 359.676 364.758 351.713 363.013C363.561 355.647 370.829 344.34 381.3 334.588C372.434 331.883 351.319 346.845 345.024 353.234Z"/><path fill="#E8C07A" d="M345.024 353.234C348.727 339.383 360.011 327.733 372.107 320.525C384.541 313.116 401.715 311.254 415.653 314.997C428.059 318.228 438.598 326.403 444.811 337.616C452.109 350.562 452.481 366.246 450.088 380.872C450.017 381.303 449.822 381.748 449.656 382.161C446.948 372.1 442.672 362.529 436.986 353.798C430.698 344.114 421.398 330.918 409.501 329.095C398.16 327.357 390.765 328.361 381.3 334.588C372.434 331.883 351.319 346.845 345.024 353.234Z"/><path fill="#BA7E37" d="M400.994 340.12C411.853 340.161 417.802 346.34 424.909 353.709C421.993 366.834 415.789 373.936 402.003 375.31C389.462 375.384 382.098 366.576 377.726 355.857C386.902 348.552 389.832 342.062 400.994 340.12Z"/><path fill="#2A1A0A" d="M399.442 341.6C403.669 340.671 408.069 342.091 410.956 345.315C413.843 348.539 414.771 353.068 413.384 357.167C411.996 361.267 408.509 364.301 404.257 365.109C397.812 366.334 391.578 362.155 390.261 355.728C388.945 349.301 393.034 343.008 399.442 341.6Z"/><path fill="#FAFAF8" d="M396.634 344.2C397.783 343.632 399.176 344.086 399.769 345.222C400.363 346.358 399.941 347.761 398.818 348.38C398.069 348.793 397.156 348.768 396.43 348.315C395.705 347.862 395.281 347.052 395.323 346.198C395.366 345.344 395.867 344.579 396.634 344.2Z"/><path fill="#2A1A0A" d="M578.268 382.025C561.137 304.682 657.226 287.966 683.245 353.993C675.873 346.247 666.792 339.272 656.506 335.815C654.223 335.047 649.141 333.972 646.947 335.138C655.835 343.412 665.191 356.512 674.335 362.661C672.396 365.74 660.732 364.817 657.364 364.538C653.68 373.15 649.673 378.706 640.543 382.194C614.464 392.156 604.135 371.714 578.685 382.258L578.268 382.025Z"/><path fill="#E8C07A" d="M578.268 382.025C561.137 304.682 657.226 287.966 683.245 353.993C675.873 346.247 666.792 339.272 656.506 335.815C654.223 335.047 649.141 333.972 646.947 335.138C625.129 320.1 604.793 331.232 592.926 351.249C589.508 357.016 578.731 375.948 578.268 382.025Z"/><path fill="#BA7E37" d="M625.244 339.689C635.257 339.609 643.367 348.66 649.315 356.061L649.958 356.843C645.331 366.408 640.022 372.71 629.26 375.138L627.034 375.196C614.614 375.44 604.208 366.48 603.305 353.979C603.179 352.23 606.603 350.55 607.752 349.509C610.48 347.038 612.824 344.705 615.906 342.699C619.532 340.339 621.338 340.214 625.244 339.689Z"/><path fill="#2A1A0A" d="M622.616 341.769C629.013 340.277 635.417 344.223 636.959 350.609C638.501 356.994 634.605 363.428 628.232 365.021C621.788 366.631 615.266 362.681 613.707 356.225C612.147 349.768 616.147 343.278 622.616 341.769Z"/><path fill="#FAFAF8" d="M620.992 343.189C623.794 344.854 624.678 345.946 622.082 348.576L621.424 349.256C618.36 348.382 618.516 346.001 620.378 343.903L620.992 343.189Z"/><path fill="#E8C07A" d="M691.851 369.381C692.612 372.858 687.511 391.623 685.649 395.355C684.657 397.342 675.521 405.089 673.252 407.137C664.391 415.224 655.453 423.227 646.441 431.146L646.308 430.612C647.325 427.801 687.941 373.393 691.851 369.381Z"/><path fill="#E8C07A" d="M334.368 367.267C336.185 368.431 379.419 426.787 382.237 431.575C382.097 431.508 381.957 431.441 381.816 431.375C369.067 419.769 354.459 408.373 342.497 396.103C342.065 395.661 335.499 370.561 334.368 367.267Z"/><path fill="#7B4F2E" d="M348.628 554.76C347.664 550.241 347.305 545.614 347.56 541C348.219 529.743 355.053 518.31 365.237 513.262C372.811 509.507 377.939 509.413 386.12 509.83C376.146 513.121 368.481 515.725 361.456 524.296C354.21 530.685 350.154 542.936 349.976 552.357C349.698 553.455 349.314 553.832 348.628 554.76Z"/><path fill="#A1835E" d="M349.976 552.357C350.124 554.648 351.368 563.304 351.206 564.342C350.436 562.439 348.632 556.635 348.628 554.76C349.314 553.832 349.698 553.455 349.976 552.357Z"/></svg>