<?xml version="1.0" encoding="utf-8" ?><svg xmlns="http://www.w3.org/2000/svg" xmlns:xlink="http://www.w3.org/1999/xlink" width="1024" height="1024" viewBox="0 0 1024 1024"><path fill="white" d="M228.825 68.1336C258.617 85.3123 282.685 102.038 308.146 125.555C324.019 140.215 339.194 156.154 355.223 170.482C364.812 178.926 374.612 187.128 384.614 195.079C397.755 205.364 411.187 214.409 422.26 227.052C424.78 229.931 427.985 233.871 430.952 236.16C432.943 236.664 436.404 234.905 438.242 234.047C477.879 215.54 524.242 212.916 566.304 224.256C578.573 227.564 590.016 232.212 602.141 237.211C614.553 220.195 628.117 211.193 644.253 198.472C651.646 192.547 658.892 186.444 665.988 180.168C694.243 155.566 719.371 127.34 748.784 104.15C765.85 90.6952 784.114 78.843 803.148 68.3481C804.242 71.9572 805.422 78.6694 806.166 82.5107C808.635 95.2022 810.585 107.989 812.012 120.839C821.133 203.874 805.274 286.991 774.227 364.076C767.722 379.904 760.677 395.503 753.105 410.848C753.559 411.901 754.056 412.935 754.594 413.948C766.361 436.387 785.069 461.369 807.533 473.626C812.921 476.567 818.327 478.261 824.135 480.069C811.934 503.393 797.872 517.55 777.408 533.136C775.34 535.535 773.479 536.722 771.029 538.779C768.823 540.219 766.571 541.541 764.425 543.043C768.096 542.747 771.757 542.012 775.158 541.931C775.861 541.839 776.17 541.696 776.899 541.459C786.956 539.221 795.864 535.382 805.285 531.344C800.471 538.572 790.82 549.551 784.735 556.092C757.859 585.271 726.581 610.063 692.038 629.569C684.885 633.62 677.579 637.391 670.134 640.874C666.126 642.729 660.413 644.904 656.774 646.856L655.252 647.472C648.273 650.327 641.035 653.266 633.877 655.618C616.636 661.701 607.36 664.909 589.142 668.433C583.879 676.734 572.396 684.78 563.655 688.788C532.62 703.004 494.47 703.922 464.922 685.544C451.774 677.366 448.325 667.459 432.34 665.595C421.935 664.382 408.836 658.325 398.752 654.807C392.633 653.281 383.331 649.047 377.123 646.576C327.93 623.823 289.409 599.014 251.96 558.976C244.673 551.185 233.175 538.958 227.409 530.475C236.97 534.813 246.612 538.798 256.924 540.926C258.491 541.395 259.719 541.801 261.344 541.985L263.831 542.622L265.919 543.02C267.75 542.866 270.776 543.501 270.407 541.293C269.754 540.966 269.146 540.66 268.481 540.355C266.957 539.559 265.562 538.694 264.003 537.891C263.415 537.464 263.3 537.412 262.634 537.1C240.533 522.955 221.768 503.313 209.908 479.774C238.615 473.325 261.101 445.187 275.519 420.937C277.22 418.077 278.935 415.124 280.161 412.03C268.869 392.252 256.594 362.104 248.919 340.408C225.516 274.242 213.197 203.799 218.793 133.563C220.585 111.068 224.612 90.1571 228.825 68.1336Z"/><path fill="#060606" d="M756.292 544.279C764.987 541.258 769.946 537.05 777.408 533.136C775.34 535.535 773.479 536.722 771.029 538.779C768.823 540.219 766.571 541.541 764.425 543.043C768.096 542.747 771.757 542.012 775.158 541.931C772.338 542.807 770.156 543.143 767.253 543.583L764.003 544.078C761.511 544.433 759.079 544.759 756.616 545.295L756.292 544.279Z"/><path fill="#060606" d="M270.407 541.293C273.059 542.36 275.242 543.447 278.07 544.472L277.217 545.242C276.149 545.011 275.075 544.805 273.998 544.623C271.291 544.19 268.574 543.715 265.919 543.02C267.75 542.866 270.776 543.501 270.407 541.293Z"/><path fill="#78726E" d="M756.292 544.279L756.616 545.295C756.241 545.353 754.06 545.819 753.852 545.24C754.17 544.589 755.75 544.394 756.292 544.279Z"/><path fill="#78726E" d="M278.07 544.472C278.762 544.689 279.405 544.854 280.104 545.038L279.896 545.619C278.891 545.509 278.212 545.422 277.217 545.242L278.07 544.472Z"/><path fill="#F5E6D8" d="M280.104 545.038C280.706 545.144 281.306 545.164 281.69 545.671C281.58 546.278 280.108 545.68 279.896 545.619L280.104 545.038Z"/><path fill="#F5E6D8" d="M257.289 117.063C258.605 117.023 259.958 116.974 261.258 117.215C279.657 120.623 354.382 198.663 369.926 216.506C379.756 227.789 389.63 240.04 398.006 252.44C362.559 279.291 346.155 294.355 321.446 332.593C310.168 351.063 301.404 367.306 293.788 387.65C290.35 382.105 285.231 372.054 282.245 366.099C268.679 339.2 257.805 311.026 249.78 281.988C238.309 239.422 230.509 184.141 241.275 140.63C243.441 131.876 247.568 119.521 257.289 117.063Z"/><path fill="#F5E6D8" d="M774.119 117.143C791.315 118.241 795.29 158.899 795.744 171.697C798.412 246.87 773.783 319.801 739.928 385.755C735.78 377.887 732.193 367.825 727.996 359.552C723.051 349.804 717.718 341.574 712.132 332.245C698.149 310.391 681.231 290.561 661.852 273.311C653.165 265.646 644.266 258.911 635.269 251.679C638.683 247.019 642.197 242.434 645.809 237.927C656.056 225.112 665.989 214.703 677.036 202.736C694.85 183.095 713.406 164.14 732.663 145.913C743.71 135.495 758.745 118.855 774.119 117.143Z"/><path fill="#FCD57F" d="M340.963 422.99C359.789 409.157 391.99 393.921 415.641 403.023L418.543 403.869C425.12 405.216 433.045 409.589 438.143 413.896C458.132 430.787 469.641 453.221 476.041 478.129C440.92 487.776 399.764 487.327 372.104 460.978C360.422 449.85 348.635 437.276 340.963 422.99Z"/><path fill="#8FAF6A" d="M415.641 403.023L418.543 403.869C426.5 409.515 430.185 414.416 432.937 423.865C436.326 436.462 435.857 452.2 429.363 463.714C415.531 488.124 395.798 471.454 392.875 450.675C390.228 431.861 392.243 406.322 415.641 403.023Z"/><path fill="#FCD57F" d="M622.555 402.474C645.634 397.304 668.627 405.678 688.08 417.99C690.655 419.643 693.192 421.357 695.686 423.13C677.369 449.956 655.634 476.102 621.676 481.865C604.213 484.829 587.485 483.928 570.148 480.68C567.877 480.254 561.708 479.441 560.215 477.746C559.827 474.865 561.415 471.271 562.374 468.434C570.502 444.4 586.175 419.96 608.839 407.381C610.808 406.289 614.929 404.414 617.015 404.137C618.634 403.446 620.819 402.94 622.555 402.474Z"/><path fill="#8FAF6A" d="M617.015 404.137C618.634 403.446 620.819 402.94 622.555 402.474C629.72 404.501 635.09 407.275 638.665 414.423C645.131 427.351 646.568 441.123 642.734 455.074C636.618 477.327 618.034 485.307 606.104 461.246C600.195 449.329 600.569 432.678 604.869 420.242C608.523 410.037 610.813 410.49 617.015 404.137Z"/><path fill="#FFB6C1" d="M511.128 524.205C514.305 523.964 517.491 523.871 520.676 523.926C534.866 524.096 555.282 526.788 566.178 537.437C568.859 540.057 570.468 544.049 570.192 547.835C568.89 565.725 549.226 566.988 542.322 575.134C535.996 582.598 538.081 589.718 527.635 599.116C526.023 599.946 523.8 601.019 521.988 601.068C505.134 602.122 504.325 581.794 495.672 573.874C487.176 566.099 471.14 564.685 470.036 549.104C468.663 529.712 497.201 525.326 511.128 524.205Z"/><path fill="white" d="M377.123 646.576C383.331 649.047 392.633 653.281 398.752 654.807C408.836 658.325 421.935 664.382 432.34 665.595C448.325 667.459 451.774 677.366 464.922 685.544C494.47 703.922 532.62 703.004 563.655 688.788C572.396 684.78 583.879 676.734 589.142 668.433C607.36 664.909 616.636 661.701 633.877 655.618C641.035 653.266 648.273 650.327 655.252 647.472L656.774 646.856C658.96 651.096 662.11 655.706 663.944 659.826C685.064 697.563 700.042 747.541 701.844 790.879L704.181 793.801C738.919 833.073 756.563 888.924 753.41 941.017C751.511 970.253 742.877 998.654 728.183 1024L597.63 1024L565.29 1024L468.903 1024L438.243 1024C431.337 1013.7 424.651 1000.84 417.409 990.897C404.647 973.376 390.988 954.773 377.485 937.772C350.286 906.927 334.099 867.924 331.465 826.884C331.154 821.037 331.054 815.181 331.164 809.328C331.29 804.929 332.138 795.324 331.288 791.493C331.967 789.428 332.035 787.218 332.27 785.067C333.543 773.42 334.608 761.738 337.086 750.269C343.085 721.722 352.599 694.029 365.412 667.823C369.205 660.101 373.541 653.725 377.123 646.576Z"/><path fill="#F5E6D8" d="M377.123 646.576C383.331 649.047 392.633 653.281 398.752 654.807C408.836 658.325 421.935 664.382 432.34 665.595C448.325 667.459 451.774 677.366 464.922 685.544C494.47 703.922 532.62 703.004 563.655 688.788C572.396 684.78 583.879 676.734 589.142 668.433C607.36 664.909 616.636 661.701 633.877 655.618C635.691 660.307 639.075 667.276 640.174 672.008C635.154 678.692 619.212 693.974 612.64 700.438L573.335 739.509L451.092 862.349C446.031 867.454 417.85 893.82 415.383 898.383L415.575 899.002C408.549 906.452 400.876 913.955 393.79 921.436C390.81 924.581 380.344 935.571 377.485 937.772C350.286 906.927 334.099 867.924 331.465 826.884C331.154 821.037 331.054 815.181 331.164 809.328C331.29 804.929 332.138 795.324 331.288 791.493C331.967 789.428 332.035 787.218 332.27 785.067C333.543 773.42 334.608 761.738 337.086 750.269C343.085 721.722 352.599 694.029 365.412 667.823C369.205 660.101 373.541 653.725 377.123 646.576Z"/><path fill="#CDDF93" d="M377.123 646.576C383.331 649.047 392.633 653.281 398.752 654.807C393.983 670.733 387.571 683.561 382.986 701.225C366.342 765.363 375.58 825.417 406.886 883.581C408.383 886.362 413.744 896.449 415.383 898.383L415.575 899.002C408.549 906.452 400.876 913.955 393.79 921.436C390.81 924.581 380.344 935.571 377.485 937.772C350.286 906.927 334.099 867.924 331.465 826.884C331.154 821.037 331.054 815.181 331.164 809.328C331.29 804.929 332.138 795.324 331.288 791.493C331.967 789.428 332.035 787.218 332.27 785.067C333.543 773.42 334.608 761.738 337.086 750.269C343.085 721.722 352.599 694.029 365.412 667.823C369.205 660.101 373.541 653.725 377.123 646.576Z"/><path fill="#EEECB7" d="M633.877 655.618C641.035 653.266 648.273 650.327 655.252 647.472L656.774 646.856C658.96 651.096 662.11 655.706 663.944 659.826C685.064 697.563 700.042 747.541 701.844 790.879L704.181 793.801C738.919 833.073 756.563 888.924 753.41 941.017C751.511 970.253 742.877 998.654 728.183 1024L597.63 1024L565.29 1024C565.897 1018.67 569.353 1006.87 570.987 1001.44C579.363 973.597 592.282 945.158 605.185 919.115C612.699 903.951 621.887 888.892 629.52 873.57C651.309 829.829 660.394 789.133 656.108 740.227C654.328 720.303 650.245 700.652 643.94 681.668C643.072 679.092 641.293 674.44 640.174 672.008C639.075 667.276 635.691 660.307 633.877 655.618Z"/><defs><linearGradient id="gradient_0" gradientUnits="userSpaceOnUse" x1="758.02527" y1="953.72949" x2="648.08752" y2="907.19989"><stop offset="0" stop-color="#FBE7CA"/><stop offset="1" stop-color="#FBF8ED"/></linearGradient></defs><path fill="url(#gradient_0)" d="M704.181 793.801C738.919 833.073 756.563 888.924 753.41 941.017C751.511 970.253 742.877 998.654 728.183 1024L597.63 1024C601.811 1016.5 608.588 1006.58 613.447 999.482C624.083 983.84 635.257 968.569 646.947 953.698C662.613 933.43 677.465 916.34 687.377 892.211C694.517 874.846 699.266 856.592 701.493 837.949C703.13 824.097 702.081 810.176 702.849 796.313C702.891 795.566 703.761 794.386 704.181 793.801Z"/><path fill="#CDDF93" d="M633.877 655.618C641.035 653.266 648.273 650.327 655.252 647.472L656.774 646.856C658.96 651.096 662.11 655.706 663.944 659.826C661.498 663.898 647.846 678.392 643.94 681.668C643.072 679.092 641.293 674.44 640.174 672.008C639.075 667.276 635.691 660.307 633.877 655.618Z"/><path fill="#EEECB7" d="M415.575 899.002C419.896 905.34 423.943 913.639 427.731 920.408C442.085 946.059 453.392 972.723 462.476 1000.67C464.497 1006.89 467.814 1017.63 468.903 1024L438.243 1024C431.337 1013.7 424.651 1000.84 417.409 990.897C404.647 973.376 390.988 954.773 377.485 937.772C380.344 935.571 390.81 924.581 393.79 921.436C400.876 913.955 408.549 906.452 415.575 899.002Z"/><path fill="white" d="M331.288 791.493C332.138 795.324 331.29 804.929 331.164 809.328C331.054 815.181 331.154 821.037 331.465 826.884C334.099 867.924 350.286 906.927 377.485 937.772C390.988 954.773 404.647 973.376 417.409 990.897C424.651 1000.84 431.337 1013.7 438.243 1024L383.034 1024L304.369 1024C303.42 1021.69 301.823 1018.58 300.66 1016.34C286.1 988.312 279.557 958.997 279.685 927.247C279.729 886.763 291.719 847.194 314.151 813.494C317.518 808.448 324.116 799.026 328.287 794.889L331.288 791.493Z"/><path fill="#CDDF93" d="M304.369 1024C303.42 1021.69 301.823 1018.58 300.66 1016.34C286.1 988.312 279.557 958.997 279.685 927.247C279.729 886.763 291.719 847.194 314.151 813.494C317.518 808.448 324.116 799.026 328.287 794.889C328.539 797.813 325.569 802.757 324.286 805.625C296.387 867.958 298.02 941.59 345.51 993.49C356.557 1005.34 369.184 1015.6 383.034 1024L304.369 1024Z"/><path fill="#060606" fill-opacity="0.14117648" d="M262.634 537.1C263.3 537.412 263.415 537.464 264.003 537.891L264.431 538.669C264.574 538.925 267.392 541.069 266.315 541.57C265.419 541.987 262.62 541.86 261.344 541.985C259.719 541.801 258.491 541.395 256.924 540.926C258.065 540.846 261.752 540.93 262.238 540.766C260.829 539.047 262.887 539.842 262.689 537.817L262.634 537.1Z"/><path fill="#060606" fill-opacity="0.3137255" d="M764.425 543.043C766.571 541.541 768.823 540.219 771.029 538.779C772.223 542.702 772.596 541.105 776.899 541.459C776.17 541.696 775.861 541.839 775.158 541.931C771.757 542.012 768.096 542.747 764.425 543.043Z"/><path fill="#060606" fill-opacity="0.26274511" d="M264.003 537.891C265.562 538.694 266.957 539.559 268.481 540.355C267.821 542.857 266.113 542.276 263.831 542.622L261.344 541.985C262.62 541.86 265.419 541.987 266.315 541.57C267.392 541.069 264.574 538.925 264.431 538.669L264.003 537.891Z"/><path fill="#060606" fill-opacity="0.40000001" d="M268.481 540.355C269.146 540.66 269.754 540.966 270.407 541.293C270.776 543.501 267.75 542.866 265.919 543.02L263.831 542.622C266.113 542.276 267.821 542.857 268.481 540.355Z"/></svg>