<?xml version="1.0" encoding="utf-8" ?><svg xmlns="http://www.w3.org/2000/svg" xmlns:xlink="http://www.w3.org/1999/xlink" width="1024" height="1024" viewBox="0 0 1024 1024"><path fill="#1A1A1A" d="M221.129 255.388C213.764 230.014 210.929 205.139 212.061 178.735C212.796 161.58 221.283 103.089 233.354 92.6354C235.725 90.582 238.463 90.0673 241.533 90.3404C265.266 92.4519 368.461 180.154 386.661 202.555C383.455 191.627 378.595 178.928 370.975 170.29C393.467 184.965 404.657 199.088 417.9 221.856C415.801 205.059 413.52 195.263 404.709 180.18L406.768 181.941C437.866 208.76 452.217 240.569 455.193 281.253C461.186 279.843 474.535 278.427 480.803 277.755C512.23 274.39 543.258 275.654 574.363 281.398C575.204 273.133 575.882 265.905 577.679 257.75C584.235 228.827 599.899 202.772 622.368 183.417L623.631 184.599C617.135 197.06 613.464 207.243 612.853 221.413C625.885 198.29 637.922 185.708 659.057 170.295C652.191 179.798 646.291 190.932 643.824 202.475C679.531 165.971 718.66 131.978 761.557 104.11C769.278 99.0942 780.256 90.4232 789.819 90.2999C792.981 90.2591 795.784 91.8051 797.979 94.0019C807.914 103.944 815.9 149.517 817.602 164.358C818.927 175.91 819.674 187.867 819.354 199.5C818.905 215.826 816.283 241.772 809.597 256.47C816.063 248.948 821.006 243.129 826.815 235.091C825.502 254.422 821.207 273.643 814.951 292.014C813.132 297.355 810.265 303.169 808.039 308.363C814.535 304.009 821.875 295.949 827.551 290.17C824.066 313.012 817.006 324.987 801.407 340.953C809.47 340.766 816.429 340.163 823.802 336.542C819.538 348.355 809.586 356.382 799.46 363.136C807.218 362.411 813.986 361.871 821.327 358.867C812.796 373.443 801.912 384.957 789.147 395.888C800.029 399.08 809.833 402.805 818.572 410.393C807.76 410.212 797.467 412.568 787.179 415.713C805.529 426.166 818.271 434.668 829.249 453.533C812.539 449.906 793.651 446.505 776.688 449.765C794.39 458.384 801.916 462.007 814.601 477.332C801.356 473.343 791.823 471.341 777.726 471.52C794.722 484.709 809.906 495.977 821.923 514.667C805.242 507.96 790.161 502.785 772.097 500.746C798.097 518.541 820.655 549.599 827.539 580.428C820.102 571.408 808.014 562.931 797.627 557.679C797.235 557.446 795.774 556.389 795.306 556.881C795.428 557.598 796.327 558.202 796.805 558.688C803.427 565.942 810.902 573.841 816.54 581.754C830.06 600.733 839.96 631.268 839.513 654.652C824.105 639.318 800.562 628.791 779.068 626.683C782.439 630.432 787.409 635.607 790.275 639.521C801.527 654.892 809.753 673.878 812.84 692.659C802.59 681.864 793.487 673.257 779.729 666.923C793.228 685.087 800.378 707.187 800.076 729.816C789.124 713.058 780.879 701.962 762.097 692.899C768.675 704.95 776.974 726.425 778.412 739.74C749.125 703.431 691.313 677.004 645.308 672.104C636.192 671.122 627.017 670.798 617.855 671.133C617.045 686.719 613.277 698.569 601.341 709.441C594.765 715.43 587.744 717.546 579.884 721.299C576.586 723.008 572.472 728.072 568.907 730.274C537.056 749.945 492.891 750.002 461.436 729.487C459.078 727.948 454.203 722.356 452.83 721.848C427.594 712.508 414.532 698.595 413.486 670.973C360.626 670.472 302.974 692.225 265.28 729.49C262.143 732.534 259.23 735.801 256.564 739.266C258.765 722.878 266.576 706.215 274.8 691.911C258.031 699.511 245.422 712.128 236.399 728.101C236.034 728.837 235.372 730.747 234.794 731.019L234.647 730.94C234.231 729.859 234.719 723.169 234.905 721.904C235.087 703.451 244.706 681.488 255.4 666.726C241.93 672.377 231.11 681.707 222.069 693.061C222.409 687.952 224.211 681.182 225.71 676.289C232.176 655.178 240.974 642.474 255.778 626.882C231.575 629.541 213.622 638.395 195.42 654.227C195.387 653.427 195.376 652.626 195.386 651.826C195.908 614.308 213.874 581.588 240.111 555.779C225.254 563.089 218.011 568.443 206.441 580.251C214.546 551.083 234.369 517.213 260.56 501.192C243.953 502.639 226.108 507.991 210.861 514.708C220.544 497.911 239.277 482.716 254.618 471.418C240.468 471.339 229.814 473.214 216.671 477.891C226.281 465.586 238.216 456.987 252.635 451.186C253.228 450.938 255.054 450.315 255.329 449.824C255.124 449.284 253.653 449.418 253.182 449.398C237.883 447.211 217.33 450.17 202.266 453.656C208.707 439.113 229.586 422.597 243.954 416.139C233.828 411.962 223.685 410.892 212.9 410.012C220.567 403.922 232.913 397.827 242.326 395.719C228.364 381.954 220.167 375.368 208.717 357.99C215.3 360.838 224.087 362.373 231.177 363.267C221.299 353.996 212.864 352.482 207.475 336.999C216.044 339.751 220.594 340.846 229.536 340.917C226.994 337.39 222.784 333.65 219.998 329.947C211.151 318.187 205.882 304.616 203.592 290.223C209.599 297.384 215.558 303.639 223.461 308.635C213.198 286.711 205.514 260.093 204.239 235.804C210.511 244.039 213.486 248.326 221.129 255.388ZM538.873 711.774C569.389 725.095 593.07 717.477 607.369 686.362C622.181 654.131 614.669 614.015 601.898 582.327C588.035 547.93 563.192 519.203 546.738 485.978C538.02 468.375 544.17 452.551 550.934 435.314C554.267 427.031 559.328 419.278 562.802 410.996C574.154 384.562 574.672 354.728 564.245 327.916C554.706 303.357 538.246 299.754 515.405 308.471C506.48 305.46 500.474 303.218 490.813 304.191C479.36 306.506 473.588 311.847 468.722 322.234C458.898 343.209 456.485 369.131 461.455 391.639C463.221 399.423 465.782 407.005 469.1 414.264C471.905 420.521 475.57 426.637 478.459 432.784C483.7 443.933 488.785 460.852 487.697 473.287C486.845 483.023 477.576 497.178 472.342 505.964C466.084 516.495 459.749 526.98 453.339 537.419C450.138 542.592 446.924 547.646 443.802 552.969C423.49 587.6 410.877 626.027 417.496 666.575C422.174 695.234 443.344 724.294 475.814 717.493C487.727 714.997 498.566 707.625 510.425 704.917C521.106 702.255 529.494 707.384 538.873 711.774ZM403.85 467.039C398.428 472.77 394.98 474.829 387.84 478.278C394.056 481.239 396.778 485.77 401.182 490.828C402.802 492.689 405.075 494.564 406.889 496.263C406.893 496.287 403.819 487.01 403.402 485.758C401.01 478.583 404.328 473.507 403.927 468.017L403.85 467.039ZM427.278 461.203C422.388 461.506 418.6 465.601 418.679 470.499C418.719 472.974 419.757 475.327 421.558 477.024C423.359 478.721 425.769 479.618 428.242 479.51C433.333 479.29 437.266 474.959 436.998 469.871C436.73 464.782 432.364 460.889 427.278 461.203ZM624.777 494.834C631.783 488.817 635.46 482.25 644.151 478.513C634.226 473.618 633.309 471.724 625.302 465.159C626.341 468.279 627.161 470.607 627.798 473.793C628.964 479.624 628.237 484.779 626.3 490.363C625.717 492.043 625.029 493.028 624.777 494.834ZM605.741 461.417C602.52 462.262 600.004 464.776 599.156 467.996C598.308 471.217 599.259 474.644 601.646 476.966C604.033 479.288 607.485 480.144 610.68 479.208C615.524 477.789 618.331 472.742 616.98 467.878C615.63 463.014 610.623 460.136 605.741 461.417Z"/><path fill="#2C2C2C" d="M234.905 721.904C234.969 725.283 234.427 725.496 236.399 728.101C236.034 728.837 235.372 730.747 234.794 731.019L234.647 730.94C234.231 729.859 234.719 723.169 234.905 721.904Z"/><path fill="#1A1A1A" d="M509.93 609.689C529.969 608.571 557.8 616.664 560.662 641.364C561.255 646.483 558.313 654.416 554.438 657.796C552.153 659.789 549.296 661.232 547.095 663.655L547.168 664.46C549.229 665.377 551.523 664.926 553.869 664.755C550.672 681.767 534.223 689.464 519.272 693.425C511.81 694.774 503.507 691.743 496.79 688.571C487.14 684.014 480.071 675.395 476.662 665.306C478.982 665.238 483.79 665.399 485.397 663.928C484.405 662.155 478.777 660.038 476.882 658.213C462.828 644.622 472.364 624.761 487.062 616.525C494.968 612.096 500.931 610.356 509.93 609.689ZM492.943 631.717C502.586 631.175 512.576 630.934 522.303 630.016C527.594 629.517 539.465 634.301 545.49 631.989L545.675 631.462C542.533 627.69 524.886 625.41 519.908 625.229C511.698 624.931 498.93 625.825 491.693 630.082C492.103 630.633 492.519 631.178 492.943 631.717Z"/><path fill="white" d="M484.524 633.039C485.782 632.412 490.575 629.634 491.693 630.082C492.103 630.633 492.519 631.178 492.943 631.717C492.215 631.965 491.526 632.045 490.757 632.142L484.524 633.039Z"/><path fill="#6B4226" d="M673.735 270.39C682.885 254.023 694.923 238.01 707.449 223.368C724.136 204.256 742.418 183.625 766.123 173.319C772.958 170.347 776.046 177.878 776.661 183.196C782.98 237.831 770.456 312.919 737.545 357.251C735.436 360.058 733.278 362.829 731.074 365.563C736.865 363.644 743.466 361.597 749.112 359.45C741.429 383.651 706.994 382.583 690.538 368.95C704.021 368.989 711.571 368.979 725.044 367.047C708.123 362.955 693.675 358.012 681.378 345.168C693.389 331.921 700.809 326.261 717.713 321.532C701.809 316.838 689.379 316.889 673.1 320.033C680.323 291.88 697.517 264.414 722.892 249.399C723.648 248.953 724.41 248.516 725.177 248.089L724.575 247.176C705.686 251.138 689.334 259.209 673.735 270.39Z"/><path fill="#3B200F" d="M724.575 247.176C725.12 246.979 727.528 246.114 728.032 246.37C728.012 247.165 725.743 247.841 725.177 248.089L724.575 247.176Z"/><path fill="#6B4226" d="M259.134 172.982C284.968 170.888 345.335 247.682 357.624 270.173C340.117 257.691 324.463 250.886 303.324 247.047C305.78 248.298 308.175 249.665 310.503 251.143C333.398 265.62 352.615 294 358.589 320.236C341.207 316.95 329.821 317.155 312.379 321.896C322.339 324.231 325.826 324.955 334.484 330.402C340.838 335.083 345.226 339.065 350.199 345.117C339.21 356.159 323.466 362.618 308.727 366.775C316.897 368.957 332.279 369.063 341.019 368.794C322.071 381.277 292.168 384.348 282.061 359.457C287.471 361.649 293.402 363.212 299.028 364.843C269.73 329.321 254.621 271.059 252.949 225.573C252.537 214.363 252.116 180.397 259.134 172.982Z"/><path fill="#6B4226" d="M403.85 467.039C405.987 462.83 413.43 457.717 417.746 455.965C428.777 451.485 440.491 459.461 445.459 469.114C452.616 474.927 454.868 490.255 456.749 498.699C447.83 502.432 437.978 504.238 428.334 503.936C422.004 504.093 410.678 501.691 406.889 496.263C406.893 496.287 403.819 487.01 403.402 485.758C401.01 478.583 404.328 473.507 403.927 468.017L403.85 467.039ZM418.679 470.499C418.719 472.974 419.757 475.327 421.558 477.024C423.359 478.721 425.769 479.618 428.242 479.51C433.333 479.29 437.266 474.959 436.998 469.871C436.73 464.782 432.364 460.889 427.278 461.203C422.388 461.506 418.6 465.601 418.679 470.499Z"/><path fill="#2C2C2C" d="M445.459 469.114C452.616 474.927 454.868 490.255 456.749 498.699C447.83 502.432 437.978 504.238 428.334 503.936C443.885 498.344 449.927 484.744 445.459 469.114Z"/><path fill="#6B4226" d="M585.618 468.938C588.615 463.351 592.519 459.475 598.281 456.562C608.624 451.332 618.519 456.39 625.336 464.669C625.469 464.83 625.364 464.997 625.302 465.159C626.341 468.279 627.161 470.607 627.798 473.793C628.964 479.624 628.237 484.779 626.3 490.363C625.717 492.043 625.029 493.028 624.777 494.834C621.297 501.016 609.762 504.005 603.007 503.869C591.432 504.027 585.239 502.261 574.159 498.97L574.307 498.233C574.709 496.235 575.148 494.245 575.624 492.263C577.539 484.123 580.082 475.394 585.618 468.938ZM610.68 479.208C615.524 477.789 618.331 472.742 616.98 467.878C615.63 463.014 610.623 460.136 605.741 461.417C602.52 462.262 600.004 464.776 599.156 467.996C598.308 471.217 599.259 474.644 601.646 476.966C604.033 479.288 607.485 480.144 610.68 479.208Z"/><path fill="#2C2C2C" d="M574.159 498.97L574.307 498.233C574.709 496.235 575.148 494.245 575.624 492.263C577.539 484.123 580.082 475.394 585.618 468.938C582.784 483.928 586.271 499.776 603.007 503.869C591.432 504.027 585.239 502.261 574.159 498.97Z"/><path fill="#2C2C2C" fill-opacity="0.98431373" d="M622.368 183.417C623.1 182.778 624.2 181.621 625.137 181.259C625.479 181.127 625.252 181.919 625.191 182.034C624.726 182.917 624.156 183.746 623.631 184.599L622.368 183.417Z"/><path fill="white" fill-opacity="0.011764706" d="M253.182 449.398C253.653 449.418 255.124 449.284 255.329 449.824C255.054 450.315 253.228 450.938 252.635 451.186L253.182 449.398Z"/><path fill="white" fill-opacity="0.011764706" d="M796.805 558.688C796.327 558.202 795.428 557.598 795.306 556.881C795.774 556.389 797.235 557.446 797.627 557.679L796.805 558.688Z"/></svg>