<?xml version="1.0" encoding="utf-8" ?><svg xmlns="http://www.w3.org/2000/svg" xmlns:xlink="http://www.w3.org/1999/xlink" width="1024" height="1024" viewBox="0 0 1024 1024"><path fill="#FDEBD0" d="M606.039 243.109C620.155 228.304 634.968 214.444 650.003 200.59C672.351 179.996 728.051 127.896 758.941 127.553C765.012 127.486 770.116 130.197 774.284 134.474C790.897 151.519 793.836 187.523 793.357 210.59C792.635 235.636 788.558 260.472 781.236 284.435C778.457 293.355 774.081 303.788 771.708 312.067C775.605 311.753 779.499 311.396 783.389 310.998C780.041 313.89 769.546 322.097 769.864 326.513C769.654 330.086 767.553 334.43 766.391 337.986C765.128 341.83 764.1 345.748 763.313 349.718C761.314 359.674 761.314 367.594 761.55 377.675C762.94 380.841 765.088 384.05 766.895 387.02C775.618 401.355 785.538 415.217 792.895 430.34C800.486 441.417 812.884 467.821 811.944 481.221C810.969 485.898 810.082 490.291 808.793 494.906C844.238 497.214 899.108 510.446 930.045 528.272L928.329 529.313C894.243 512.447 844.944 504.611 807.549 501.221C806.651 503.819 805.507 506.25 804.546 508.891C802.725 513.201 800.562 518.523 798.435 522.606C841.527 531.45 899.392 557.483 931.971 587.272L930.459 588.094C896.36 563.563 862.748 547.454 822.348 535.798C816.158 534.013 801.213 529.72 794.984 528.967C789.518 538.663 787.595 542.759 780.571 551.477L779.806 553.531C806.87 567.625 830.861 586.961 850.382 610.415C849.802 611.316 849.784 611.275 848.888 611.978C826.403 588.293 805.012 573.398 776.258 558.513C767.557 569.261 760.865 577.544 751.723 588.08C739.538 607.54 727.898 615.097 706.619 623.8C699.269 626.806 691.943 629.81 684.401 632.576C679.725 634.291 671.976 635.464 668.062 637.54C649.905 661.538 655.594 702.176 660.969 730.072C671.471 792.965 691.666 842.182 720.076 898.474C695.409 911.494 663.97 921.51 637.257 929.3C524.147 962.287 411.381 947.236 304.936 898.633C307.438 892.818 312.216 884.412 315.203 878.372C320.478 867.661 325.405 856.782 329.976 845.753C342.948 814.571 353.196 782.323 360.603 749.373C363.96 733.936 366.098 719.295 368.915 703.83L369.696 694.677C371.252 675.461 371.506 652.308 358.214 636.679C332.967 627.545 305.89 623.516 286.105 603.167C281.394 598.322 277.225 592.61 273.021 587.289C265.768 579.449 258.851 571.306 252.287 562.88C251.19 561.471 250.199 560.269 249.062 558.895C230.066 567.11 194.173 593.264 180.684 608.965L178.424 608.251C193.95 589.82 212.257 573.924 232.685 561.138C235.641 559.304 241.854 555.536 244.975 554.49L244.504 553.098C243.404 550.725 242.05 548.805 240.415 546.752C236.254 541.527 233.598 535.53 230.613 529.634L230.187 528.812C183.571 539.293 147.384 554.211 107.408 579.79C105.77 579.607 105.096 579.751 103.439 579.698C137.574 552.396 183.203 533.513 225.208 522.839C225.163 522.668 225.118 522.498 225.072 522.327L224.833 521.478C223.656 517.171 221.928 513.501 220.17 509.407C219.746 507.433 218.38 503.275 217.741 501.281C176.135 503.66 135.245 513.158 96.8513 529.363L94.349 528.597C126.476 510.125 171.624 500.374 207.959 495.718C210.189 495.433 213.227 495.345 215.227 494.497C214.627 489.652 214.077 485.361 213.845 480.467C212.419 466.74 224.647 442.066 232.086 430.296C237.146 420.995 242.055 411.833 247.584 402.803C252.767 394.34 258.71 386.06 263.643 377.503C263.896 371.633 264.265 366.099 263.575 360.249C262.533 351.415 260.397 342.999 257.329 334.662C257.293 334.492 257.258 334.321 257.223 334.151C256.159 331.348 255.727 330.329 255.199 327.378C254.349 320.341 246.282 316.125 240.931 311.003C244.72 311.271 248.514 311.454 252.311 311.552C250.835 302.639 246.348 294.019 243.711 285.352C237.493 264.907 233.22 243.297 231.996 221.946C230.464 195.228 231.605 155.605 250.404 134.841C254.401 130.426 258.666 127.805 264.728 127.648C305.984 126.574 390.372 214.95 420.634 242.857C432.081 237.993 442.997 234.582 454.974 231.329C465.257 229.055 473.295 227.615 483.769 225.952C501.05 224.257 517.173 223.112 534.454 225.238C536.881 225.537 539.824 225.862 542.225 225.99C551.953 227.275 561.216 229.38 570.822 231.352C583.491 235.551 593.349 238.057 606.039 243.109ZM299.994 529.372C300.26 529.744 300.526 530.115 300.792 530.487C302.702 530.55 304.49 530.529 306.387 530.553C307.824 530.349 311.029 530.208 311.714 528.865C312.732 526.872 313.32 527.527 314.618 526.739L314.507 526.614C313.632 526.376 312.329 526.539 311.735 526.437C311.001 526.312 304.425 524.054 307.389 522.876C308.114 522.588 308.863 521.204 309.461 520.692C309.928 520.299 311.993 520.5 312.227 520.854C312.126 521.463 311.533 521.804 311.375 522.405C312.202 524.404 313.344 521.166 313.718 521.133C316.072 520.924 316.611 518.931 314.225 518.321C311.024 517.502 309.671 519.525 306.57 520.888C305.178 521.966 301.034 527.735 299.994 529.372Z"/><path fill="#FEE6C9" fill-opacity="0.72941178" d="M306.57 520.888C309.671 519.525 311.024 517.502 314.225 518.321C316.611 518.931 316.072 520.924 313.718 521.133C313.344 521.166 312.202 524.404 311.375 522.405C311.533 521.804 312.126 521.463 312.227 520.854C311.993 520.5 309.928 520.299 309.461 520.692C308.863 521.204 308.114 522.588 307.389 522.876C304.425 524.054 311.001 526.312 311.735 526.437C312.329 526.539 313.632 526.376 314.507 526.614L314.618 526.739C313.32 527.527 312.732 526.872 311.714 528.865C311.029 530.208 307.824 530.349 306.387 530.553C309.984 527.421 302.288 525.513 300.972 529.953L300.792 530.487C300.526 530.115 300.26 529.744 299.994 529.372C301.034 527.735 305.178 521.966 306.57 520.888Z"/><path fill="#FEE6C9" fill-opacity="0.36862746" d="M300.792 530.487L300.972 529.953C302.288 525.513 309.984 527.421 306.387 530.553C304.49 530.529 302.702 530.55 300.792 530.487Z"/><path fill="#F5B06E" d="M606.039 243.109C620.155 228.304 634.968 214.444 650.003 200.59C672.351 179.996 728.051 127.896 758.941 127.553C765.012 127.486 770.116 130.197 774.284 134.474C790.897 151.519 793.836 187.523 793.357 210.59C792.635 235.636 788.558 260.472 781.236 284.435C778.457 293.355 774.081 303.788 771.708 312.067C775.605 311.753 779.499 311.396 783.389 310.998C780.041 313.89 769.546 322.097 769.864 326.513C769.654 330.086 767.553 334.43 766.391 337.986C765.128 341.83 764.1 345.748 763.313 349.718C761.314 359.674 761.314 367.594 761.55 377.675C762.94 380.841 765.088 384.05 766.895 387.02C775.618 401.355 785.538 415.217 792.895 430.34C800.486 441.417 812.884 467.821 811.944 481.221C810.969 485.898 810.082 490.291 808.793 494.906C780.523 492.332 748.454 493.054 720.24 495.527C713.424 496.157 706.628 496.98 699.859 497.995C697.681 498.307 691.494 499.378 689.569 499.444L689.696 498.795C677.745 493.627 653.319 486.019 640.162 482.42C611.011 474.446 591.869 472.721 572.107 446.361L571.411 447.282C565.898 468.9 563.419 474.926 554.575 494.923C554.304 493.879 554.017 492.072 553.806 490.954C541.548 473.837 522.198 476.035 503.331 475.903C491.107 475.818 480.492 480.181 472.188 489.139L470.748 492.399C464.486 480.806 460.953 468.565 457.538 455.948C456.709 452.885 455.948 449.903 454.584 447.024L453.242 446.706L452.74 447.248C447.227 453.316 442.966 460.673 435.246 465.086C432.301 466.77 428.993 468.768 425.865 470.1C399.816 481.193 370.412 483.26 344.62 495.672C342.52 496.683 338.389 498.154 336.916 499.822C300.097 492.71 258.582 492.451 221.243 494.546C219.679 494.634 216.445 495.153 215.227 494.497C214.627 489.652 214.077 485.361 213.845 480.467C212.419 466.74 224.647 442.066 232.086 430.296C237.146 420.995 242.055 411.833 247.584 402.803C252.767 394.34 258.71 386.06 263.643 377.503C263.896 371.633 264.265 366.099 263.575 360.249C262.533 351.415 260.397 342.999 257.329 334.662C257.293 334.492 257.258 334.321 257.223 334.151C256.159 331.348 255.727 330.329 255.199 327.378C254.349 320.341 246.282 316.125 240.931 311.003C244.72 311.271 248.514 311.454 252.311 311.552C250.835 302.639 246.348 294.019 243.711 285.352C237.493 264.907 233.22 243.297 231.996 221.946C230.464 195.228 231.605 155.605 250.404 134.841C254.401 130.426 258.666 127.805 264.728 127.648C305.984 126.574 390.372 214.95 420.634 242.857C432.081 237.993 442.997 234.582 454.974 231.329C465.257 229.055 473.295 227.615 483.769 225.952C501.05 224.257 517.173 223.112 534.454 225.238C536.881 225.537 539.824 225.862 542.225 225.99C551.953 227.275 561.216 229.38 570.822 231.352C583.491 235.551 593.349 238.057 606.039 243.109Z"/><path fill="#F0883A" d="M232.086 430.296C288.28 408.22 322.521 425.186 364.794 461.822C371.176 467.353 381.321 475.124 388.698 478.928C379.352 478.12 365.575 476.634 356.702 473.733C308.246 457.891 259.451 447.979 213.845 480.467C212.419 466.74 224.647 442.066 232.086 430.296Z"/><path fill="#F0883A" d="M636.804 478.523C644.79 474.678 652.256 468.345 659.042 462.856C681.523 444.673 701.839 426.925 731.467 421.921C753.891 418.133 771.937 422.267 792.895 430.34C800.486 441.417 812.884 467.821 811.944 481.221C779.787 455.427 734.58 455.045 696.418 465.462C675.753 471.103 659.098 478.635 636.804 478.523Z"/><path fill="#F0883A" d="M483.769 225.952C501.05 224.257 517.173 223.112 534.454 225.238C536.881 225.537 539.824 225.862 542.225 225.99C541.974 230.45 539.534 239.793 538.392 244.519L530.445 276.611C528.245 285.556 516.496 340.323 513.304 345.282L512.247 345.347C509.538 343.082 502.749 308.877 501.385 302.904C495.306 277.301 489.434 251.65 483.769 225.952Z"/><path fill="#F0883A" d="M570.822 231.352C583.491 235.551 593.349 238.057 606.039 243.109C606.883 243.564 607.733 244.009 608.588 244.444C608.617 244.745 608.645 245.047 608.673 245.348C604.734 250.188 598.114 258.133 594.764 262.812C577.664 286.701 559.318 315.995 547.666 342.913C542.872 310.957 556.009 259.875 570.822 231.352Z"/><path fill="#F0883A" d="M420.634 242.857C432.081 237.993 442.997 234.582 454.974 231.329C473.299 275.796 478.429 295.751 477.419 343.689C468.633 323.17 452.032 293.482 439.068 275.101C434.386 268.501 429.58 261.989 424.654 255.568C423.192 253.67 417.109 246.341 416.357 244.702C417.849 243.63 418.904 243.415 420.634 242.857Z"/><path fill="#BA4C0B" d="M301.444 386.215C320.8 402.261 345.198 393.822 367.743 390.477C403.149 385.224 442.245 399.57 455.733 434.992C457.023 438.38 459.172 442.29 456.967 445.69C455.972 446.303 455.637 446.562 454.584 447.024L453.242 446.706C450.814 444.674 449.359 442.07 447.453 439.575C445.143 436.599 442.627 433.789 439.924 431.166C421.88 413.612 395.634 406.397 371.003 408.491C341.188 411.026 319.825 414.354 301.444 386.215Z"/><path fill="#BA4C0B" d="M571.411 447.282C568.794 446.299 565.753 445.262 566.629 441.671C575.472 405.459 611.51 388.433 646.5 389.526C675.245 390.425 695.921 404.735 722.762 386.925C713.451 402.268 693.923 412.441 676.109 410.465C631.885 405.561 598.714 407.058 572.107 446.361L571.411 447.282Z"/><path fill="#FDEBD0" d="M472.188 489.139C472.325 483.392 472.219 478.68 474.559 473.263C491.988 432.917 558.31 443.506 553.806 490.954C541.548 473.837 522.198 476.035 503.331 475.903C491.107 475.818 480.492 480.181 472.188 489.139Z"/><path fill="#BA4C0B" d="M769.864 326.513C769.654 330.086 767.553 334.43 766.391 337.986C765.128 341.83 764.1 345.748 763.313 349.718C761.314 359.674 761.314 367.594 761.55 377.675C759.97 376.202 749.622 361.811 748.245 359.488L747.758 358.703C751.055 352.677 754.797 348.527 758.593 343.018C762.326 337.6 766.233 331.983 769.864 326.513Z"/><path fill="#BA4C0B" d="M257.661 330.687C261.633 335.563 274.042 353.173 276.628 358.177C273.651 364.419 267.588 371.493 263.643 377.503C263.896 371.633 264.265 366.099 263.575 360.249C262.533 351.415 260.397 342.999 257.329 334.662C257.293 334.492 257.258 334.321 257.223 334.151C257.545 332.585 257.12 332.026 257.661 330.687Z"/><path fill="#E06820" d="M255.199 327.378C256.479 328.735 256.815 329.018 257.661 330.687C257.12 332.026 257.545 332.585 257.223 334.151C256.159 331.348 255.727 330.329 255.199 327.378Z"/><path fill="#BA4C0B" d="M645.431 251.59C649.2 245.216 652.907 239.255 657.072 232.4C673.227 205.808 756.03 102.046 773.774 180.47C784.46 227.696 767.5 298.518 740.948 340.384C740.003 341.89 738.963 343.335 737.836 344.71C717.348 321.282 692.678 297.758 666.833 280.396C675.43 276.111 686.518 273.852 696.059 273.496L696.96 272.287C683.87 269.185 671.897 268.944 658.537 269.056C668.639 255.133 682.73 250.637 699.282 248.02C703.364 247.403 707.46 246.889 711.568 246.481C688.816 240.895 667.221 245.387 645.431 251.59Z"/><path fill="#F5B06E" d="M696.96 272.287C701.485 273.183 698.538 273.487 696.059 273.496L696.96 272.287Z"/><path fill="#BA4C0B" d="M286.731 344.689C284.002 341.746 278.139 330.855 276.074 326.867C267.977 310.993 261.484 294.351 256.69 277.188C244.513 232.504 233.308 102.929 315.199 171.487C335.849 188.775 368.527 227.921 379.598 252.276C354.954 244.431 338.686 241.659 312.522 246.615C332.392 248.602 354.026 251.262 366.308 269.017C350.021 268.887 342.225 268.914 326.063 272.232C327.688 273.213 328.888 273.031 330.764 273.463C339.581 273.731 349.29 276.271 357.043 280.54C330.609 297.963 308.131 321.71 286.731 344.689Z"/><path fill="#E06820" d="M330.764 273.463C329.884 273.473 318.519 273.472 326.063 272.232C327.688 273.213 328.888 273.031 330.764 273.463Z"/><path fill="#F0883A" d="M384.244 305.904C393.48 305.103 400.903 304.724 409.771 307.205C437.89 315.072 450.971 343.802 448.66 371.252C448.415 374.156 448.354 376.626 447.777 379.528C430.879 353.975 418.46 346.288 389.941 335.605C397.561 335.789 405.909 335.824 413.404 336.987C408.111 331.995 402.674 328.869 396.526 325.081L397.082 323.104C400.796 323.413 404.873 323.433 408.629 323.526C402.607 316.287 393.073 309.176 384.244 305.904Z"/><path fill="#F0883A" d="M577.204 379.285C576.86 375.029 576.464 370.645 576.364 366.502C575.746 340.796 588.844 314.96 614.831 307.58C624.567 304.815 630.547 305.316 640.571 305.597C632.186 309.466 621.319 316.29 616.28 324.264C620.822 323.724 623.447 323.476 627.991 323.486L627.954 325.233C622.627 328.206 616.539 332.284 612.133 336.517L628.845 335.946C630.433 335.964 631.715 335.774 633.086 336.345C631.932 337.107 631.932 337.05 630.576 337.409C604.547 347.064 592.95 357.295 577.204 379.285Z"/><path fill="#E06820" d="M396.526 325.081C396.294 324.974 394.155 324.18 394.325 323.68C394.692 323.343 396.64 323.168 397.082 323.104L396.526 325.081Z"/><path fill="#E06820" d="M627.991 323.486C631.546 322.76 629.621 324.274 627.954 325.233L627.991 323.486Z"/><path fill="#F5B06E" d="M368.915 703.83C427.249 746.227 499.424 771.525 571.957 760.101C597.652 756.158 622.658 748.587 646.226 737.616C649.629 736.047 658.04 732.097 660.969 730.072C671.471 792.965 691.666 842.182 720.076 898.474C695.409 911.494 663.97 921.51 637.257 929.3C524.147 962.287 411.381 947.236 304.936 898.633C307.438 892.818 312.216 884.412 315.203 878.372C320.478 867.661 325.405 856.782 329.976 845.753C342.948 814.571 353.196 782.323 360.603 749.373C363.96 733.936 366.098 719.295 368.915 703.83Z"/><path fill="#BA4C0B" d="M358.214 636.679C365.921 637.923 383.144 647.921 391.224 651.826C431.721 671.398 473.526 688.721 519.441 686.327C563.507 684.295 600.971 668.953 639.758 649.263C644.353 646.93 663.908 636.316 668.062 637.54C649.905 661.538 655.594 702.176 660.969 730.072C658.04 732.097 649.629 736.047 646.226 737.616C622.658 748.587 597.652 756.158 571.957 760.101C499.424 771.525 427.249 746.227 368.915 703.83L369.696 694.677C371.252 675.461 371.506 652.308 358.214 636.679Z"/><path fill="#BA4C0B" d="M511.973 533.063L512.701 532.887C524.231 564.707 566.432 574.241 595.699 563.319C603.22 560.554 610.273 556.654 616.614 551.755C622.061 547.516 625.618 540.214 630.393 540.289C636.893 544.08 627.934 551.952 624.979 554.918C599.262 580.726 548.979 591.392 517.097 571.554C515.441 570.53 513.821 569.448 512.241 568.31C476.944 593.732 421.049 580.94 394.022 548.966C391.956 546.522 391.103 542.801 393.698 540.417C395.063 540.166 396.281 540.234 397.449 541.169C401.694 544.606 404.207 548.944 408.665 552.312C425.011 564.658 446.623 570.584 466.95 566.733C487.157 562.905 504.099 552.468 511.973 533.063Z"/><path fill="#F7A8A8" d="M472.188 489.139C480.492 480.181 491.107 475.818 503.331 475.903C522.198 476.035 541.548 473.837 553.806 490.954C554.017 492.072 554.304 493.879 554.575 494.923C553.362 499.41 553.081 500.381 549.659 503.783C539.39 508.269 533.13 509.058 529.951 521.273C528.984 529.487 519.382 531.155 512.701 532.887L511.973 533.063C506.299 529.951 495.778 530.092 494.772 520.818C493.197 514.922 489.744 509.042 483.747 507.021C480.636 505.971 478.762 505.692 475.963 503.938C471.593 500.591 469.939 497.85 470.748 492.399L472.188 489.139Z"/><path fill="#E05E56" d="M529.951 521.273C526.283 516.162 521.631 505.616 525.688 499.661C527.08 497.617 529.287 496.274 531.742 495.977C538.923 495.095 544.645 499.119 549.659 503.783C539.39 508.269 533.13 509.058 529.951 521.273Z"/><path fill="#E05E56" d="M475.963 503.938C481.83 496.258 499.042 490.91 500.923 504.749C501.366 508.007 496.899 520.573 494.772 520.818C493.197 514.922 489.744 509.042 483.747 507.021C480.636 505.971 478.762 505.692 475.963 503.938Z"/><path fill="#F5B06E" d="M215.227 494.497C216.445 495.153 219.679 494.634 221.243 494.546C258.582 492.451 300.097 492.71 336.916 499.822C342.429 500.894 349.876 502.197 355.2 503.7C354.504 504.098 353.798 504.481 353.084 504.847C345.181 503.494 337.215 502.532 329.217 501.965C327.881 503.015 322.345 506.856 320.974 507.145C318.371 509.102 316.12 510.935 313.609 513.017C309.98 513.227 301.091 513.628 297.839 513.063C273.413 514.449 249.131 517.717 225.208 522.839C225.163 522.668 225.118 522.498 225.072 522.327L224.833 521.478C223.656 517.171 221.928 513.501 220.17 509.407C219.746 507.433 218.38 503.275 217.741 501.281C176.135 503.66 135.245 513.158 96.8513 529.363L94.349 528.597C126.476 510.125 171.624 500.374 207.959 495.718C210.189 495.433 213.227 495.345 215.227 494.497Z"/><defs><linearGradient id="gradient_0" gradientUnits="userSpaceOnUse" x1="223.84906" y1="494.53528" x2="224.76112" y2="524.61029"><stop offset="0" stop-color="#C44B05"/><stop offset="1" stop-color="#D5702C"/></linearGradient></defs><path fill="url(#gradient_0)" d="M215.227 494.497C216.445 495.153 219.679 494.634 221.243 494.546C258.582 492.451 300.097 492.71 336.916 499.822C342.429 500.894 349.876 502.197 355.2 503.7C354.504 504.098 353.798 504.481 353.084 504.847C345.181 503.494 337.215 502.532 329.217 501.965C325.31 501.368 313.747 500.681 309.782 500.528C293.391 499.894 270.235 498.158 254.187 499.992C243.398 503.052 230.111 503.891 220.17 509.407C219.746 507.433 218.38 503.275 217.741 501.281C176.135 503.66 135.245 513.158 96.8513 529.363L94.349 528.597C126.476 510.125 171.624 500.374 207.959 495.718C210.189 495.433 213.227 495.345 215.227 494.497Z"/><path fill="#F0883A" d="M217.741 501.281C221.506 500.741 251.166 499.457 254.187 499.992C243.398 503.052 230.111 503.891 220.17 509.407C219.746 507.433 218.38 503.275 217.741 501.281Z"/><path fill="#F0883A" d="M297.839 513.063C301.301 511.403 304.522 510.776 308.232 509.875L310.235 509.393C313.494 508.591 317.922 506.972 320.974 507.145C318.371 509.102 316.12 510.935 313.609 513.017C309.98 513.227 301.091 513.628 297.839 513.063Z"/><path fill="#F5B06E" d="M689.569 499.444C691.494 499.378 697.681 498.307 699.859 497.995C706.628 496.98 713.424 496.157 720.24 495.527C748.454 493.054 780.523 492.332 808.793 494.906C844.238 497.214 899.108 510.446 930.045 528.272L928.329 529.313C894.243 512.447 844.944 504.611 807.549 501.221C806.651 503.819 805.507 506.25 804.546 508.891C802.725 513.201 800.562 518.523 798.435 522.606C791.935 521.411 785.675 519.852 778.966 518.688C762.348 515.766 745.569 513.857 728.719 512.969C723.066 513.154 715.06 513.145 709.361 512.898C709.171 511.606 704.887 508.22 703.72 507.229C699.08 505.736 699.453 502.259 691.933 502.461C685.006 503.042 676.277 504.074 669.444 505.233L667.539 504.148C674.85 502.433 682.195 500.865 689.569 499.444Z"/><defs><linearGradient id="gradient_1" gradientUnits="userSpaceOnUse" x1="798.68201" y1="494.10544" x2="798.40503" y2="527.42267"><stop offset="0" stop-color="#C64D06"/><stop offset="1" stop-color="#D97729"/></linearGradient></defs><path fill="url(#gradient_1)" d="M689.569 499.444C691.494 499.378 697.681 498.307 699.859 497.995C706.628 496.98 713.424 496.157 720.24 495.527C748.454 493.054 780.523 492.332 808.793 494.906C844.238 497.214 899.108 510.446 930.045 528.272L928.329 529.313C894.243 512.447 844.944 504.611 807.549 501.221C806.651 503.819 805.507 506.25 804.546 508.891C793.222 504.48 780.483 502.283 768.651 499.629C749.691 498.402 727.86 499.719 708.855 500.9C705.517 501.107 694.544 501.814 691.933 502.461C685.006 503.042 676.277 504.074 669.444 505.233L667.539 504.148C674.85 502.433 682.195 500.865 689.569 499.444Z"/><path fill="#F0883A" d="M768.651 499.629L769.195 499.574C775.785 498.871 800.803 499.707 807.549 501.221C806.651 503.819 805.507 506.25 804.546 508.891C793.222 504.48 780.483 502.283 768.651 499.629Z"/><path fill="#F0883A" d="M703.72 507.229C707.036 507.28 724.427 511.869 728.719 512.969C723.066 513.154 715.06 513.145 709.361 512.898C709.171 511.606 704.887 508.22 703.72 507.229Z"/><defs><linearGradient id="gradient_2" gradientUnits="userSpaceOnUse" x1="802.26709" y1="517.31287" x2="798.9906" y2="580.70251"><stop offset="0" stop-color="#C64D04"/><stop offset="1" stop-color="#D07036"/></linearGradient></defs><path fill="url(#gradient_2)" d="M669.243 516.081C679.259 514.252 698.823 513.256 709.361 512.898C715.06 513.145 723.066 513.154 728.719 512.969C745.569 513.857 762.348 515.766 778.966 518.688C785.675 519.852 791.935 521.411 798.435 522.606C841.527 531.45 899.392 557.483 931.971 587.272L930.459 588.094C896.36 563.563 862.748 547.454 822.348 535.798C816.158 534.013 801.213 529.72 794.984 528.967C789.518 538.663 787.595 542.759 780.571 551.477L779.806 553.531C776.98 552.39 773.096 550.462 770.367 549.04C756.696 541.914 742.427 538.595 727.946 533.809C727.374 530.766 718.286 520.539 715.812 517.618C702.756 517.07 691.434 516.999 678.391 517.139C674.404 516.377 672.413 518.61 669.243 516.081Z"/><path fill="#F0883A" d="M715.812 517.618C719.777 517.818 744.603 520.027 747.094 520.84C746.61 521.927 752.306 524.742 753.495 525.473C765.064 532.581 772.363 541.079 780.571 551.477L779.806 553.531C776.98 552.39 773.096 550.462 770.367 549.04C756.696 541.914 742.427 538.595 727.946 533.809C727.374 530.766 718.286 520.539 715.812 517.618Z"/><path fill="#F5B06E" d="M747.094 520.84C758.322 521.761 771.163 523.934 782.244 526.083L784.745 526.573C787.874 527.247 792.019 527.848 794.984 528.967C789.518 538.663 787.595 542.759 780.571 551.477C772.363 541.079 765.064 532.581 753.495 525.473C752.306 524.742 746.61 521.927 747.094 520.84Z"/><path fill="#BA4C0B" d="M313.609 513.017C324.616 513.251 347.619 514.352 358.149 516.543C357.348 518.75 356.037 517.227 353.608 517.642C338.881 516.842 324.124 516.784 309.392 517.466L306.57 520.888C305.178 521.966 301.034 527.735 299.994 529.372L296.466 534.237C282.959 536.487 256.572 547.274 244.975 554.49L244.504 553.098C243.404 550.725 242.05 548.805 240.415 546.752C236.254 541.527 233.598 535.53 230.613 529.634L230.187 528.812C183.571 539.293 147.384 554.211 107.408 579.79C105.77 579.607 105.096 579.751 103.439 579.698C137.574 552.396 183.203 533.513 225.208 522.839C249.131 517.717 273.413 514.449 297.839 513.063C301.091 513.628 309.98 513.227 313.609 513.017Z"/><path fill="#F0883A" d="M279.435 520.969C282.78 520.02 304.869 517.898 309.392 517.466L306.57 520.888C305.178 521.966 301.034 527.735 299.994 529.372L296.466 534.237C282.959 536.487 256.572 547.274 244.975 554.49L244.504 553.098C248.502 545.658 255.274 537.624 261.973 532.412C265.655 529.516 269.588 526.964 273.504 524.402C275.419 523.149 277.611 522.353 279.435 520.969Z"/><path fill="#F5B06E" d="M230.187 528.812C231.791 528.389 233.377 527.95 235.005 527.619L237.506 527.092C238.343 526.937 239.173 526.762 240.005 526.583L246.494 525.37C256.069 523.482 269.766 521.298 279.435 520.969C277.611 522.353 275.419 523.149 273.504 524.402C269.588 526.964 265.655 529.516 261.973 532.412C255.274 537.624 248.502 545.658 244.504 553.098C243.404 550.725 242.05 548.805 240.415 546.752C236.254 541.527 233.598 535.53 230.613 529.634L230.187 528.812Z"/><defs><linearGradient id="gradient_3" gradientUnits="userSpaceOnUse" x1="770.01715" y1="547.28625" x2="758.89288" y2="583.39166"><stop offset="0" stop-color="#C14804"/><stop offset="1" stop-color="#D1763D"/></linearGradient></defs><path fill="url(#gradient_3)" d="M682.264 527.436C697.25 528.009 713.31 530.748 727.946 533.809C742.427 538.595 756.696 541.914 770.367 549.04C773.096 550.462 776.98 552.39 779.806 553.531C806.87 567.625 830.861 586.961 850.382 610.415C849.802 611.316 849.784 611.275 848.888 611.978C826.403 588.293 805.012 573.398 776.258 558.513C762.09 552.406 748.518 545.73 733.774 541.087C729.247 538.02 684.543 529.314 676.568 528.334C678.502 527.217 679.763 527.603 682.264 527.436Z"/><defs><linearGradient id="gradient_4" gradientUnits="userSpaceOnUse" x1="255.07133" y1="546.77765" x2="265.74847" y2="582.02515"><stop offset="0" stop-color="#C04704"/><stop offset="1" stop-color="#D5722B"/></linearGradient></defs><path fill="url(#gradient_4)" d="M296.466 534.237C311.395 531.061 328.076 527.78 343.386 527.48L344.96 528.953C329.997 531.408 315.368 534.167 300.856 538.66C297.936 539.564 294.693 540.593 291.714 541.151C284.589 543.744 254.393 555.18 249.062 558.895C230.066 567.11 194.173 593.264 180.684 608.965L178.424 608.251C193.95 589.82 212.257 573.924 232.685 561.138C235.641 559.304 241.854 555.536 244.975 554.49C256.572 547.274 282.959 536.487 296.466 534.237Z"/><path fill="#F0883A" d="M733.774 541.087C748.518 545.73 762.09 552.406 776.258 558.513C767.557 569.261 760.865 577.544 751.723 588.08C749.563 571.651 742.303 555.156 733.774 541.087Z"/><path fill="#F0883A" d="M249.062 558.895C254.393 555.18 284.589 543.744 291.714 541.151C290.308 544.187 287.947 547.468 286.288 550.55C280.98 560.301 276.968 570.703 274.353 581.492L273.889 583.491C273.591 584.78 273.299 585.98 273.021 587.289C265.768 579.449 258.851 571.306 252.287 562.88C251.19 561.471 250.199 560.269 249.062 558.895Z"/><path fill="#DD8E56" d="M678.391 517.139C678.913 516.86 655.75 519.212 653.995 519.322L653.65 519.045L653.066 519.253L653.051 519.192L652.974 519.211L652.946 519.183L652.956 519.088C653.97 518.451 667.739 515.896 669.243 516.081C672.413 518.61 674.404 516.377 678.391 517.139Z"/><path fill="#E06820" d="M355.2 503.7C356.916 503.832 369.239 506.97 370.513 507.743C369.82 508.109 360.416 506.236 359.003 505.992L356.5 505.536C355.365 505.301 354.206 505.138 353.084 504.847C353.798 504.481 354.504 504.098 355.2 503.7Z"/><path fill="#DD8E56" d="M358.149 516.543C359.564 516.468 372.524 518.719 373.307 519.453C373.276 519.733 373.339 519.642 373.206 519.771C373.413 519.738 353.118 517.392 353.608 517.642C356.037 517.227 357.348 518.75 358.149 516.543Z"/><path fill="#E06820" d="M655.698 506.79L658.569 506.121C661.003 505.538 665.263 504.326 667.539 504.148L669.444 505.233L667.254 505.636C663.486 506.337 659.31 507.153 655.522 507.629L655.698 506.79Z"/><path fill="#E06820" d="M343.386 527.48C348.421 526.972 351.815 527.187 356.526 526.881C355.528 527.239 354.639 527.642 353.668 528.064C351.29 527.903 347.441 528.709 344.96 528.953L343.386 527.48Z"/><path fill="#DD8E56" d="M667.152 527.434C671.004 526.794 678.336 526.661 682.264 527.436C679.763 527.603 678.502 527.217 676.568 528.334C674.279 528.335 669.488 527.694 667.152 527.434Z"/><path fill="#F5B06E" d="M356.526 526.881C357.101 526.889 357.358 526.823 357.822 527.053C358.224 527.973 354.164 528.034 353.668 528.064C354.639 527.642 355.528 527.239 356.526 526.881Z"/><path fill="#F5B06E" d="M655.522 507.629C652.633 508.499 651.785 507.168 655.698 506.79L655.522 507.629Z"/><path fill="#DD8E56" fill-opacity="0.97254902" d="M86.7317 593.595C90.7085 590.028 99.0971 582.407 103.439 579.698C105.096 579.751 105.77 579.607 107.408 579.79C102.707 583.24 96.453 587.887 91.5754 590.934C91.2123 591.042 91.2559 591.022 91.0159 591.345C89.8165 592.356 88.7759 593.047 87.6021 594.112L86.7317 593.595Z"/><path fill="#DD8E56" d="M850.382 610.415C854.392 614.841 857.881 620.164 860.449 625.535C856.939 621.577 852.265 616.139 848.888 611.978C849.784 611.275 849.802 611.316 850.382 610.415Z"/><path fill="#E06820" fill-opacity="0.97254902" d="M170.54 618.387C173.233 614.899 175.409 611.569 178.424 608.251L180.684 608.965C177.934 611.655 174.05 615.978 171.486 618.999L170.54 618.387Z"/><path fill="#DD8E56" fill-opacity="0.96862745" d="M930.045 528.272C933.417 529.37 940.304 534.157 943.201 536.584L940.237 535.249C936.353 533.501 932.523 531.194 928.329 529.313L930.045 528.272Z"/><path fill="#DD8E56" fill-opacity="0.95686275" d="M931.971 587.272C934.323 589.114 936.985 591.761 939.162 593.84L938.395 594.614C935.709 592.489 933.139 590.225 930.459 588.094L931.971 587.272Z"/><path fill="#DD8E56" fill-opacity="0.96862745" d="M85.3782 533.92L85.6817 533.728C88.4086 531.978 91.5267 530.275 94.349 528.597L96.8513 529.363C91.7587 531.385 90.5649 532.287 86.0533 534.592L85.3782 533.92Z"/><path fill="#F5B06E" fill-opacity="0.78039217" d="M170.54 618.387L171.486 618.999C167.732 623.465 166.577 623.487 170.54 618.387Z"/><path fill="#F5B06E" fill-opacity="0.83529413" d="M939.162 593.84C939.703 594.391 941.543 596.034 941.66 596.69C941.383 597.406 938.601 594.78 938.395 594.614L939.162 593.84Z"/><path fill="#F5B06E" fill-opacity="0.72156864" d="M86.7317 593.595L87.6021 594.112C87.2985 594.381 84.9826 596.556 84.4764 596.126C84.5897 595.373 86.2015 594.083 86.7317 593.595Z"/><path fill="#F5B06E" fill-opacity="0.80784315" d="M86.0533 534.592C85.6856 534.826 83.9148 536.182 83.3891 535.698C83.4517 535.046 84.9308 534.229 85.3782 533.92L86.0533 534.592Z"/></svg>