<?xml version="1.0" encoding="utf-8" ?><svg xmlns="http://www.w3.org/2000/svg" xmlns:xlink="http://www.w3.org/1999/xlink" width="1024" height="1024" viewBox="0 0 1024 1024"><path fill="#FAEBD3" d="M349.357 554.341C349.446 556.801 347.953 566.399 347.437 569.339C343.799 590.075 340.213 614.485 327.325 631.627C325.324 634.36 321.269 637.579 317.748 637.639C301.947 637.905 311.976 604.018 306.373 597.813C282.992 572.002 250.535 555.637 229.694 527.112C218.388 511.638 205.535 487.863 204.106 468.679C202.983 453.593 210.98 436.538 220.835 425.633C225.661 419.31 233.552 413.661 238.453 407.688C254.616 387.989 277.685 370.503 293.261 351.001C314.11 324.898 319.407 280.444 364.208 289.821C368.378 290.694 375.289 291.171 379.434 289.832C416.057 275.111 451.873 258.833 490.971 251.654C504.555 248.81 517.176 251.043 530.714 252.679C563.9 256.702 596.41 266.242 628.286 275.954C640.516 280.999 651.354 275.647 663.563 275.283C683.188 274.699 699.038 296.4 710.569 310.008C716.974 317.566 721.705 326.396 729.322 332.934C738.054 340.429 748.306 344.686 757.614 351.241C765.659 357.205 772.58 369.204 780.575 376.433C785.551 380.933 795.204 386.277 798.312 389.418C807.984 399.19 826.288 430.688 825.485 443.436C824.187 464.054 798.196 508.918 784.174 523.018C782.208 526.282 776.297 531.443 773.42 534.233C758.068 549.121 740.853 559.988 728.15 577.434C720.049 588.561 728.11 629.714 707.98 621.271C706.916 624.256 705.32 628.5 704.977 631.551C703.722 642.692 706.934 643.601 698.775 652.086C700.322 659.022 700.247 659.742 694.944 664.79C709.518 680.909 719.567 694.717 728.039 715.146C737.277 737.424 744.274 760.171 746.409 784.319C746.451 784.772 746.211 785.42 746.068 785.866C744.901 786.492 745.511 786.445 744.228 786.188C733.013 785.389 710.935 786.054 699.038 786.063L609.535 786.118L413.637 785.989C405.111 785.982 354.023 785.012 349.391 786.475L348.006 786.874L347.285 786.217C347.085 784.166 352.259 762.075 352.978 757.919C354.703 736.017 370.014 701.725 381.691 682.744C380.631 681.648 373.56 672.77 374.782 673.237C366.537 670.088 374.593 664.08 367.342 662.586L366.341 662.386C362.973 658.923 366.678 653.891 365.201 651.124L362.968 650.695C361.147 647.948 364.069 644.97 364.28 640.521C363.246 639.862 363.037 639.642 362.131 638.798C360.591 635.154 362.716 630.386 363.784 626.166C364.439 622.277 364.539 618.827 364.732 614.886C364.496 604.108 362.236 593.889 360.692 583.188C360.524 582.118 360.336 581.052 360.154 579.984C359.932 578.682 349.81 553.33 349.729 553.236L349.357 554.341Z"/><path fill="#52322A" d="M653.641 279.213C663.902 277.427 673.963 277.994 681.999 284.631C691.325 292.333 705.101 305.82 711.593 315.946C724.33 335.812 735.913 341.659 755.482 353.311C761.858 357.109 770.063 370.708 775.756 376.029C781.715 382.255 790.614 386.886 795.726 391.146C805.06 398.924 820.581 427.377 822.263 438.824C825.003 457.469 801.232 495.407 790.877 510.981C788.996 513.81 783.842 519.834 781.583 522.443L782.473 521.979C783.427 521.476 783.7 521.315 784.561 520.618C784.409 521.415 784.213 522.216 784.174 523.018C782.208 526.282 776.297 531.443 773.42 534.233C758.068 549.121 740.853 559.988 728.15 577.434C720.049 588.561 728.11 629.714 707.98 621.271C706.916 624.256 705.32 628.5 704.977 631.551C703.722 642.692 706.934 643.601 698.775 652.086C700.322 659.022 700.247 659.742 694.944 664.79C709.518 680.909 719.567 694.717 728.039 715.146C737.277 737.424 744.274 760.171 746.409 784.319C746.451 784.772 746.211 785.42 746.068 785.866C744.901 786.492 745.511 786.445 744.228 786.188C733.013 785.389 710.935 786.054 699.038 786.063L609.535 786.118L413.637 785.989C405.111 785.982 354.023 785.012 349.391 786.475L348.006 786.874L347.285 786.217C347.085 784.166 352.259 762.075 352.978 757.919C354.703 736.017 370.014 701.725 381.691 682.744C380.631 681.648 373.56 672.77 374.782 673.237C366.537 670.088 374.593 664.08 367.342 662.586L366.341 662.386C362.973 658.923 366.678 653.891 365.201 651.124L362.968 650.695C361.147 647.948 364.069 644.97 364.28 640.521C363.246 639.862 363.037 639.642 362.131 638.798C360.591 635.154 362.716 630.386 363.784 626.166C364.439 622.277 364.539 618.827 364.732 614.886C364.496 604.108 362.236 593.889 360.692 583.188C360.524 582.118 360.336 581.052 360.154 579.984C359.932 578.682 349.81 553.33 349.729 553.236L349.357 554.341C348.561 553.275 348.697 553.879 348.805 552.531L350.465 551.531C351.605 548.535 348.616 546.979 349.229 542.949L349.75 542.63C349.738 543.935 349.942 545.071 350.122 546.358L350.345 546.856C353.071 553.061 354.944 559.783 357.554 566.075C363.063 579.358 373.127 595.289 383.273 605.682C386.455 610.014 393.974 618.801 395.7 623.025C401.959 638.34 395.585 646.181 410.934 657.147C426.294 668.12 436.221 673.28 454.365 664.085C454.829 661.066 455.128 657.653 455.285 654.6C456.47 631.607 460.155 608.9 462.092 586.004C458.97 581.836 454.408 576.153 453.167 571.034C449.148 554.457 460.231 530.049 478.416 527.317C494.829 524.851 515.505 524.603 532.067 525.619C546.406 526.498 557.474 539.309 560.069 552.747C563.215 566.912 559.327 573.353 552.15 585.047C560.289 598.388 566.295 642.442 566.224 658.567C595.425 670.366 605.75 662.417 627.667 641.613C629.446 639.925 631.415 637.914 633.808 637.816L635.199 639.262L636.05 639.463C645.353 625.343 639.3 613.16 642.954 608.398L644.148 607.773C645.262 604.704 646.051 589.066 647.463 582.958C650.862 568.255 655.999 555.557 659.792 541.144C663.714 526.241 665.162 510.509 669.542 495.775C670.486 489.07 670.837 480.132 671.682 472.845C675.092 443.437 678.952 414.917 669.012 386.075C663.819 371.007 654.564 357.204 647.934 342.908C644.76 336.063 633.994 317.063 633.184 311.05C634.786 304.971 631.102 300.741 635.969 294.328C634.388 293.188 632.838 292.312 631.915 290.617L632.439 290.284C635.455 291.254 637.311 293.02 639.786 295C642.445 291.295 644.944 287.707 648.344 284.61C650.304 282.824 653.951 281.495 654.807 279.736L653.641 279.213Z"/><path fill="#E6C59E" d="M653.641 279.213C663.902 277.427 673.963 277.994 681.999 284.631C691.325 292.333 705.101 305.82 711.593 315.946C724.33 335.812 735.913 341.659 755.482 353.311C761.858 357.109 770.063 370.708 775.756 376.029C781.715 382.255 790.614 386.886 795.726 391.146C805.06 398.924 820.581 427.377 822.263 438.824C825.003 457.469 801.232 495.407 790.877 510.981C788.996 513.81 783.842 519.834 781.583 522.443C780.44 523.098 770.521 533.007 769.185 534.354C748.627 555.081 718.846 568.014 720.37 601.635C720.391 604.331 718.258 618.653 715.312 619.291C699.487 622.718 689.228 593.316 686.775 585.203C678.363 557.387 671.973 529.035 672.411 500.399C672.886 469.32 680.921 440.217 677.069 409.249C675.949 400.149 673.749 391.214 670.515 382.634C664.328 366.286 653.023 348.117 645.37 332.041C642.431 325.868 639.072 318.034 635.771 311.982C635.242 311.011 634.276 311.167 633.184 311.05C634.786 304.971 631.102 300.741 635.969 294.328C634.388 293.188 632.838 292.312 631.915 290.617L632.439 290.284C635.455 291.254 637.311 293.02 639.786 295C642.445 291.295 644.944 287.707 648.344 284.61C650.304 282.824 653.951 281.495 654.807 279.736L653.641 279.213Z"/><path fill="#643929" d="M635.969 294.328C634.388 293.188 632.838 292.312 631.915 290.617L632.439 290.284C635.455 291.254 637.311 293.02 639.786 295C669.122 318.625 680.829 346.246 685.097 382.705C685.58 386.832 687.162 392.903 685.945 396.874C684.596 395.352 683.374 383.346 683.061 380.766C678.621 344.124 665.685 317.032 635.969 294.328Z"/><path fill="#643929" d="M690.989 467.766L691.559 468.383C691.856 470.698 689.285 486.868 688.81 490.112C684.38 520.369 690.193 549.027 700.238 577.503C700.395 577.948 700.114 578.795 699.995 579.212C699.579 578.559 698.954 577.591 698.672 576.897C686.498 546.945 682.517 514.819 688.088 482.896C688.932 478.061 689.428 472.244 690.989 467.766Z"/><path fill="#5F3123" d="M732.988 380.844C734.099 381.837 736.405 393.312 736.804 395.393C739.358 408.726 753.801 434.803 752.891 447.675C750.801 444.294 749.817 436.669 748.258 432.491C744.201 421.622 730.551 391.468 732.988 380.844Z"/><path fill="#643929" d="M797.856 430.674C798.264 431.043 798.989 431.637 798.948 432.258C797.61 452.268 791.44 477.772 781.504 494.888L780.801 493.704C781.688 490.471 783.876 486.656 785.256 483.426C787.642 477.716 789.654 471.857 791.279 465.885C793.695 456.759 794.995 447.363 796.403 438.039C796.78 435.541 797.089 433.087 797.856 430.674Z"/><path fill="#FAEBD3" d="M694.503 668.286C725.326 701.144 738.36 742.513 744.228 786.188C733.013 785.389 710.935 786.054 699.038 786.063L609.535 786.118L413.637 785.989C405.111 785.982 354.023 785.012 349.391 786.475L348.006 786.874L347.285 786.217C347.085 784.166 352.259 762.075 352.978 757.919C353.558 760.295 353.121 763.26 352.933 765.776C353.243 765.347 353.041 765.671 353.29 764.687L353.792 766.351C358.006 742.771 362.988 723.417 374.336 702.13C377.366 696.446 379.725 690.319 383.233 684.827C394.002 714.343 422.568 739.982 450.699 753.314C490.683 772.264 538.436 769.736 580.59 760.39C627.203 750.056 681.368 716.843 694.503 668.286Z"/><path fill="#5F3123" d="M352.978 757.919C353.558 760.295 353.121 763.26 352.933 765.776C353.243 765.347 353.041 765.671 353.29 764.687L353.792 766.351C352.918 771.004 350.881 782.198 349.391 786.475L348.006 786.874L347.285 786.217C347.085 784.166 352.259 762.075 352.978 757.919Z"/><path fill="#FAEBD3" d="M679.57 568.832C681.294 580.267 688.46 601.048 695.147 610.581C697.681 614.192 701.275 617.171 704.776 619.832C704.304 624.855 702.825 628.114 702.336 633.226C702.012 636.616 701.897 641.688 701.258 644.832C701.02 646.004 697.14 649.656 696.047 650.957C696.258 653.456 696.609 656.567 696.618 659.024C684.391 672.24 667.381 676.901 655.779 690.734C653.61 693.321 649.501 698.643 646.873 700.53C641.619 704.301 642.952 702.622 641.283 708.417C633.599 712.425 635.696 712.835 630.215 717.689C622.486 723.814 611.984 727.453 602.618 729.821C580.582 735.389 557.72 726.962 535.35 727.521C525.98 727.755 514.399 729.946 504.76 730.494C500.619 730.73 493.688 733.945 489.233 734.397C465.583 739.118 439.842 732.812 422.987 715.368C423.388 713.221 423.837 711.911 423.301 709.834C421.563 708.475 420.599 710.015 417.828 708.503C415.741 705.711 415.337 703.553 413.569 700.985L408.249 698.613C402.192 695.858 391.14 684.322 384.152 680.669C376.679 676.763 381.163 672.293 373.001 669.384C373.088 663.85 373.996 661.944 368.242 659.696C365.358 654.967 371.49 649.424 366.103 646.506C366.617 641.801 369.304 638.382 368.165 634.462C365.179 633.407 367.508 636.203 364.847 634.238C364.779 632.756 364.909 632.384 365.17 630.943C363.614 629.32 366.289 625.082 365.769 621.925L365.141 622.309C364.924 624.137 364.726 625.23 364.307 627.023L363.784 626.166C364.439 622.277 364.539 618.827 364.732 614.886C364.496 604.108 362.236 593.889 360.692 583.188L361.511 583.418L361.832 584.228C362.368 584.343 362.905 584.458 363.441 584.572L363.846 585.596L364.524 586.336C366.32 588.322 370.753 594.583 372.65 597.096C379.662 606.431 387.397 614.739 393.465 624.784C396.07 629.425 396.308 640.592 397.995 644.838C403.325 658.252 425.135 688.63 441.552 686.565C463.077 683.857 459.986 684.155 479.862 694.053C493.849 701.019 525.83 698.203 541.27 694.916C548.807 693.332 555.915 690.276 562.639 686.804C565.143 685.511 574.174 680.603 576.276 680.441C591.285 679.286 604.23 684.305 616.531 671.775C626.212 661.915 634.915 646.339 642.023 634.214C643.549 631.577 642.961 624.369 645.933 619.882C650.907 612.374 656.329 605.705 661.61 598.549C668.422 589.166 674.43 579.226 679.57 568.832Z"/><path fill="#5F3123" d="M360.692 583.188L361.511 583.418L361.832 584.228C362.368 584.343 362.905 584.458 363.441 584.572L363.846 585.596C364.528 590.217 366.533 602.261 366.468 606.269C363.26 610.338 366.198 611.329 364.732 614.886C364.496 604.108 362.236 593.889 360.692 583.188Z"/><path fill="#643929" d="M364.732 614.886C366.198 611.329 363.26 610.338 366.468 606.269C367.253 612.789 367.408 624.69 365.17 630.943C363.614 629.32 366.289 625.082 365.769 621.925L365.141 622.309C364.924 624.137 364.726 625.23 364.307 627.023L363.784 626.166C364.439 622.277 364.539 618.827 364.732 614.886Z"/><path fill="#643929" d="M544.96 704.226C546.424 705.441 544.992 710.325 544.724 712.372C544.068 717.383 544.568 721.89 544.34 726.832C541.291 721.123 542.247 709.949 544.96 704.226Z"/><path fill="#643929" d="M489.928 705.15L490.896 705.534C492.403 708.739 493.042 711.805 494.916 715.223C496.438 717.996 500.253 723.933 500.51 726.635L499.534 726.202C495.388 721.101 490.999 711.796 489.928 705.15Z"/><path fill="#FAEBD3" d="M472.862 657.173C497.315 661.368 524.187 662.437 547.974 654.417C552.324 655.793 555.138 656.963 559.346 658.797C567.92 662.402 577.755 666.874 587.132 667.119L587.52 667.964C584.45 671.909 580.228 673.954 576.342 676.876C568.874 680.486 556.813 687.004 549.485 689.505C530.455 696.001 501.783 698.306 482.604 691.976C475.65 689.681 468.669 684.484 461.832 682.011C459.861 679.574 453.336 675.709 448.551 670.008C453.576 668.262 457.036 666.238 461.531 663.461C465.394 660.837 468.509 658.859 472.862 657.173Z"/><path fill="#E6C59E" d="M472.862 657.173C497.315 661.368 524.187 662.437 547.974 654.417C552.324 655.793 555.138 656.963 559.346 658.797C557.231 667.042 532.112 672.144 524.745 672.622C503.53 673.998 479.605 676.548 461.531 663.461C465.394 660.837 468.509 658.859 472.862 657.173Z"/><path fill="#E6C59E" d="M509.492 613.36C526.858 603.974 537.991 601.827 552.15 585.047C560.289 598.388 566.295 642.442 566.224 658.567C547.954 651.101 529.369 644.431 510.521 638.576C510.711 630.844 509.669 621.473 509.492 613.36Z"/><path fill="#E6C59E" d="M462.092 586.004C476.073 602.177 487.813 604.596 506.919 613.237L508.422 638.835C496.719 644.077 485.361 648.126 473.771 653.208C468.206 655.648 460.471 660.99 454.365 664.085C454.829 661.066 455.128 657.653 455.285 654.6C456.47 631.607 460.155 608.9 462.092 586.004Z"/><path fill="#E6C59E" d="M642.954 608.398L644.148 607.773C645.262 604.704 646.051 589.066 647.463 582.958C650.862 568.255 655.999 555.557 659.792 541.144C663.714 526.241 665.162 510.509 669.542 495.775C669.677 519.676 672.107 542.041 678.261 565.276C672.522 576.288 667.532 585.451 660.241 595.577C655.212 602.562 648.811 610.068 644.553 617.286C644.665 614.577 644.979 611.671 644.381 609.077C643.412 608.419 643.903 608.611 642.954 608.398Z"/><path fill="#E6C59E" d="M587.132 667.119C606.204 668.554 621.992 650.57 635.199 639.262L636.05 639.463C617.497 666.811 614.586 682.959 576.342 676.876C580.228 673.954 584.45 671.909 587.52 667.964L587.132 667.119Z"/><path fill="#E6C59E" d="M411.02 660.726C423.834 669.364 432.911 674.331 448.551 670.008C453.336 675.709 459.861 679.574 461.832 682.011C452.862 681.566 446.377 684.979 438.217 683.335C426.201 680.914 417.424 670.435 411.02 660.726Z"/><path fill="#3F8C87" d="M690.842 668.436C691.43 672.216 686.157 681.83 684.331 685.243C674.446 703.717 658.058 720.403 640.568 731.888C598.803 759.315 534.411 770.905 485.841 761.388C448.675 754.392 415.881 732.754 394.829 701.337C391.65 696.114 389.237 691.344 386.585 685.89C392.771 690.029 397.255 693.83 402.661 698.894C404.013 700.161 408.808 701.229 410.683 702.669C413.65 704.947 413.748 707.965 414.433 711.38C416.295 711.458 418.205 711.345 419.813 712.193C420.773 713.513 420.531 715.728 420.547 717.489C436.21 730.989 447.255 736.88 468.53 738.613C481.789 741.106 492.595 735.411 504.541 733.468C511.575 732.324 527.67 730.779 534.678 730.483C555.191 729.616 577.428 737.302 597.902 733.952C608.422 732.231 620.949 727.58 629.817 721.532C630.926 720.738 644.044 709.571 644.522 708.906C644.31 701.976 649.338 703.564 651.844 700.091C662.528 685.282 676.023 678.751 690.842 668.436Z"/><path fill="#30211A" d="M529.541 563.039C545.992 562.355 531.043 570.642 539.344 577.594C542.342 580.104 545.367 576.623 548.548 579.237L548.452 580.421C546.963 582.319 547.345 581.751 544.82 582.801C535.167 586.237 525.503 583.609 522.278 573.154C522.448 572.435 522.627 571.718 522.814 571.003C524.031 566.491 525.646 565.315 529.541 563.039Z"/><path fill="#30211A" d="M481.646 563.554C495.24 565.587 495.707 587.481 471.109 585.516C468.764 584.951 461.439 582.97 461.798 580.034C466.95 582.975 471.557 580.66 476.595 578.471C478.378 572.681 477.3 570.934 478.514 565.485C478.795 564.221 480.43 563.956 481.646 563.554Z"/><path fill="#E6C59E" d="M349.357 554.341C349.446 556.801 347.953 566.399 347.437 569.339C343.799 590.075 340.213 614.485 327.325 631.627C325.324 634.36 321.269 637.579 317.748 637.639C301.947 637.905 311.976 604.018 306.373 597.813C282.992 572.002 250.535 555.637 229.694 527.112C218.388 511.638 205.535 487.863 204.106 468.679C202.983 453.593 210.98 436.538 220.835 425.633C225.661 419.31 233.552 413.661 238.453 407.688C254.616 387.989 277.685 370.503 293.261 351.001C314.11 324.898 319.407 280.444 364.208 289.821C368.378 290.694 375.289 291.171 379.434 289.832C416.057 275.111 451.873 258.833 490.971 251.654C504.555 248.81 517.176 251.043 530.714 252.679C563.9 256.702 596.41 266.242 628.286 275.954C640.516 280.999 651.354 275.647 663.563 275.283C683.188 274.699 699.038 296.4 710.569 310.008C716.974 317.566 721.705 326.396 729.322 332.934C738.054 340.429 748.306 344.686 757.614 351.241C765.659 357.205 772.58 369.204 780.575 376.433C785.551 380.933 795.204 386.277 798.312 389.418C807.984 399.19 826.288 430.688 825.485 443.436C824.187 464.054 798.196 508.918 784.174 523.018C784.213 522.216 784.409 521.415 784.561 520.618C783.7 521.315 783.427 521.476 782.473 521.979L781.583 522.443C783.842 519.834 788.996 513.81 790.877 510.981C801.232 495.407 825.003 457.469 822.263 438.824C820.581 427.377 805.06 398.924 795.726 391.146C790.614 386.886 781.715 382.255 775.756 376.029C770.063 370.708 761.858 357.109 755.482 353.311C735.913 341.659 724.33 335.812 711.593 315.946C705.101 305.82 691.325 292.333 681.999 284.631C673.963 277.994 663.902 277.427 653.641 279.213C629.789 282.948 623.93 277.154 601.141 270.823C568.7 261.81 532.111 252.514 498.104 253.356C458.111 257.742 417.465 278.668 380.144 292.403C374.779 294.487 367.206 292.782 361.721 292.174C326.5 285.334 316.32 319.251 301.914 343.284C298.638 348.748 294.575 353.852 290.465 358.783C302.087 358.093 323.636 349.76 332.942 342.874C336.091 340.544 342.844 335.147 345.933 334.073C349.365 328.985 360.599 312.881 367.053 312.036C371.762 310.973 372.304 310.822 376.98 311.006C377.083 314.562 375.444 325.706 375.719 327.354C376.408 333.355 355.159 382.516 352.342 392.193C349.043 403.53 346.243 418.919 346.437 431.416C345.129 441.406 346.76 459.431 347.872 469.496C350.113 489.766 351.758 509.667 351.141 530.118C351.021 534.107 350.79 542.547 350.122 546.358C349.942 545.071 349.738 543.935 349.75 542.63L349.229 542.949C348.616 546.979 351.605 548.535 350.465 551.531L348.805 552.531C348.697 553.879 348.561 553.275 349.357 554.341Z"/><path fill="#5F3123" d="M349.357 554.341C349.446 556.801 347.953 566.399 347.437 569.339C343.799 590.075 340.213 614.485 327.325 631.627C325.324 634.36 321.269 637.579 317.748 637.639C301.947 637.905 311.976 604.018 306.373 597.813C282.992 572.002 250.535 555.637 229.694 527.112C218.388 511.638 205.535 487.863 204.106 468.679C202.983 453.593 210.98 436.538 220.835 425.633C225.661 419.31 233.552 413.661 238.453 407.688C254.616 387.989 277.685 370.503 293.261 351.001C314.11 324.898 319.407 280.444 364.208 289.821C368.378 290.694 375.289 291.171 379.434 289.832C416.057 275.111 451.873 258.833 490.971 251.654C504.555 248.81 517.176 251.043 530.714 252.679C563.9 256.702 596.41 266.242 628.286 275.954C640.516 280.999 651.354 275.647 663.563 275.283C683.188 274.699 699.038 296.4 710.569 310.008C716.974 317.566 721.705 326.396 729.322 332.934C738.054 340.429 748.306 344.686 757.614 351.241C765.659 357.205 772.58 369.204 780.575 376.433C785.551 380.933 795.204 386.277 798.312 389.418C807.984 399.19 826.288 430.688 825.485 443.436C824.187 464.054 798.196 508.918 784.174 523.018C784.213 522.216 784.409 521.415 784.561 520.618C783.7 521.315 783.427 521.476 782.473 521.979L781.583 522.443C783.842 519.834 788.996 513.81 790.877 510.981C801.232 495.407 825.003 457.469 822.263 438.824C820.581 427.377 805.06 398.924 795.726 391.146C790.614 386.886 781.715 382.255 775.756 376.029C770.063 370.708 761.858 357.109 755.482 353.311C735.913 341.659 724.33 335.812 711.593 315.946C705.101 305.82 691.325 292.333 681.999 284.631C673.963 277.994 663.902 277.427 653.641 279.213C629.789 282.948 623.93 277.154 601.141 270.823C568.7 261.81 532.111 252.514 498.104 253.356C458.111 257.742 417.465 278.668 380.144 292.403C374.779 294.487 367.206 292.782 361.721 292.174C326.5 285.334 316.32 319.251 301.914 343.284C298.638 348.748 294.575 353.852 290.465 358.783C280.576 368.509 267.711 380.155 258.867 389.95C246.166 404.017 227.569 421.204 216.563 435.651C205.148 450.635 203.717 473.522 212.017 489.711C221.11 511.477 232.732 530.646 250.904 546.355C268.27 562.527 294.451 579.224 308.5 596.513C309.03 585.104 308.303 574.519 306.781 563.233C306.654 562.291 307.038 561.619 307.485 560.861C313.144 575.392 307.218 627.426 314.414 634.039C315.397 634.942 316.501 635.357 317.838 635.2C323.444 634.542 329.352 624.009 331.583 619.394C347.212 587.078 350.206 530.795 347.501 495.257C345.756 472.327 342.036 449.453 343.616 426.391C345.847 393.819 356.015 375.801 367.014 346.497C368.683 342.051 371.138 331.261 373.838 328.012C374.385 327.354 374.928 327.477 375.719 327.354C376.408 333.355 355.159 382.516 352.342 392.193C349.043 403.53 346.243 418.919 346.437 431.416C345.129 441.406 346.76 459.431 347.872 469.496C350.113 489.766 351.758 509.667 351.141 530.118C351.021 534.107 350.79 542.547 350.122 546.358C349.942 545.071 349.738 543.935 349.75 542.63L349.229 542.949C348.616 546.979 351.605 548.535 350.465 551.531L348.805 552.531C348.697 553.879 348.561 553.275 349.357 554.341Z"/><path fill="#D6AF86" d="M250.904 546.355C251.071 545.875 251.238 545.394 251.405 544.914C249.437 538.394 240.016 517.608 244.307 511.965C246.116 512.087 247.301 513.172 248.381 514.592C259.831 529.655 272.825 543.31 287.128 555.688C289.97 558.147 293.971 562.337 297.251 563.951L297.914 563.773C299.508 559.664 299.059 533.311 299.475 526.183C304.075 536.651 306.796 549.448 307.485 560.861C307.038 561.619 306.654 562.291 306.781 563.233C308.303 574.519 309.03 585.104 308.5 596.513C294.451 579.224 268.27 562.527 250.904 546.355Z"/><path fill="#5F3123" d="M345.933 334.073C349.365 328.985 360.599 312.881 367.053 312.036C366.693 313.668 360.669 318.831 359.028 320.366C334.075 343.71 335.722 380.78 331.64 412.037C331.424 413.69 330.394 415.851 329.451 417.193C329.249 416.443 334.04 371.573 334.495 368.475C335.118 364.288 335.963 360.137 337.026 356.039C339.248 347.548 341.696 341.633 345.933 334.073Z"/><path fill="#5F3123" d="M283.76 406.123C286.702 407.927 286.284 415.585 286.626 418.911C288.529 437.447 284.482 455.221 278.319 472.584C275.595 480.259 272.732 489.025 271.175 497.046L270.285 496.355C270.027 490.423 276.708 471.825 278.61 465.399C282.982 450.623 285.951 436.879 284.903 421.246C284.609 416.869 283.201 410.251 283.76 406.123Z"/><path fill="#E6C59E" d="M346.437 431.416C346.602 441.619 350.07 455.042 352.275 465.28C355.493 480.223 359.08 495.083 363.033 509.848C370.22 535.703 379.355 563.157 381.525 589.746C381.838 593.583 383.582 602.572 383.273 605.682C373.127 595.289 363.063 579.358 357.554 566.075C354.944 559.783 353.071 553.061 350.345 546.856L350.122 546.358C350.79 542.547 351.021 534.107 351.141 530.118C351.758 509.667 350.113 489.766 347.872 469.496C346.76 459.431 345.129 441.406 346.437 431.416Z"/><path fill="#E6C59E" d="M573.042 361.071C585.8 360.375 598.524 370.594 604.882 380.997C596.039 386.479 591.692 390.078 585.496 398.502C607.941 390.769 617.817 399.783 631.707 417.595C634.97 421.78 642.817 431.245 642.85 435.872C640.976 440.53 634.701 438.794 628.855 441.741L628.312 442.021C614.143 450.529 610.654 451.503 594.412 455.706C587.315 457.542 583.08 458.925 575.845 454.801C566.886 449.695 556.74 435.54 554.468 425.501C551.25 411.284 550.705 384.676 558.304 371.728C561.872 365.648 566.53 362.73 573.042 361.071Z"/><path fill="#52322A" d="M578.589 441.904C568.194 438.297 568.861 434.716 573.607 425.297C577.653 417.269 582.247 406.373 591.727 403.671C606.743 399.392 620.348 410.744 628.699 421.981C630.998 425.051 633.101 427.336 634.214 431.067C633.017 433.242 620.795 438.611 617.588 440.341C615.058 442.576 609.545 444.618 606.207 445.035C601.124 446.225 594.785 445.846 589.728 444.473C587.375 444.468 580.96 442.569 578.589 441.904Z"/><path fill="#30211A" d="M587.134 439.673C581.374 435.336 577.149 427.771 580.537 420.403C581.292 418.762 583.855 412.415 584.727 411.408C592.448 402.891 607.546 406.333 615.58 412.885C625.69 421.129 625.213 427.239 617.341 436.532C611.713 441.049 608.376 442.755 600.737 442.514L595.95 442.471C592.184 441.835 590.487 441.287 587.134 439.673Z"/><path fill="#FAEBD3" d="M610.251 415.353C612.228 414.699 614.371 415.704 615.134 417.642C615.896 419.58 615.012 421.776 613.12 422.645C611.798 423.251 610.25 423.078 609.095 422.193C607.941 421.309 607.371 419.859 607.613 418.425C607.855 416.991 608.87 415.809 610.251 415.353Z"/><path fill="#643929" d="M578.589 441.904L579.969 439.669C582.204 438.614 584.55 439.329 587.134 439.673C590.487 441.287 592.184 441.835 595.95 442.471L600.737 442.514C602.852 446.212 602.197 444.872 606.207 445.035C601.124 446.225 594.785 445.846 589.728 444.473C587.375 444.468 580.96 442.569 578.589 441.904Z"/><path fill="#E6C59E" d="M425.072 374.134C429.601 373.226 433.927 373.421 437.692 376.366C449.181 385.61 447.059 405.008 450.056 417.12C454.163 433.716 457.659 434.83 446.783 449.673C429.853 472.778 416.749 463.637 393.895 457.85C386.982 456.099 380.702 456.533 373.597 453.492C372.558 449.683 372.761 446.933 373.966 443.233C380.351 423.639 394.244 400.516 418.345 404.583C421.059 405.041 423.669 405.748 426.351 406.476C421.386 397.451 413.768 396.422 406.808 389.873C406.674 389.747 406.274 388.039 406.395 387.366C409.412 383.407 420.09 375.567 425.072 374.134Z"/><path fill="#B17D5B" d="M425.072 374.134L425.35 375.378C424.481 375.941 422.925 376.855 421.944 376.957C419.127 377.252 407.696 387.193 406.395 387.366C409.412 383.407 420.09 375.567 425.072 374.134Z"/><path fill="#30211A" d="M387.229 428.424C393.99 415.043 408.93 406.425 423.659 413.002C429.605 416.61 445.229 435.895 442.454 442.277C440.257 444.533 436.633 446.167 433.772 447.734C425.131 452.393 412.768 455.55 403.226 452.23C396.147 449.768 389.775 446.209 382.16 445.138C381.089 444.987 380.255 443.569 379.836 442.595C380.237 438.838 384.934 431.68 387.229 428.424Z"/><path fill="#643929" d="M387.229 428.424C387.66 428.649 387.363 428.536 388.175 428.547C388.952 427.176 389.409 426 390.709 425.167L391.335 425.527L391.081 426.419C382.491 447.674 413.694 457.383 430.149 445.283C431.379 446.15 432.503 446.926 433.772 447.734C425.131 452.393 412.768 455.55 403.226 452.23C396.147 449.768 389.775 446.209 382.16 445.138C381.089 444.987 380.255 443.569 379.836 442.595C380.237 438.838 384.934 431.68 387.229 428.424Z"/><path fill="#52322A" d="M417.751 413.921C420.484 413.816 421.068 413.804 423.659 413.002C429.605 416.61 445.229 435.895 442.454 442.277C440.257 444.533 436.633 446.167 433.772 447.734C432.503 446.926 431.379 446.15 430.149 445.283C432.458 442.637 433.244 440.257 434.314 437.044C433.049 429.159 430.418 424.929 427.57 417.572C426.299 416.72 419.641 414.587 417.751 413.921Z"/><path fill="#5F3123" d="M387.229 428.424C393.99 415.043 408.93 406.425 423.659 413.002C421.068 413.804 420.484 413.816 417.751 413.921C397.377 411.687 396.893 424.982 391.081 426.419L391.335 425.527L390.709 425.167C389.409 426 388.952 427.176 388.175 428.547C387.363 428.536 387.66 428.649 387.229 428.424Z"/><path fill="#FAEBD3" d="M404.634 420.912C407.006 420.956 407.908 421.283 409.433 423.039C410.725 426.535 409.029 428.166 406.297 429.926C399.233 429.245 398.693 424.747 404.634 420.912Z"/></svg>