<?xml version="1.0" encoding="utf-8" ?><svg xmlns="http://www.w3.org/2000/svg" xmlns:xlink="http://www.w3.org/1999/xlink" width="1024" height="1024" viewBox="0 0 1024 1024"><path fill="#F4873A" d="M808.075 105.914C816.997 101.074 823.727 94.9885 829.487 86.5423C832.647 81.909 834.556 70.3066 836.841 68.8304L837.412 69.3914C838.138 72.1992 838.057 74.5516 838.193 77.3949C838.745 88.9276 836.518 94.9471 831.708 105.009L831.799 107.402C839.121 101.39 843.047 98.447 852.476 96.5958C844.615 106.826 842.246 110.333 839.673 123.269C846.348 140.664 853.016 172.926 853.965 191.467C854.509 202.096 853.221 213.591 853.252 223.878C853.291 236.463 855.425 250.903 853.042 263.503C851.285 272.799 847.957 282.838 845.436 292.002C842.517 302.372 840.726 313.026 840.093 323.78C839.73 330.741 839.522 342.126 840.156 348.91C842.552 374.517 846.983 394.32 835.983 419.182C832.216 427.695 814.662 458.873 809.055 462.794L807.974 462.931C805.114 460.57 799.72 456.958 796.382 454.541C799.059 458.916 802.605 463.718 806.439 467.129C814.873 475.757 819.553 475.494 827.085 481.03L826.871 482.16C822.786 484.68 808.756 479.065 803.637 477.986C809.576 489.483 819.951 497.102 830.265 504.295C831.364 505.061 831.389 505.465 831.593 506.606C828.142 506.715 825.58 505.814 822.369 505.652C820.994 505.062 819.637 504.24 818.272 503.867L816.951 503.508C815.083 504.311 815.165 504.498 815.088 506.557C816.2 507.318 817.01 507.871 818.215 508.484C820.406 509.623 822.892 510.862 825.03 512.037C837.907 516.589 846.283 515.627 858.639 510.161C855.094 518.139 850.892 522.823 844.269 528.643C842.247 530.421 838.31 533.037 837.079 535.114L837.467 535.816C843.087 536.681 852.689 530.921 858.543 529.727C851.419 541.095 838.475 551.045 832.198 563.653C831.297 565.461 826.322 573.519 825.39 574.597C824.301 576.681 822.437 579.223 821.77 581.292C829.417 578.417 835.298 574.676 841.942 572.096C835.563 590.697 823.048 606.575 806.453 617.123L805.762 617.8C800.393 622.29 805.654 621.56 809.046 621.526C819.856 619.337 823.998 617.828 834.111 613.365C825.365 631.3 808.382 643.448 790.99 652.148C787.158 654.67 785.05 654.704 781.954 658.474C787.33 659.769 794.104 660.996 797.997 665.106L797.682 665.742C796.919 667.444 793.495 667.38 791.753 667.562C785.89 668.175 780.467 670.144 774.731 671.347L771.251 672.096C767.693 672.828 764.878 674.198 761.459 675.342C764.335 676.352 766.035 677.067 768.992 677.638C773.596 678.527 775.334 677.478 779.623 679.041C775.383 686.767 756.821 694.212 748.587 696.596C746.953 697.067 745.309 697.507 743.658 697.915C741.338 698.719 731.89 701.052 731.232 702.756L731.235 702.755C732.734 703.444 736.387 703.804 738.634 704.583L739.777 705.244C739.588 706.331 739.74 706.246 738.324 707.148C725.45 715.348 708.597 719.48 693.494 720.367C688.379 720.668 683.785 720.143 678.935 720.063C678.476 719.943 678.017 719.822 677.557 719.701C672.001 722.812 666.505 726.069 660.555 728.391C657.545 729.566 654.452 730.524 651.35 731.437C655.623 726.749 658.63 723.696 661.789 718.157C651.797 724.501 646.687 727.446 634.85 730.218C637.609 726.936 640.819 722.919 643.736 719.866C637.794 722.311 629.407 724.492 622.956 724.301C615.757 729.899 608.793 735.864 600.839 740.571C542.75 774.947 461.995 772.179 408.801 729.56C406.807 727.962 404.698 726.195 402.564 724.809C395.326 723.343 390.27 722.07 383.272 719.962C386.35 723.958 388.853 726.571 392.421 730.106C381.736 727.78 374.126 723.881 364.581 718.827C368.304 723.925 370.138 726.669 374.677 731.106C369.553 729.705 365.262 728.466 360.29 726.084C356.738 724.383 352.067 721.06 348.336 719.667C347.012 719.983 345.899 720.249 344.996 720.465C341.872 720.215 336.344 720.377 332.993 720.431C320.466 720.63 293.713 714.384 285.008 705.278C289.367 704.29 293.803 703.99 298.143 702.971C296.621 698.172 289.045 700.912 284.945 701.254C281.02 697.637 280.852 698.608 276.332 696.369C268.493 693.815 250.433 686.195 245.479 679.553C247.44 678.918 252.818 678.755 255.251 678.543C260.126 678.12 264.714 677.379 269.546 676.657C266.864 675.396 263.967 674.156 261.07 673.491C256.829 672.387 229.72 665.984 228.246 664.902L228.462 663.712C231.357 659.732 230.013 661.767 234.241 660.444C236.758 659.657 239.663 658.529 242.312 657.724C241.358 657.063 239.304 655.888 238.64 655.327C235.115 652.344 231.784 652.258 228.423 649.134C212.108 639.385 200.724 630.501 191.419 613.395C195.849 615.366 200.32 617.243 204.83 619.025L206.232 619.44C212.959 621.678 218.592 622.316 225.576 622.587L226.132 620.854C224.253 620.041 222.072 618.763 220.376 618.153C219.397 617.557 219.019 617.286 217.966 616.859C199.903 603.726 191.527 592.244 183.681 571.749C190.415 575.414 193.996 577.529 201.213 580.308C202.752 574.62 184.458 550.217 180.576 545.457C177.375 541.531 172.101 537.205 170.143 532.655C172.404 530.597 184.195 537.09 188.6 535.802C188.582 535.734 171.971 520.092 168.056 511.165L179.791 514.562C194.172 517.844 207.799 510.165 217.47 500.044C213.84 501.65 210.105 502.893 206.645 504.389L206.031 504.646C202.807 505.229 195.427 507.154 192.491 505.971C195.526 502.429 203.094 498.634 206.664 495.385C210.139 492.223 219.47 484.768 219.988 480.064C217.206 477.684 201.536 487.017 198.772 480.804C200.106 478.364 203.706 477.723 206.36 476.366C211.408 473.787 214.901 470.654 219.145 466.943C219.556 466.233 219.975 465.527 220.401 464.826C225.467 459.667 220.442 460.015 219.544 463.319C218.218 463.375 217.536 463.429 216.231 463.309C210.65 457.95 197.372 434.566 192.867 426.427C173.897 393.549 188.122 359.891 185.992 324.733C184.78 295.517 169.233 269.81 171.988 240.105C172.272 237.042 173.17 225.917 172.901 223.299C169.033 185.714 174.405 159.117 186.109 122.725C181.947 108.787 181.213 108.085 173.104 95.9898C180.718 98.4334 185.093 100.911 191.476 105.869C192.015 104.471 192.007 103.605 192.141 102.079C189.814 96.5053 184.147 72.9194 189.192 69.0871C192.146 69.7956 191.676 76.9009 192.944 79.951C197.013 89.7412 203.765 97.8598 212.944 103.247C214.791 104.331 217.783 106.547 219.922 106.283C220.818 105.49 221.463 104.86 222.301 104.004C225.125 103.939 233.515 109.592 236.222 111.233C265.955 129.262 297.465 148.767 316.79 178.566C319.556 182.831 322.008 187.54 325.113 191.575C332.752 200.224 341.84 208.676 350.034 216.925C357.4 224.384 364.726 231.883 372.011 239.422C384.976 252.77 394.145 261.02 410.803 270.101C411.903 269.646 412.35 269.411 413.392 268.821C418.855 266.012 424.366 265.831 430.422 265.444C431.626 265.228 433.636 265.057 434.913 264.911C436.253 264.413 446.504 263.817 449.121 263.424C446.851 262.575 445.427 262.011 442.994 261.55L440.741 261.116C437.988 260.595 433.965 260.712 433.033 257.825C437.547 252.97 464.846 255.777 472.045 256.628C475.435 252.906 481.914 243.56 486.699 241.628C487.284 241.392 487.481 241.802 488.08 242.295C486.956 244.722 485.8 247.09 484.714 249.539L487.471 248.651C488.211 247.988 490.147 246.452 490.556 245.813C499.651 239.564 510.282 234.885 521.146 233.032C523.484 232.634 525.634 231.884 527.943 232.204C528.325 235.726 515.145 242.828 512.92 247.703L513.347 248.446C517.976 249.085 545.937 237.906 551.086 242.89C543.349 247.55 537.982 248.1 531.144 255.21C547.3 253.102 563.265 251.196 579.532 253.577C583.094 254.098 588.185 254.481 591.093 256.752C588.8 257.123 586.52 257.568 584.257 258.089C581.15 258.825 577.923 260.154 574.924 261.256C572.584 262.133 570.751 262.788 568.422 263.796C575.29 263.632 581.762 263.124 588.664 263.847C589.741 263.944 590.849 263.922 591.89 264.239C595.364 264.601 598.432 265.213 601.788 265.573C605.876 266.296 608.273 266.581 611.944 268.658C612.863 269.33 613.544 269.775 614.519 270.362C636.767 259.123 652.243 240.065 669.605 222.79C679.804 212.641 690.203 202.477 699.923 191.894C702.929 188.092 705.268 183.4 707.876 179.368C724.606 153.411 750.881 134.981 776.585 118.768C780.842 116.082 785.244 113.278 789.569 110.746C793.739 108.305 799.26 104.643 803.73 103.013L804.726 103.569C802.781 106.065 800.498 107.686 798.28 110.167L800.246 109.464C802.938 108.473 805.555 107.287 808.075 105.914ZM407.456 423.828C400.854 417.034 388.439 406.018 379.025 404.042L378.554 404.254C379.687 405.549 384.01 407.438 386.103 409.15C395.823 417.097 405.947 426.154 409.13 438.565C403.073 435.244 399.522 433.399 392.928 431.094C398.862 437.05 403.337 441.165 407.806 448.397C387.203 441.028 374.836 439.559 353.48 442.522C355.11 443.021 358.66 443.896 359.817 444.807C357.885 445.76 352.492 445.963 350.017 446.481C337.057 449.19 330.975 453.223 321.732 461.814C327.057 459.782 330.873 458.382 336.402 456.827C329.074 462.48 319.381 468.865 315.451 477.009C319.944 474.541 325.867 471.187 330.441 469.085C323.139 476.866 317.751 484.392 313.492 494.116C318.537 489.41 322.857 484.058 328.254 479.889C324.464 487.434 314.705 508.514 307.609 511.428L307.437 511.791C316.182 536.77 330.961 556.039 355.16 568.013C382.282 581.433 408.927 575.406 436.078 566.076C439.103 565.036 442.572 563.728 445.08 561.726C445.605 563.266 446.544 565.756 446.816 567.284C447.748 565.766 447.861 564.55 449.278 566.034C451.286 552.748 450.582 543.354 449.467 530.237C453.9 532.557 459.68 540.832 462.393 544.93C472.146 559.658 478.169 576.448 479.386 594.089C487.876 566.156 486.785 543.941 480.747 515.846C478.843 520.978 475.708 527.661 473.459 532.78C474.174 507.085 473.819 484.961 461.735 461.508C461.093 462.992 460.751 463.369 460.743 464.888C460.897 469.276 461.024 473.349 461.479 477.733C457.299 468.876 452.672 460.291 445.248 453.772C449.321 460.518 450.509 463.151 451.382 471.014C446.736 464.972 443.259 462.561 437.293 457.907L438.201 456.568C437.351 455.555 436.546 454.506 435.787 453.423C432.655 448.945 426.195 438.867 422.726 435.525C421.226 430.954 411.055 414.872 407.895 408.011C400.456 402.495 395.997 399.292 387.816 394.81C395.126 402.807 402.339 414.21 407.456 423.828ZM579.608 568.707C580.065 566.021 580.533 564.803 581.428 562.292C583.864 558.328 587.239 555.928 591.861 556.094C601.03 556.423 612.189 559.473 621.173 561.223C650.721 566.976 678.971 554.113 691.434 526.271C693.824 520.931 695.255 515.06 697.39 509.518C700.109 507.099 705.341 504.45 708.674 502.579C691.555 481.975 679.568 462.953 650.082 458.416C619.788 453.754 594.897 472.125 584.294 499.823C580.249 510.391 579.052 518.11 577.618 529.2C576.307 543.144 575.814 551.962 577.434 566.228C578.158 567.115 578.849 567.856 579.608 568.707Z"/><path fill="white" d="M472.868 609.974C480.96 599.243 490.908 594.543 504.075 592.994C522.35 590.843 543.285 593.988 554.219 610.071C556.713 616.247 556.747 620.724 555.12 627.201C563.251 626.474 571.93 625.624 580.332 625.889C605.728 626.688 648.819 639.019 652.069 669.61C654.298 690.6 636.863 710.094 622.956 724.301C615.757 729.899 608.793 735.864 600.839 740.571C542.75 774.947 461.995 772.179 408.801 729.56C406.807 727.962 404.698 726.195 402.564 724.809C398.017 720.267 393.743 715.46 389.764 710.413C373.563 689.852 365.962 661.443 390.113 643.593C414.012 625.928 443.248 623.888 471.762 627.652C469.746 620.909 470.446 616.338 472.868 609.974Z"/><path fill="#FD3C65" d="M472.868 609.974C480.96 599.243 490.908 594.543 504.075 592.994C522.35 590.843 543.285 593.988 554.219 610.071C556.713 616.247 556.747 620.724 555.12 627.201C548.856 645.849 536.926 651.754 518.51 655.12C518.421 657.634 518.207 661.563 518.518 663.986C519.171 669.322 521.967 674.164 526.262 677.397C528.855 679.359 531.794 680.599 534.926 681.374C560.437 687.687 581.644 667.461 595.476 649.012C594.216 652.103 592.788 655.004 591.328 658.063C580.566 680.612 550.883 705.261 525.289 690.259C520.392 687.389 516.907 683.504 513.2 679.186C509.281 685.912 501.825 691.145 494.461 693.455C467.246 701.992 438.528 673.153 431.383 649.26C443.293 665.943 458.886 681.648 480.823 682.9C488.612 683.344 497.61 679.719 503.35 674.471C508.995 669.31 508.434 661.727 508.399 654.725C501.932 654.424 495.623 652.618 489.976 649.452C480.901 644.423 474.62 637.706 471.762 627.652C469.746 620.909 470.446 616.338 472.868 609.974Z"/><path fill="#FE95AA" d="M507.744 606.207C511.951 605.887 522.73 606.485 525.781 608.969C532.576 614.502 515.329 616.976 512.696 617.117C509.531 617.148 496.965 616.567 494.617 614.849C485.209 607.965 504.148 606.505 507.744 606.207Z"/><path fill="#D41C48" d="M536.247 624.646C540.197 623.807 544.088 626.3 544.975 630.24C545.862 634.18 543.415 638.101 539.486 639.035C536.902 639.65 534.188 638.827 532.379 636.882C530.57 634.937 529.947 632.17 530.748 629.637C531.549 627.105 533.649 625.198 536.247 624.646Z"/><path fill="#D41C48" d="M486.478 625.195C490.313 624.035 494.366 626.191 495.547 630.02C496.729 633.849 494.596 637.914 490.773 639.117C486.92 640.329 482.817 638.175 481.626 634.316C480.435 630.456 482.612 626.365 486.478 625.195Z"/><path fill="#F5C27A" d="M254.574 570.408C270.426 567.679 276.394 570.165 291.093 574.719C303.648 580.257 317.85 589.985 327.927 599.444C335.778 605.27 339.988 605.962 349.148 608.47C361.851 608.904 374.265 605.457 386.285 601.788C384.385 606.844 367.912 615.806 362.679 618.527C383.691 620.302 393.789 610.335 412.759 604.395C419.262 602.359 431.75 601.446 438.775 600.771C434.371 598.228 429.937 595.738 425.472 593.303C444.635 589.501 462.804 590.657 472.868 609.974C470.446 616.338 469.746 620.909 471.762 627.652C443.248 623.888 414.012 625.928 390.113 643.593C365.962 661.443 373.563 689.852 389.764 710.413C393.743 715.46 398.017 720.267 402.564 724.809C395.326 723.343 390.27 722.07 383.272 719.962C386.35 723.958 388.853 726.571 392.421 730.106C381.736 727.78 374.126 723.881 364.581 718.827C368.304 723.925 370.138 726.669 374.677 731.106C369.553 729.705 365.262 728.466 360.29 726.084C356.738 724.383 352.067 721.06 348.336 719.667C347.012 719.983 345.899 720.249 344.996 720.465C341.872 720.215 336.344 720.377 332.993 720.431C320.466 720.63 293.713 714.384 285.008 705.278C289.367 704.29 293.803 703.99 298.143 702.971C296.621 698.172 289.045 700.912 284.945 701.254C281.02 697.637 280.852 698.608 276.332 696.369C268.493 693.815 250.433 686.195 245.479 679.553C247.44 678.918 252.818 678.755 255.251 678.543C260.126 678.12 264.714 677.379 269.546 676.657C266.864 675.396 263.967 674.156 261.07 673.491C256.829 672.387 229.72 665.984 228.246 664.902L228.462 663.712C231.357 659.732 230.013 661.767 234.241 660.444C236.758 659.657 239.663 658.529 242.312 657.724C241.358 657.063 239.304 655.888 238.64 655.327C235.115 652.344 231.784 652.258 228.423 649.134C212.108 639.385 200.724 630.501 191.419 613.395C195.849 615.366 200.32 617.243 204.83 619.025L206.232 619.44C212.959 621.678 218.592 622.316 225.576 622.587L226.132 620.854C224.253 620.041 222.072 618.763 220.376 618.153C219.397 617.557 219.019 617.286 217.966 616.859C199.903 603.726 191.527 592.244 183.681 571.749C190.415 575.414 193.996 577.529 201.213 580.308L202.834 580.967L203.483 580.643C203.466 577.538 199.533 575.44 200.601 572.268C211.572 579.801 221.276 581.86 234.413 580.836C239.937 579.312 243.315 577.842 248.472 575.38C250.39 573.988 252.708 571.953 254.574 570.408Z"/><path fill="#F4873A" d="M291.571 599.205C300.465 598.164 308.987 597.693 317.94 598.272C321.243 598.485 324.027 599.152 327.035 599.382L327.927 599.444C335.778 605.27 339.988 605.962 349.148 608.47C342.116 609.322 329.016 608.678 321.461 608.47C330.169 614.621 334.133 616.823 344.491 618.78C331.437 624.998 312.383 625.104 298.54 622.022C309.832 632.699 317.66 635.343 332.338 637.63C323.448 640.743 314.771 641.635 305.423 642.219C317.518 648.897 322.19 650.229 335.613 652.254C330.166 654.14 324.47 655.211 318.71 655.431C295.927 656.467 267.505 645.34 250.733 630.11C260.829 629.694 268.833 629.789 278.88 630.033C273.125 624.637 266.199 620.028 260.12 614.547C270.541 614.336 275.164 614.665 285.304 617.03C281.718 612.641 277.163 607.997 272.66 604.562C284.907 604.716 290.349 605.926 301.794 609.04C298.365 605.784 294.957 602.505 291.571 599.205Z"/><path fill="#F4873A" d="M234.413 580.836C239.937 579.312 243.315 577.842 248.472 575.38C250.576 576.191 253.548 576.446 255.947 576.981C261.594 578.238 266.15 579.52 271.566 581.597C262.664 582.953 252.46 584.291 244.056 587.458C252.75 590.119 259.555 591.634 268.584 593.095C262.609 594.569 256.733 596.013 251.013 598.354C256.849 600.899 261.099 602.572 267.321 603.936C252.933 606.005 230.027 605.526 216.716 599.831C219.583 595.038 230.099 586.263 234.651 581.525L234.413 580.836Z"/><path fill="#35173A" d="M276.332 696.369C279.906 696.974 283.401 697.97 286.995 698.605L289.745 699.094C295.947 700.136 300.223 699.955 306.128 700.705C303.746 701.565 300.623 702.667 298.143 702.971C296.621 698.172 289.045 700.912 284.945 701.254C281.02 697.637 280.852 698.608 276.332 696.369Z"/><path fill="#35173A" d="M228.423 649.134C231.869 650.449 235.233 652.382 238.799 653.847C241.83 655.091 245.113 656.111 247.97 657.364C239.319 659.066 236.434 660.528 228.462 663.712C231.357 659.732 230.013 661.767 234.241 660.444C236.758 659.657 239.663 658.529 242.312 657.724C241.358 657.063 239.304 655.888 238.64 655.327C235.115 652.344 231.784 652.258 228.423 649.134Z"/><path fill="#441628" d="M226.132 620.854L227.799 621.51C228.331 621.723 228.707 621.835 229.077 622.249C229 622.785 225.889 622.586 225.576 622.587L226.132 620.854Z"/><path fill="#F5C27A" d="M735.401 574.628C747.777 569.667 758.363 568.458 771.478 570.287C773.569 571.828 777.869 575.178 779.919 576.38C784.504 578.589 787.281 579.814 792.471 580.389C794.205 580.581 796.712 580.562 798.272 580.927C805.985 581.085 811.391 580.415 818.145 576.446C820.006 575.014 821.134 574.147 822.887 572.506C824.766 572.15 825.1 572.905 825.39 574.597C824.301 576.681 822.437 579.223 821.77 581.292C829.417 578.417 835.298 574.676 841.942 572.096C835.563 590.697 823.048 606.575 806.453 617.123L805.762 617.8C800.393 622.29 805.654 621.56 809.046 621.526C819.856 619.337 823.998 617.828 834.111 613.365C825.365 631.3 808.382 643.448 790.99 652.148C787.158 654.67 785.05 654.704 781.954 658.474C787.33 659.769 794.104 660.996 797.997 665.106L797.682 665.742C796.919 667.444 793.495 667.38 791.753 667.562C785.89 668.175 780.467 670.144 774.731 671.347L771.251 672.096C767.693 672.828 764.878 674.198 761.459 675.342C764.335 676.352 766.035 677.067 768.992 677.638C773.596 678.527 775.334 677.478 779.623 679.041C775.383 686.767 756.821 694.212 748.587 696.596C746.953 697.067 745.309 697.507 743.658 697.915C741.338 698.719 731.89 701.052 731.232 702.756L731.235 702.755C732.734 703.444 736.387 703.804 738.634 704.583L739.777 705.244C739.588 706.331 739.74 706.246 738.324 707.148C725.45 715.348 708.597 719.48 693.494 720.367C688.379 720.668 683.785 720.143 678.935 720.063C678.476 719.943 678.017 719.822 677.557 719.701C672.001 722.812 666.505 726.069 660.555 728.391C657.545 729.566 654.452 730.524 651.35 731.437C655.623 726.749 658.63 723.696 661.789 718.157C651.797 724.501 646.687 727.446 634.85 730.218C637.609 726.936 640.819 722.919 643.736 719.866C637.794 722.311 629.407 724.492 622.956 724.301C636.863 710.094 654.298 690.6 652.069 669.61C648.819 639.019 605.728 626.688 580.332 625.889C571.93 625.624 563.251 626.474 555.12 627.201C556.747 620.724 556.713 616.247 554.219 610.071C565.211 593.4 582.784 586.677 601.807 593.474C597.077 596.124 593.387 597.966 589.032 601.218C596.071 601.569 606.011 601.999 612.573 604.015C633.373 610.403 642.103 619.405 664.798 618.94C657.502 614.916 645.418 607.993 640.576 601.287C654.516 606.373 663.946 608.469 678.892 608.7C680.737 607.812 683.474 607.186 685.509 606.505C691.212 604.597 694.632 602.533 699.531 599.134C710.189 589.756 722.517 580.678 735.401 574.628Z"/><path fill="#F4873A" d="M699.531 599.134C712.769 598.084 722.638 596.677 735.843 599.644C731.828 603.146 728.959 605.672 725.291 609.611C736.236 605.43 741.483 604.751 753.181 604.016L740.268 617.534C751.195 614.761 755.832 614.349 766.961 614.513C761.45 619.12 751.374 626.38 746.984 630.635C756.492 629.796 765.711 628.851 775.253 630.052C754.66 647.705 718.254 662.57 691.475 651.835C703.707 649.908 710.384 649.193 720.871 642.284C710.141 641.422 704.993 641.22 694.832 637.475C707.907 635.481 718.074 631.408 727.958 622.51C711.636 624.931 697.716 625.187 682.088 619.006C692.459 616.441 696.603 614.616 704.814 608.038C699.619 608.637 683.623 609.647 678.892 608.7C680.737 607.812 683.474 607.186 685.509 606.505C691.212 604.597 694.632 602.533 699.531 599.134Z"/><path fill="#F4873A" d="M779.919 576.38C784.504 578.589 787.281 579.814 792.471 580.389C794.205 580.581 796.712 580.562 798.272 580.927C796.28 581.033 793.583 580.885 791.536 580.833C798.051 587.127 803.646 593.774 810.546 599.999C794.461 605.268 776.516 607.087 759.854 603.655C765.814 602.287 771.672 600.504 777.384 598.32C772.503 596.702 764.249 594.845 759.041 593.505C767.577 591.392 774.357 589.601 782.721 586.896C773.638 583.972 765.254 583.089 756.011 581.033C761.535 579.133 765.378 578.398 771.23 577.533C773.836 577.147 777.904 577.216 779.919 576.38Z"/><path fill="#35173A" d="M754.453 676.243C756.572 675.556 758.347 674.995 760.491 674.381L767.49 672.379C769.319 671.857 771.144 671.318 772.991 670.863L776.011 670.088L776.991 669.856C782.777 668.356 792.178 665.783 797.997 665.106L797.682 665.742C796.919 667.444 793.495 667.38 791.753 667.562C785.89 668.175 780.467 670.144 774.731 671.347L771.251 672.096C767.693 672.828 764.878 674.198 761.459 675.342C764.335 676.352 766.035 677.067 768.992 677.638C773.596 678.527 775.334 677.478 779.623 679.041C772.949 679.196 761.15 677.562 754.453 676.243Z"/><path fill="#35173A" d="M719.566 700.499C728.713 700.19 734.875 698.976 743.658 697.915C741.338 698.719 731.89 701.052 731.232 702.756L731.235 702.755C732.734 703.444 736.387 703.804 738.634 704.583C734.314 704.294 729.528 703.267 725.277 702.358L723.506 701.889C721.775 701.396 721.148 701.122 719.566 700.499Z"/><path fill="#E8A050" d="M822.887 572.506C824.766 572.15 825.1 572.905 825.39 574.597C824.301 576.681 822.437 579.223 821.77 581.292C821.221 580.725 820.46 577.362 820.611 576.339C820.07 576.159 819.243 576.4 818.653 576.426L818.145 576.446C820.006 575.014 821.134 574.147 822.887 572.506Z"/><path fill="#35173A" d="M798.653 621C801.231 620.011 803.844 618.38 806.453 617.123L805.762 617.8C800.393 622.29 805.654 621.56 809.046 621.526C805.396 622.453 802.513 622.285 798.965 622.774L798.653 621Z"/><path fill="#35173A" d="M781.954 658.474C781.265 658.406 778.889 658.082 778.454 657.715C778.284 656.844 789.504 652.65 790.99 652.148C787.158 654.67 785.05 654.704 781.954 658.474Z"/><path fill="#441628" d="M798.653 621L798.965 622.774C795.535 622.49 795.362 622.186 798.653 621Z"/><path fill="#F5C27A" d="M387.816 394.81C395.997 399.292 400.456 402.495 407.895 408.011C411.055 414.872 421.226 430.954 422.726 435.525C426.195 438.867 432.655 448.945 435.787 453.423C436.546 454.506 437.351 455.555 438.201 456.568L437.293 457.907C443.259 462.561 446.736 464.972 451.382 471.014C450.509 463.151 449.321 460.518 445.248 453.772C452.672 460.291 457.299 468.876 461.479 477.733C461.024 473.349 460.897 469.276 460.743 464.888C460.751 463.369 461.093 462.992 461.735 461.508C473.819 484.961 474.174 507.085 473.459 532.78C475.708 527.661 478.843 520.978 480.747 515.846C486.785 543.941 487.876 566.156 479.386 594.089C478.169 576.448 472.146 559.658 462.393 544.93C459.68 540.832 453.9 532.557 449.467 530.237C450.582 543.354 451.286 552.748 449.278 566.034C447.861 564.55 447.748 565.766 446.816 567.284C446.544 565.756 445.605 563.266 445.08 561.726C442.572 563.728 439.103 565.036 436.078 566.076C408.927 575.406 382.282 581.433 355.16 568.013C330.961 556.039 316.182 536.77 307.437 511.791L307.609 511.428C314.705 508.514 324.464 487.434 328.254 479.889C322.857 484.058 318.537 489.41 313.492 494.116C317.751 484.392 323.139 476.866 330.441 469.085C325.867 471.187 319.944 474.541 315.451 477.009C319.381 468.865 329.074 462.48 336.402 456.827C330.873 458.382 327.057 459.782 321.732 461.814C330.975 453.223 337.057 449.19 350.017 446.481C352.492 445.963 357.885 445.76 359.817 444.807C358.66 443.896 355.11 443.021 353.48 442.522C374.836 439.559 387.203 441.028 407.806 448.397C403.337 441.165 398.862 437.05 392.928 431.094C399.522 433.399 403.073 435.244 409.13 438.565C405.947 426.154 395.823 417.097 386.103 409.15C384.01 407.438 379.687 405.549 378.554 404.254L379.025 404.042C388.439 406.018 400.854 417.034 407.456 423.828C402.339 414.21 395.126 402.807 387.816 394.81ZM321.173 498.98L318.254 502.314C322.853 504.628 326.022 506.281 329.814 509.8C330.75 512.917 331.538 516.166 332.584 519.23C344.958 555.507 375.886 567.556 411.58 560.259L411.896 559.413L416.32 558.024L415.426 558.076C416.092 557.377 417.624 557.211 418.767 556.914C420.704 556.502 433.036 554.222 433.406 552.609C431.653 550.715 432.352 550.96 430.158 550.268C428.22 550.586 428.262 550.625 426.486 551.542C424.958 551.37 424.64 551.066 423.281 550.349C419.852 550.801 416.352 553.156 413.3 554.921L413.59 554.661L412.988 554.955C410.283 556.247 405.568 558.208 402.612 557.607C421.408 552.468 435.271 536.533 437.759 517.207C440.246 497.881 430.87 478.954 413.988 469.224C397.106 459.493 376.029 460.868 360.553 472.708C361.231 466.15 373.477 462.772 373.488 462.747C372.816 461.449 366.388 461.527 365.076 463.293C363.089 465.97 358.824 464.488 356.718 466.166C354.683 468.651 344.367 473.965 339.779 478.1C334.678 482.696 325.218 497.189 321.173 498.98Z"/><defs><linearGradient id="gradient_0" gradientUnits="userSpaceOnUse" x1="395.28162" y1="492.19125" x2="354.44278" y2="549.38812"><stop offset="0" stop-color="#2E1B19" stop-opacity="0.82352942"/><stop offset="1" stop-color="#281B1B"/></linearGradient></defs><path fill="url(#gradient_0)" d="M356.718 466.166C358.084 466.255 361.235 465.817 362.244 466.393C362.604 467.108 360.411 469.302 359.822 470.168C358.495 472.123 358.681 472.437 358.143 474.678C341.189 489.475 336.709 514.024 347.343 533.856C357.978 553.688 380.905 563.541 402.612 557.607C405.568 558.208 410.283 556.247 412.988 554.955L413.59 554.661L413.3 554.921C416.352 553.156 419.852 550.801 423.281 550.349C424.64 551.066 424.958 551.37 426.486 551.542C428.262 550.625 428.22 550.586 430.158 550.268C432.352 550.96 431.653 550.715 433.406 552.609C429.109 551.652 427.131 552.412 423.187 551.225C420.764 550.495 413.646 556.206 411.613 557.784C415.525 557.089 414.967 556.863 418.767 556.914C417.624 557.211 416.092 557.377 415.426 558.076L416.32 558.024L411.896 559.413L411.58 560.259C375.886 567.556 344.958 555.507 332.584 519.23C331.538 516.166 330.75 512.917 329.814 509.8C326.022 506.281 322.853 504.628 318.254 502.314L321.173 498.98C325.218 497.189 334.678 482.696 339.779 478.1C344.367 473.965 354.683 468.651 356.718 466.166Z"/><defs><linearGradient id="gradient_1" gradientUnits="userSpaceOnUse" x1="422.50275" y1="551.89471" x2="422.8418" y2="555.12427"><stop offset="0" stop-color="#2A1A19" stop-opacity="0.79215688"/><stop offset="1" stop-color="#281C1C" stop-opacity="0.89019608"/></linearGradient></defs><path fill="url(#gradient_1)" d="M411.613 557.784C413.646 556.206 420.764 550.495 423.187 551.225C427.131 552.412 429.109 551.652 433.406 552.609C433.036 554.222 420.704 556.502 418.767 556.914C414.967 556.863 415.525 557.089 411.613 557.784Z"/><path fill="#281A1B" fill-opacity="0.86666667" d="M356.718 466.166C358.824 464.488 363.089 465.97 365.076 463.293C366.388 461.527 372.816 461.449 373.488 462.747C373.477 462.772 361.231 466.15 360.553 472.708C359.728 473.338 358.925 473.995 358.143 474.678C358.681 472.437 358.495 472.123 359.822 470.168C360.411 469.302 362.604 467.108 362.244 466.393C361.235 465.817 358.084 466.255 356.718 466.166Z"/><path fill="#E8A050" d="M360.553 472.708C376.029 460.868 397.106 459.493 413.988 469.224C430.87 478.954 440.246 497.881 437.759 517.207C435.271 536.533 421.408 552.468 402.612 557.607C380.905 563.541 357.978 553.688 347.343 533.856C336.709 514.024 341.189 489.475 358.143 474.678C358.925 473.995 359.728 473.338 360.553 472.708ZM412.36 497.035L412.15 497.083C410.876 498.898 410.353 500.888 408.233 501.981C402.062 505.421 395.016 500.357 397.373 493.491C398.996 488.764 403.933 487.586 408.083 489.605L408.674 489.875C405.936 484.994 399.221 479.962 393.868 478.379C389.11 476.974 383.985 477.552 379.66 479.984C372.8 483.79 368.137 491.674 366.22 499.12C363.534 509.479 365.051 520.48 370.44 529.726C377.243 541.227 389.581 545.797 401.065 538.151C412.999 530.205 415.486 515.076 413.801 502.07C413.382 500.374 412.902 498.695 412.36 497.035Z"/><path fill="#281A1B" fill-opacity="0.97647059" d="M413.801 502.07C415.486 515.076 412.999 530.205 401.065 538.151C389.581 545.797 377.243 541.227 370.44 529.726C365.051 520.48 363.534 509.479 366.22 499.12C368.137 491.674 372.8 483.79 379.66 479.984C383.985 477.552 389.11 476.974 393.868 478.379C399.221 479.962 405.936 484.994 408.674 489.875L408.083 489.605C403.933 487.586 398.996 488.764 397.373 493.491C395.016 500.357 402.062 505.421 408.233 501.981C410.353 500.888 410.876 498.898 412.15 497.083L412.36 497.035C412.902 498.695 413.382 500.374 413.801 502.07Z"/><path fill="white" d="M412.15 497.083C410.876 498.898 410.353 500.888 408.233 501.981C402.062 505.421 395.016 500.357 397.373 493.491C398.996 488.764 403.933 487.586 408.083 489.605L408.674 489.875C410.977 493.663 411.192 492.167 412.15 497.083Z"/><path fill="white" d="M412.36 497.035L412.723 496.481C415.449 492.209 420.105 493.385 420.532 498.529C420.816 501.949 416.092 501.962 413.801 502.07C413.382 500.374 412.902 498.695 412.36 497.035Z"/><path fill="#281A1B" d="M321.173 498.98C334.478 479.274 350.181 463.669 374.361 458.607C389.989 455.335 406.205 459.411 419.333 468.373C436.862 480.34 444.135 498.907 447.751 519.15C448.373 522.838 448.945 526.534 449.467 530.237C450.582 543.354 451.286 552.748 449.278 566.034C447.861 564.55 447.748 565.766 446.816 567.284C446.544 565.756 445.605 563.266 445.08 561.726C437.534 551.199 422.388 558.305 411.58 560.259L411.896 559.413L416.32 558.024L415.426 558.076C416.092 557.377 417.624 557.211 418.767 556.914C420.704 556.502 433.036 554.222 433.406 552.609C431.653 550.715 432.352 550.96 430.158 550.268C428.22 550.586 428.262 550.625 426.486 551.542C424.958 551.37 424.64 551.066 423.281 550.349C419.852 550.801 416.352 553.156 413.3 554.921L413.59 554.661L412.988 554.955C410.283 556.247 405.568 558.208 402.612 557.607C421.408 552.468 435.271 536.533 437.759 517.207C440.246 497.881 430.87 478.954 413.988 469.224C397.106 459.493 376.029 460.868 360.553 472.708C361.231 466.15 373.477 462.772 373.488 462.747C372.816 461.449 366.388 461.527 365.076 463.293C363.089 465.97 358.824 464.488 356.718 466.166C354.683 468.651 344.367 473.965 339.779 478.1C334.678 482.696 325.218 497.189 321.173 498.98Z"/><path fill="#F4873A" d="M422.726 435.525C426.195 438.867 432.655 448.945 435.787 453.423C436.546 454.506 437.351 455.555 438.201 456.568L437.293 457.907C432.575 454.005 430.618 453.529 425.599 450.832L423.968 449.958C423.827 443.855 423.925 442.015 422.822 436.067L422.726 435.525Z"/><path fill="#FC5B29" d="M744.906 532.183C740.74 528.743 721.376 514.722 720.062 511.631C722.112 508.808 732.222 505.224 735.88 504.658C752.93 502.021 762.074 505.649 775.534 514.564C770.985 513.451 768.532 512.928 763.908 512.408L764.37 514.309C771.72 518.356 776.554 524.125 782.675 529.485C779.393 528.34 776.133 527.133 772.896 525.866C787.36 546.324 801.455 563.285 828.762 552.766C821.463 560.57 816.561 565.362 806.676 569.911C810.461 570.755 821.877 571.07 822.887 572.506C821.134 574.147 820.006 575.014 818.145 576.446C811.391 580.415 805.985 581.085 798.272 580.927C796.712 580.562 794.205 580.581 792.471 580.389C787.281 579.814 784.504 578.589 779.919 576.38C777.869 575.178 773.569 571.828 771.478 570.287C758.363 568.458 747.777 569.667 735.401 574.628C722.517 580.678 710.189 589.756 699.531 599.134C694.632 602.533 691.212 604.597 685.509 606.505C683.474 607.186 680.737 607.812 678.892 608.7C663.946 608.469 654.516 606.373 640.576 601.287C635.873 598.942 633 597.523 629.043 594.075C635.975 594.149 640.889 593.885 647.436 591.67C643.321 590.751 635.359 587.713 632.055 585.153L632.18 584.436C635.391 583.54 644.645 584.742 649.343 584.25C661.716 583.357 680.616 575.78 688.404 565.322C703.41 545.17 717.368 534.156 744.538 532.841L744.906 532.183Z"/><path fill="#F4873A" d="M715.899 576.802C726.959 566.103 739.661 556.192 753.355 549.173C758.995 555.371 766.428 563.653 771.478 570.287C758.363 568.458 747.777 569.667 735.401 574.628C732.71 573.193 720.269 576.276 715.899 576.802Z"/><path fill="#F4873A" d="M746.179 533.4C752.718 540.609 757.381 542.34 763.73 551.524C760.359 550.672 755.528 548.845 752.494 548.202C746.009 546.828 735.006 549.936 729.255 552.175C733.631 545.42 737.95 539.815 744.309 534.687C744.949 534.256 745.553 533.852 746.179 533.4Z"/><path fill="#FC672E" d="M744.906 532.183C745.385 532.609 745.727 532.945 746.179 533.4C745.553 533.852 744.949 534.256 744.309 534.687L744.538 532.841L744.906 532.183Z"/><path fill="#F4873A" d="M764.37 514.309C763.207 513.557 759.943 511.411 763.908 512.408L764.37 514.309Z"/><path fill="#FC5B29" d="M282.633 531.869C283.879 533.096 283.153 532.636 284.991 533.119C302.096 535.406 321.424 541.42 331.548 556.588C344.078 575.359 362.144 585.132 384.836 584.493C387.493 584.418 394.499 582.582 396.205 584.044C394.108 587.701 384.539 591.169 380.466 592.244C387.89 594.045 390.533 594.013 398.223 593.915C393.016 599.857 391.36 598.314 386.285 601.788C374.265 605.457 361.851 608.904 349.148 608.47C339.988 605.962 335.778 605.27 327.927 599.444C317.85 589.985 303.648 580.257 291.093 574.719C276.394 570.165 270.426 567.679 254.574 570.408C258.228 565.126 268.253 554.198 272.772 549.099C269.535 549.61 265.25 550.685 261.967 551.416C266.835 544.908 276.215 536.753 282.633 531.869Z"/><path fill="#F4873A" d="M282.633 531.869C283.879 533.096 283.153 532.636 284.991 533.119L282.041 533.534L281.791 533.887C283.953 536.64 285.779 537.568 288.229 539.939C291.915 543.505 294.532 547.509 297.129 551.884C288.662 548.213 282.029 547.943 272.721 548.195C289.341 556.861 298.757 564.773 312.122 577.784C308.251 576.799 294.439 573.282 291.093 574.719C276.394 570.165 270.426 567.679 254.574 570.408C258.228 565.126 268.253 554.198 272.772 549.099C269.535 549.61 265.25 550.685 261.967 551.416C266.835 544.908 276.215 536.753 282.633 531.869Z"/><path fill="#FC5B29" d="M430.422 265.444C431.626 265.228 433.636 265.057 434.913 264.911C437.794 265.404 444.39 264.861 448.617 265.394C446.132 265.508 443.308 265.411 440.792 265.388C449.383 273.713 452.93 284.39 455.449 295.551C456.477 291.656 457.38 288.417 458.671 284.61C461.443 295.81 460.212 300.193 459.225 311.498C457.559 330.567 458.975 347.688 466.882 365.347C466.973 357.808 468.065 350.38 471.352 343.536C471.637 359.007 477.342 379.162 483.635 393.327C484.043 389.375 484.563 387.119 485.493 383.219C496.615 399.989 493.737 429.213 482.291 445.411C480.161 416.633 464.728 387.32 440.207 371.566C449.982 346.746 440.319 331.765 423.978 313.568C428.292 314.57 431.426 315.549 435.652 316.938C433.704 312.213 429.056 305.271 426.204 300.827C430.274 302.041 433.395 303.287 437.354 304.876C436.142 297.261 433.885 288.105 429.668 281.678C434.193 283.984 437.474 286.149 441.646 288.937C440.822 280.979 439.191 273.301 438.306 265.411C435.399 265.557 433.31 265.534 430.422 265.444Z"/><path fill="#FC5B29" d="M588.664 263.847C589.741 263.944 590.849 263.922 591.89 264.239C590.508 265.713 588.457 284.626 587.736 288.521C592.18 285.747 594.997 284.17 599.767 282.092C594.551 290.302 593.157 295.629 592.032 305.088C595.17 303.81 599.569 301.509 602.715 299.984C599.769 305.633 595.883 310.452 592.587 316.986C596.532 315.546 599.779 314.79 603.879 313.791C588.496 329.742 577.915 348.687 587.446 370.628C560.676 392.456 550.477 409.545 545.153 444.542C531.124 425.535 533.922 401.252 543.008 380.851C544.281 385.714 544.49 387.686 544.743 392.65C552.521 373.833 555.498 363.478 556.015 343.036C560.27 351.926 560.497 356.561 561.573 366.29C575.805 335.605 566.648 315.985 569.239 285.654C570.749 289.232 571.867 292.443 573.132 296.122C574.878 289.063 576.667 282.039 580.696 275.885C583.302 271.903 586.419 268.026 588.664 263.847Z"/><path fill="#FC5B29" d="M250.435 514.768C264.529 504.127 281.477 500.794 298.442 506.558C301.334 507.541 305.911 508.865 307.609 511.428L307.437 511.791C302.924 514.976 297.83 519.56 293.411 523.148C290.173 525.778 285.648 529.172 282.633 531.869C276.215 536.753 266.835 544.908 261.967 551.416C265.25 550.685 269.535 549.61 272.772 549.099C268.253 554.198 258.228 565.126 254.574 570.408C252.708 571.953 250.39 573.988 248.472 575.38C243.315 577.842 239.937 579.312 234.413 580.836C221.276 581.86 211.572 579.801 200.601 572.268C201.746 571.684 217.157 570.297 220.816 569.611C210.061 565.386 205.807 562.51 198.593 553.559C205.511 555.823 210.284 557.207 217.57 555.918C234.098 552.996 245.035 539.791 253.024 526.159C250.046 527.43 247.055 528.671 244.052 529.882C251.386 521.532 256.35 518.215 265.362 511.886C259.849 512.743 255.882 513.5 250.435 514.768Z"/><path fill="#FC5B29" d="M423.063 369.719C438.295 377.375 445.046 391.586 450.493 406.912C452.138 402.731 453.828 398.568 455.562 394.423C459.516 423.628 455.232 433.303 438.201 456.568C437.351 455.555 436.546 454.506 435.787 453.423C432.655 448.945 426.195 438.867 422.726 435.525C421.226 430.954 411.055 414.872 407.895 408.011C405.918 402.425 403.11 396.247 400.625 390.818C404.753 394.367 414.3 403.256 418.109 405.72C412.622 396.846 405.53 388.458 398.368 380.894C406.33 384.384 412.568 387.909 420.041 392.348C417.835 387.734 410.763 378.16 407.484 372.683C416.297 376.972 424.679 381.571 431.933 388.275C429.66 382.413 426.119 375.283 423.063 369.719Z"/><path fill="#441628" d="M433.033 257.825C440.525 259.321 448.656 261.905 455.376 265.549C453.122 265.55 450.868 265.498 448.617 265.394C444.39 264.861 437.794 265.404 434.913 264.911C436.253 264.413 446.504 263.817 449.121 263.424C446.851 262.575 445.427 262.011 442.994 261.55L440.741 261.116C437.988 260.595 433.965 260.712 433.033 257.825Z"/><path fill="#441628" d="M216.231 463.309C220.687 460.326 224.91 457.27 229.465 454.341C226.818 458.628 223.146 463.829 219.145 466.943C219.556 466.233 219.975 465.527 220.401 464.826C225.467 459.667 220.442 460.015 219.544 463.319C218.218 463.375 217.536 463.429 216.231 463.309Z"/><path fill="#441628" d="M611.944 268.658C612.863 269.33 613.544 269.775 614.519 270.362C611.668 272.691 604.035 274.917 600.389 275.827C604.317 273.059 608.098 271.31 611.944 268.658Z"/><path fill="#441628" d="M410.803 270.101C411.903 269.646 412.35 269.411 413.392 268.821C417.196 271.275 421.406 273.427 425.405 275.575C420.788 274.415 414.801 272.78 410.803 270.101Z"/><path fill="#35173A" d="M808.014 499.617C810.204 500.731 814.654 503.125 816.951 503.508C815.083 504.311 815.165 504.498 815.088 506.557C812.505 504.576 810.214 502.005 808.014 499.617Z"/><path fill="#4D1716" d="M192.141 102.079C194.616 105.722 195.634 107.617 198.505 111.452C195.695 109.413 194.102 108.059 191.476 105.869C192.015 104.471 192.007 103.605 192.141 102.079Z"/><path fill="#4D1716" d="M446.816 567.284C447.748 565.766 447.861 564.55 449.278 566.034C448.989 568.225 448.568 570.195 448.266 572.353L447.751 572.713C447.403 570.878 447.073 569.139 446.816 567.284Z"/><path fill="#4D1716" d="M831.708 105.009L831.799 107.402C830.493 108.895 829.376 109.677 827.801 110.871C828.551 109.717 830.875 105.849 831.708 105.009Z"/><path fill="#F9D89C" d="M460.743 464.888C460.513 463.895 459.986 457.324 461.735 461.508C461.093 462.992 460.751 463.369 460.743 464.888Z"/><path fill="#4D1716" d="M484.714 249.539L487.471 248.651C486.773 249.394 482.975 253.804 484.714 249.539Z"/><path fill="#A2471F" d="M447.751 572.713L448.266 572.353C448.266 572.767 448.37 573.54 447.941 573.835C447.577 573.738 447.754 572.808 447.751 572.713Z"/><path fill="#FE828D" d="M246.344 420.475C233.728 419.329 225.442 416.206 214.83 409.069C198.173 397.867 192.701 374.061 194.663 355.222C195.779 344.498 198.891 335.373 197.593 324.091C196.509 314.675 194.428 306.081 192.275 296.809C189.977 287.261 187.962 277.646 186.235 267.978C185.036 261.301 182.432 244.694 182.25 237.298C181.487 206.447 180.35 162.759 196.845 135.537C200.168 130.053 207.112 125.961 213.224 125.017C229.337 122.527 250.518 137.934 263.478 146.828C281.184 158.978 299.45 179.41 311.595 197.108C315.976 203.52 318.966 211.716 323.82 217.739C336.562 233.551 353.492 248.058 360.697 267.517C361.957 270.919 362.637 275.582 363.267 279.234C354.866 272.744 352.352 269.066 342.003 262.074C352.565 276.805 358.779 281.79 363.106 301.294C358.222 298.502 352.534 293.996 347.705 290.792C340.896 286.274 336.919 284.331 329.493 281.353C338.234 287.569 346.308 293.828 351.943 303.318C353.288 305.583 356.463 310.995 355.841 313.258C354.321 313.329 350.966 309.152 349.21 307.624C344.93 303.888 340.205 300.693 335.143 298.112C342.839 305.538 344.673 308.116 349.669 317.316C343.303 322.242 334.96 326.721 328.01 331.485C305.421 346.97 283.164 366.468 266.599 388.451L266.25 388.795C264.308 391.645 262.303 394.451 260.237 397.213C254.383 405.564 251.13 411.461 246.344 420.475Z"/><path fill="#FE95AA" d="M246.344 420.475C233.728 419.329 225.442 416.206 214.83 409.069C198.173 397.867 192.701 374.061 194.663 355.222C195.779 344.498 198.891 335.373 197.593 324.091C196.509 314.675 194.428 306.081 192.275 296.809C189.977 287.261 187.962 277.646 186.235 267.978C185.036 261.301 182.432 244.694 182.25 237.298C181.487 206.447 180.35 162.759 196.845 135.537C200.168 130.053 207.112 125.961 213.224 125.017C229.337 122.527 250.518 137.934 263.478 146.828C281.184 158.978 299.45 179.41 311.595 197.108C315.976 203.52 318.966 211.716 323.82 217.739C336.562 233.551 353.492 248.058 360.697 267.517C361.957 270.919 362.637 275.582 363.267 279.234C354.866 272.744 352.352 269.066 342.003 262.074C352.565 276.805 358.779 281.79 363.106 301.294C358.222 298.502 352.534 293.996 347.705 290.792C340.896 286.274 336.919 284.331 329.493 281.353C338.234 287.569 346.308 293.828 351.943 303.318C353.288 305.583 356.463 310.995 355.841 313.258C354.321 313.329 350.966 309.152 349.21 307.624C344.93 303.888 340.205 300.693 335.143 298.112C342.839 305.538 344.673 308.116 349.669 317.316C343.303 322.242 334.96 326.721 328.01 331.485C305.421 346.97 283.164 366.468 266.599 388.451C264.954 386.599 263.918 384.432 262.575 382.344C259.756 377.96 255.676 375.694 251.487 372.846C259.222 370.886 267.174 369.91 275.154 369.943C263.323 363.117 263.588 364.361 251.242 361.777C262.688 354.754 272.874 354.688 285.84 356.467C279.818 348.966 272.77 341.968 264.48 336.972C275.092 338.428 285.228 340.546 295.022 345.08C296.906 345.953 301.029 348.286 302.897 348.092L303.302 347.601C291.963 333.896 285.038 331.256 268.267 324.864C284.371 321.998 296.388 326.235 311.323 331.474C299.22 317.443 287.07 313.765 269.58 310.417C289.833 306.245 302.982 310.899 321.628 315.5C311.045 299.984 301.94 292.296 285.377 284.169C296.02 285.521 302.595 287.075 313.043 289.604C305.533 280.629 302.965 277.288 294.209 269.839C303.307 272.619 309.351 273.908 318.117 277.844C311 267.392 302.666 259.777 292.681 252.156C299.101 254.217 305.459 256.463 311.748 258.891C306.621 250.257 302.036 243.015 294.6 235.93C290.829 232.337 286.172 229.033 282.629 225.524C304.328 227.86 312.444 235.66 328.249 247.45C321.002 231.391 313.334 226.229 301.012 215.111C307.864 218.058 314.598 221.273 321.198 224.748C304.055 197.713 283.404 172.998 256.927 154.754C245.689 147.01 224.916 132.963 211.483 142.258C197.169 152.162 190.557 177.518 187.16 193.556C181.068 222.319 183.314 252.843 192.54 280.651C197.05 293.871 203.1 306.512 205.365 320.754C207.21 332.361 204.994 339.815 203.754 350.983C202.437 363.936 205.716 376.94 213.016 387.72C217.938 394.987 224.172 399.98 232.381 403.191C241.33 406.691 247.549 405.101 255.141 399.743C256.698 398.658 258.227 397.534 259.728 396.372C260.552 392.534 255.876 388.842 253.308 386.571C257.59 387.07 262.015 387.978 266.25 388.795C264.308 391.645 262.303 394.451 260.237 397.213C254.383 405.564 251.13 411.461 246.344 420.475Z"/><path fill="#FE95AA" d="M661.544 279.29C668.928 251.127 684.324 238.334 702.217 216.571C708.023 208.937 711.997 199.689 717.69 191.997C735.431 168.029 758.618 148.327 783.914 132.843C800.091 122.94 821.39 118.175 831.098 139.099C848.486 176.578 846.945 234.408 838.675 274.163C837.029 281.84 835.241 289.487 833.311 297.098C831.112 305.426 828.307 313.725 827.606 322.321C825.809 344.347 835.481 359.808 828.205 382.482C823.68 396.583 817.761 405.536 804.292 412.843C795.752 417.476 788.61 419.677 779.061 420.325C760.61 382.835 731.638 355.249 697.985 331.221C690.803 326.094 683.297 322.43 676.193 317.77C678.736 312.492 681.174 306.699 685.561 302.724C685.043 302.351 684.521 301.984 683.994 301.623C675.634 307.828 675.613 308.89 668.806 315.582C672.659 299.599 682.856 290.627 696.105 281.007C681.211 287.602 674.443 292.25 661.749 302.099C665.907 283.276 673.117 275.749 684.846 261.114C675.13 267.244 669.213 274.253 661.544 279.29Z"/><path fill="#FE828D" d="M683.994 301.623C686.501 299.002 688.878 297.917 691.986 296.329C690.35 298.137 687.499 301.241 685.561 302.724C685.043 302.351 684.521 301.984 683.994 301.623Z"/><path fill="#FE828D" d="M801.835 139.185C818.788 137.811 826.841 155.964 831.75 169.31C843.076 200.658 844.886 234.655 836.952 267.028C832.468 285.554 823.522 303.444 819.945 322.102C817.784 333.374 821.456 343.286 821.643 354.428C821.715 368.11 817.321 384.777 806.933 394.447C791.74 408.589 779.889 408.733 765.699 393.932C768.292 390.367 769.357 389.381 772.884 387.032C768.833 387.803 765.108 388.969 761.215 387.8C759.974 386.492 760.288 387.257 760.299 385.405C763.149 379.462 769.551 375.759 775.423 373.478C765.718 370.864 760.333 371.337 750.724 369.996C760.773 364.54 764.035 363.019 775.254 362.31C764.767 354.627 752.471 355.604 740.182 356.175C744.478 350.292 754.244 341.894 760.147 337.297C743.498 337.924 737.739 343.166 723.246 348.298C734.451 333.211 740.629 331.009 758.347 324.629C743.803 323.064 737.302 324.338 723.598 328.043C720.386 329.21 716.928 330.681 713.732 331.967C724.276 318.297 739.135 313.765 755.261 309.813C735.084 306.761 723.028 310.091 704.463 315.817C713.155 302.399 724.804 291.127 739.639 284.763C729.757 284.951 722.362 286.71 713.241 290.175C717.31 283.117 725.124 275.653 730.984 269.879C723.992 271.42 714.383 275.477 707.353 278.135C715.125 268.263 721.874 260.735 732.121 253.372C724.363 254.597 720.728 256.297 713.579 259.295C723.616 244.101 728.108 237.226 743.125 226.021C724.289 227.317 712.918 235.696 697.921 245.743C705.034 232.897 712.922 225.379 723.878 216.311C717.126 218.691 712.851 221.378 705.241 223.6C719.846 196.228 770.18 143.081 801.835 139.185Z"/><path fill="#281A1B" fill-opacity="0.98823529" d="M577.618 529.2C579.052 518.11 580.249 510.391 584.294 499.823C594.897 472.125 619.788 453.754 650.082 458.416C679.568 462.953 691.555 481.975 708.674 502.579C705.341 504.45 700.109 507.099 697.39 509.518C695.255 515.06 693.824 520.931 691.434 526.271C678.971 554.113 650.721 566.976 621.173 561.223C612.189 559.473 601.03 556.423 591.861 556.094C587.239 555.928 583.864 558.328 581.428 562.292C580.533 564.803 580.065 566.021 579.608 568.707C578.849 567.856 578.158 567.115 577.434 566.228C575.814 551.962 576.307 543.144 577.618 529.2ZM640.267 559.34C666.93 557.87 687.365 535.082 685.932 508.417C684.5 481.751 661.742 461.284 635.075 462.677C608.353 464.074 587.834 486.889 589.269 513.609C590.705 540.329 613.549 560.814 640.267 559.34ZM678.809 541.577C683.665 537.791 682.922 537.941 686.289 532.805C687.801 530.498 691.388 524.699 687.065 523.719C685.412 526.524 683.951 529.843 682.8 532.883C681.533 536.231 678.314 538.218 677.747 541.753C678.033 541.82 678.566 541.638 678.809 541.577Z"/><path fill="#E8A050" d="M635.075 462.677C661.742 461.284 684.5 481.751 685.932 508.417C687.365 535.082 666.93 557.87 640.267 559.34C613.549 560.814 590.705 540.329 589.269 513.609C587.834 486.889 608.353 464.074 635.075 462.677ZM660.79 499.789L659.441 497.558C657.791 500.464 657.225 500.909 654.569 502.976C653.134 503.021 651.906 503.658 650.498 503.454C644.352 502.564 641.999 494.639 646.411 490.406C648.512 488.39 650.263 488.326 652.998 488.527L653.936 488.584C653.548 486.805 651.933 485.125 650.612 483.932L650.21 483.708C644.241 476.301 632.409 476.133 625.034 481.77C610.204 492.68 609.338 518.845 619.846 532.004C637.525 554.146 661.357 535.516 661.933 512.68C662.064 507.516 660.997 504.165 660.79 499.789Z"/><path fill="#281A1B" fill-opacity="0.92941177" d="M625.034 481.77C626.994 481.394 633.148 480.79 634.248 480.381C641.275 477.765 644.914 483.363 650.21 483.708L650.612 483.932C650.18 486.537 651.037 487.51 647.234 487.963C646.035 488.106 641.959 493.392 642.696 495.495C643.474 497.716 642.202 501.745 643.793 503.682C645.59 504.775 653.477 505.655 654.569 502.976C657.225 500.909 657.791 500.464 659.441 497.558L660.79 499.789C660.997 504.165 662.064 507.516 661.933 512.68C661.357 535.516 637.525 554.146 619.846 532.004C609.338 518.845 610.204 492.68 625.034 481.77Z"/><path fill="white" d="M654.569 502.976C653.134 503.021 651.906 503.658 650.498 503.454C644.352 502.564 641.999 494.639 646.411 490.406C648.512 488.39 650.263 488.326 652.998 488.527L653.936 488.584C657.089 490.624 659.428 493.692 659.441 497.558C657.791 500.464 657.225 500.909 654.569 502.976Z"/><path fill="#281A1B" fill-opacity="0.97254902" d="M650.612 483.932C651.933 485.125 653.548 486.805 653.936 488.584L652.998 488.527C650.263 488.326 648.512 488.39 646.411 490.406C641.999 494.639 644.352 502.564 650.498 503.454C651.906 503.658 653.134 503.021 654.569 502.976C653.477 505.655 645.59 504.775 643.793 503.682C642.202 501.745 643.474 497.716 642.696 495.495C641.959 493.392 646.035 488.106 647.234 487.963C651.037 487.51 650.18 486.537 650.612 483.932Z"/><path fill="white" d="M660.79 499.789C660.1 498.48 660.182 496.898 661.005 495.668C661.827 494.437 663.258 493.757 664.732 493.894C666.205 494.032 667.485 494.966 668.065 496.327C668.914 498.316 668.042 500.62 666.089 501.55C664.136 502.479 661.798 501.702 660.79 499.789Z"/><path fill="#281A1B" fill-opacity="0.97254902" d="M625.034 481.77C632.409 476.133 644.241 476.301 650.21 483.708C644.914 483.363 641.275 477.765 634.248 480.381C633.148 480.79 626.994 481.394 625.034 481.77Z"/><path fill="#281A1B" fill-opacity="0.80392158" d="M687.065 523.719C691.388 524.699 687.801 530.498 686.289 532.805C682.922 537.941 683.665 537.791 678.809 541.577C678.566 541.638 678.033 541.82 677.747 541.753C678.314 538.218 681.533 536.231 682.8 532.883C683.951 529.843 685.412 526.524 687.065 523.719Z"/><path fill="#F5C27A" d="M619.581 407.842C626.791 401.997 630.089 399.612 638.582 395.441C632.004 403.572 626.091 412.22 620.9 421.3C628.973 412.891 639.157 407.271 649.984 403.09C635.677 413.959 623.701 420.477 618.029 438.799C624.079 435.422 627.817 433.459 634.431 431.107C629.892 435.734 621.409 444.096 618.57 449.718C633.159 444.457 643.434 440.287 659.53 441.01C663.248 441.178 666.908 441.225 670.449 442.516L670.898 443.213C669.833 444.074 669.587 443.969 668.199 444.25C668.511 444.609 668.817 445.208 669.061 445.634C684.513 445.768 695.564 451.522 706.247 462.105C701.123 460.226 696.537 458.462 691.181 457.25C701.266 464.028 705.517 466.508 711.81 476.581C706.032 473.749 702.392 471.432 696.928 468.463C705.259 478.396 709.574 483.049 714.043 495.444C708.915 489.954 705.067 485.983 699.45 480.943C701.631 484.984 704.285 489.219 706.389 493.064C711.31 502.057 711.739 504.998 719.349 512.047C709.124 538.87 696.231 556.486 669.138 569.069C641.25 582.021 613.709 574.48 586.051 564.972C584.181 564.33 582.849 563.697 581.428 562.292C583.864 558.328 587.239 555.928 591.861 556.094C601.03 556.423 612.189 559.473 621.173 561.223C650.721 566.976 678.971 554.113 691.434 526.271C693.824 520.931 695.255 515.06 697.39 509.518C700.109 507.099 705.341 504.45 708.674 502.579C691.555 481.975 679.568 462.953 650.082 458.416C619.788 453.754 594.897 472.125 584.294 499.823C580.249 510.391 579.052 518.11 577.618 529.2C560.617 544.271 550.496 568.287 547.541 590.475L545.92 590.943C539.512 563.818 540.533 541.125 546.678 514.261C548.728 521.046 551.267 526.508 554.298 532.82C554.6 510.27 554.987 475.997 568.236 457.455C567.465 464.341 566.944 470.006 567.093 476.932C571.077 467.897 575.851 458.705 583.368 451.994C579.373 460.384 577.67 462.588 574.563 471.907C582.949 461.971 592.022 455.441 603.755 450.158C604.004 444.108 604.712 439.792 605.677 433.867C606.797 430.153 616.998 412.67 619.581 407.842Z"/><path fill="#E8A050" d="M669.061 445.634C667.527 445.482 664.814 444.921 668.199 444.25C668.511 444.609 668.817 445.208 669.061 445.634Z"/><path fill="#FC5B29" d="M491.389 275.288C497.31 267.746 501.32 265.095 509.224 259.478C507.027 268.511 506.642 276.193 506.421 285.335C506.479 286.586 506.872 294.672 506.257 296.142C506.234 296.196 506.13 296.185 506.059 296.164C505.63 296.036 505.449 295.24 505.324 294.834C503.876 291.771 502.84 287.226 501.948 283.849C493.112 303.463 494.334 318.145 503.68 337.483C504.001 331.771 504.371 329.964 505.252 324.482L507.259 324.789C507.259 332.381 511.531 344.752 514.084 352.018C516.549 345.416 518.645 338.728 520.303 331.875C521.211 328.123 521.003 325.226 522.169 321.643C523.736 323.543 524.819 333.939 525.235 336.964C531.862 320.757 536.276 302.318 527.2 286.036C525.872 289.003 525.194 290.915 524.178 294.005L522.411 293.434C522.642 281.183 522.802 271.563 519.415 259.697C528.29 264.054 532.408 268.98 538.189 276.568C538.962 272.117 539.493 269.079 540.758 264.78C542.129 269.723 542.68 273.232 543.439 278.322C551.37 274.582 556.044 274.222 564.788 273.845C535.769 297.429 556.074 346.63 534.907 369.529C535.617 363.464 535.969 359.705 536.003 353.578C526.87 367.236 524.462 374.721 521.375 390.681C519.396 383.595 519.349 379.966 519.732 372.684C510.422 387.55 509.193 407.796 507.63 424.986C506.722 419.93 505.526 413.788 505.205 408.761C503.795 386.674 504.079 373.469 492.421 353.915C492.742 359.364 493.187 364.804 493.753 370.233C471.463 348.354 493.265 299.375 462.704 273.422C472.155 273.972 475.961 274.589 484.962 277.463C485.809 273.346 486.414 269.203 487.299 265.032C488.811 268.462 490.336 271.686 491.389 275.288Z"/><path fill="#FC672E" d="M505.324 294.834C506.318 292.327 505.78 288.707 506.421 285.335C506.479 286.586 506.872 294.672 506.257 296.142C506.234 296.196 506.13 296.185 506.059 296.164C505.63 296.036 505.449 295.24 505.324 294.834Z"/><path fill="#FC5B29" d="M577.627 406.752C583.268 390.83 589.906 378.156 605.083 369.454C601.76 376.179 598.496 382.933 595.293 389.716C602.776 381.622 609.707 377.088 619.842 372.484L619.065 373.982C616.001 379.941 609.971 388.727 606.182 394.601C612.763 388.698 619.267 385.089 627.491 381.934C620.54 391.049 615.742 395.328 609.598 406.108C614.815 401.736 619.802 396.236 625.844 391.182C623.923 396.716 621.597 402.297 619.581 407.842C616.998 412.67 606.797 430.153 605.677 433.867C599.133 440.95 594.538 448.064 589.603 456.306C573.283 437.009 567.818 420.002 572.729 394.859C574.763 398.992 576.031 402.459 577.627 406.752Z"/><path fill="#4D1716" d="M577.434 566.228C578.158 567.115 578.849 567.856 579.608 568.707C579.507 569.371 579.21 571.922 578.69 572.275C577.811 572.108 577.511 567.065 577.434 566.228Z"/><path fill="#F9D89C" d="M545.92 590.943L547.541 590.475C547.463 594.602 547.144 594.833 545.92 590.943Z"/><path fill="#FC672E" d="M505.252 324.482L505.865 322.631C505.968 322.327 506.068 322.07 506.335 321.894C507.079 322.008 507.18 324.276 507.259 324.789L505.252 324.482Z"/><path fill="#FC672E" d="M522.411 293.434L524.178 294.005C523.934 294.471 523.172 296.376 522.717 296.587L522.618 296.54C522.427 296.247 522.418 295.809 522.415 295.462L522.411 293.434Z"/><path fill="#F4873A" d="M634.85 730.218C646.687 727.446 651.797 724.501 661.789 718.157C658.63 723.696 655.623 726.749 651.35 731.437C654.452 730.524 657.545 729.566 660.555 728.391C666.505 726.069 672.001 722.812 677.557 719.701C678.017 719.822 678.476 719.943 678.935 720.063C679.244 722.906 681.023 723.655 683.113 725.086C688.558 728.817 705.868 742.323 706.711 748.754L706.363 749.547C703.814 749.655 699.297 746.711 696.983 745.371C692.158 744.868 695.685 747.297 697.383 750.44C702.261 755.849 705.295 760.939 709.212 766.991C710.762 770.837 711.292 772.126 712.514 776.075C708.476 773.357 704.409 770.681 700.316 768.047L700.304 768.997C700.206 772.088 700.862 771.622 701.902 774.398C702.632 775.499 711.246 784.967 712.423 785.99C715.713 790.419 733.814 813.275 730.296 817.675C728.292 816.835 717.848 807.793 713.586 805.055C711.58 808.852 719.064 820.555 720.832 825.066C728.023 835.466 735.067 843.877 746.647 849.993C750.324 851.935 754.355 852.989 757.968 854.681C756.482 855.902 754.875 857.169 753.475 858.474C749.307 858.095 744.535 856.648 740.418 855.594C739.315 856.894 739.53 857.281 739.744 858.984C741.678 860.725 743.307 862.136 745.372 863.724C749.203 866.671 755.823 869.173 758.199 873.332L758.131 874.407C754.933 877.103 742.161 873.681 737.827 872.913C744.135 879.321 763.313 894.996 765.312 902.478L764.969 903.512C761.327 905.004 753.82 898.483 751.737 900.617C754.716 907.728 769.074 917.45 775.189 922.165C777.935 924.282 785.296 928.21 785.079 931.693C784.523 932.161 784.158 932.691 783.591 932.497C778.165 930.642 769.854 927.101 765.005 924.587C763.165 926.563 765.713 927.95 766.931 930.457L767.339 930.951C773.735 938.548 782.366 943.291 790.737 948.323C791.776 948.947 791.761 949.477 791.938 950.493C788.899 955.599 771.862 948.063 768.511 948.498C768.321 949.689 768.356 950.026 769.054 951.177C779.465 968.351 787.394 986.969 796.723 1004.75C797.185 1005.63 797.174 1006.63 796.923 1007.56C794.496 1008.29 783.392 998.266 781.216 996.064L781.057 996.787C780.214 1000.48 784.279 1006.18 785.793 1010.06C788.342 1014.39 791.376 1019.85 794.048 1024L732.412 1024L705.314 1024L698.652 1024L654.099 1024L374.295 1024L326.943 1024L318.933 1024L295.462 1024L232.387 1024C233.925 1020.35 237.235 1014.37 239.166 1011.01C239.658 1009.42 242.236 1003.81 242.325 1003C242.823 998.483 232.739 1006.03 232.456 1006.52C231.205 1008.69 228.879 1007.67 228.639 1005.53C230.09 1001.04 233.052 996.13 235.175 991.819C239.302 983.439 243.661 975.083 247.824 966.727C250.706 960.944 254.844 954.168 256.985 948.277C252.119 950.141 237.094 954.36 233.075 950.95C233.131 949.696 233.468 949.02 234.669 948.339C246.248 941.776 256.584 934.593 264.28 923.339C260.111 925.31 244.863 933.227 240.771 930.719C240.734 930.329 240.697 929.939 240.659 929.549C247.206 923.981 257.43 916.874 263.63 911.396C268.936 906.708 270.883 904.4 274.089 899.887C270.084 900.525 261.461 904.114 259.252 903.517C259.562 898.057 281.489 879.685 286.346 873.452L286.086 872.877C282.131 872.345 269.429 877.511 265.991 873.667C267.11 870.742 278.193 866.146 281.877 862.726C285.724 859.155 286.246 858.848 289.428 854.284C284.905 855.207 273.348 858.784 269.444 855.425C269.488 855.051 269.533 854.678 269.577 854.305C272.158 852.324 278.352 850.083 281.092 848.566C296.258 840.173 304.037 826.604 311.784 812.073C312.083 809.701 312.747 807.817 311.834 805.588C307.131 808.329 298.873 815.503 294.607 817.436C291.118 811.698 314.017 784.864 318.57 779.865C319.64 778.281 326.82 770.449 325.922 769.103C325.505 768.992 324.388 769.17 323.818 769.156C322.019 770.432 315.208 775.732 313.561 775.383C312.263 769.988 323.571 756.377 327.12 751.956C328.982 748.52 333.39 745.802 328.912 745.177C326.483 746.365 320.87 749.576 318.346 749.024C317.887 743.872 340.835 727.166 344.574 722.673C344.745 721.777 344.886 721.041 344.996 720.465C345.899 720.249 347.012 719.983 348.336 719.667C352.067 721.06 356.738 724.383 360.29 726.084C365.262 728.466 369.553 729.705 374.677 731.106C370.138 726.669 368.304 723.925 364.581 718.827C374.126 723.881 381.736 727.78 392.421 730.106C388.853 726.571 386.35 723.958 383.272 719.962C390.27 722.07 395.326 723.343 402.564 724.809C404.698 726.195 406.807 727.962 408.801 729.56C461.995 772.179 542.75 774.947 600.839 740.571C608.793 735.864 615.757 729.899 622.956 724.301C629.407 724.492 637.794 722.311 643.736 719.866C640.819 722.919 637.609 726.936 634.85 730.218Z"/><path fill="white" d="M533.771 785.905C551.939 784.221 563.043 780.696 578.296 770.377C574.226 775.665 570.353 780.87 565.804 785.761C569.668 785.1 573.517 784.363 577.352 783.552C580.941 783.611 591.139 781.783 595.084 781.159C595.831 781.302 596.389 781.543 597.109 781.801C589.536 786.943 584.096 789.474 575.831 793.304C584.64 796.307 596.548 796.841 605.747 795.807L609.603 796.428C600.149 800.683 590.561 802.725 580.263 803.773C592.112 812.133 602.819 813.805 616.865 815.247C609.415 818.035 607.626 818.127 599.668 818.896C611.546 829.809 629.108 833.835 644.628 836.114C621.831 842.408 605.825 838.61 587.357 824.19C596.854 849.033 605.861 859.417 629.04 871.462C623.404 871.36 618.289 870.84 612.686 870.315C621.397 883.899 626.182 887.428 637.88 898.139C618.784 893.543 605.689 885.35 592.022 871.854C600.527 895.05 617.73 908.188 638.602 919.788C643.934 922.751 651.537 925.95 656.442 929.036C641.999 928.519 636.511 927.635 622.364 924.624C627.633 932.878 636.234 941.584 643.564 948.176C624.524 939.289 615.813 935.256 599.232 921.037C614.271 952.909 642.381 964.378 663.301 991.047C651.772 985.513 628.498 970.19 619.144 961.851C621.193 966.954 623.317 972.409 626.278 977.03C635.477 991.393 652.374 1002.58 666.598 1011.68C650.306 1008.92 642.103 1005.04 627.665 996.655C636.183 1009.38 641.796 1015.18 654.099 1024L374.295 1024C383.811 1017.28 393.182 1006.47 399.201 996.511C384.932 1006.2 378.317 1007.87 361.861 1011.67C365.412 1008.75 372.647 1004.02 376.645 1001.21C393.918 989.058 400.36 980.167 408.913 961.393C393.085 972.656 382.261 981.304 364.555 991.139C383.749 964.149 413.223 954.559 428.461 920.76C414.14 932.875 400.728 941.164 383.235 947.87C392.893 938.75 397.251 935.687 404.559 924.431C389.569 928.128 385.818 928.483 370.305 929.096C376.408 925.455 383.986 922.317 390.276 918.77C411.777 906.644 425.213 894.637 435.171 872.168C419.913 887.271 408.562 892.555 388.579 898.824C397.263 891.964 408.026 880.986 413.156 871.144C408.526 871.032 402.851 871.412 398.154 871.604C402.314 868.849 406.928 866.865 411.157 863.731C426.946 852.033 433.932 840.325 440.495 822.548C423.297 837.993 404.313 842.695 381.889 836.015C398.24 832.966 415.033 830.685 428.817 819.226C421.914 818.188 416.197 816.646 409.441 814.916C424.933 814.163 434.048 812.461 447.159 804.208C435.736 802.768 424.854 800.944 415.005 794.64C428.716 797.398 438.941 796.107 452.143 792.879C443.332 789.333 440.253 787.778 432.374 782.811L431.857 780.712C435.928 781.438 447.548 783.702 451.094 783.609C454.311 784.306 457.62 784.632 460.893 785.034C456.57 780.695 452.529 776.084 448.795 771.229C463.213 780.3 475.179 784.176 492.32 785.729C490.79 784.055 488.999 782.334 487.385 780.714L488.575 778.856C505.499 783.906 525.516 783.365 542.215 777.486C539.146 780.846 537.168 782.918 533.771 785.905Z"/><path fill="#F5C27A" d="M386.388 758.766C396.599 765.044 409.641 771.118 421.389 773.391C417.882 769.476 416.111 767.034 413.89 762.256C421.881 770.241 430.23 774.34 440.547 778.666C443.575 779.936 448.595 781.877 451.094 783.609C447.548 783.702 435.928 781.438 431.857 780.712L432.374 782.811C440.253 787.778 443.332 789.333 452.143 792.879C438.941 796.107 428.716 797.398 415.005 794.64C424.854 800.944 435.736 802.768 447.159 804.208C434.048 812.461 424.933 814.163 409.441 814.916C416.197 816.646 421.914 818.188 428.817 819.226C415.033 830.685 398.24 832.966 381.889 836.015C404.313 842.695 423.297 837.993 440.495 822.548C433.932 840.325 426.946 852.033 411.157 863.731C406.928 866.865 402.314 868.849 398.154 871.604C402.851 871.412 408.526 871.032 413.156 871.144C408.026 880.986 397.263 891.964 388.579 898.824C408.562 892.555 419.913 887.271 435.171 872.168C425.213 894.637 411.777 906.644 390.276 918.77C383.986 922.317 376.408 925.455 370.305 929.096C385.818 928.483 389.569 928.128 404.559 924.431C397.251 935.687 392.893 938.75 383.235 947.87C400.728 941.164 414.14 932.875 428.461 920.76C413.223 954.559 383.749 964.149 364.555 991.139C382.261 981.304 393.085 972.656 408.913 961.393C400.36 980.167 393.918 989.058 376.645 1001.21C372.647 1004.02 365.412 1008.75 361.861 1011.67C378.317 1007.87 384.932 1006.2 399.201 996.511C393.182 1006.47 383.811 1017.28 374.295 1024L326.943 1024L318.933 1024L295.462 1024C309.271 1015.71 329.883 1000.8 335.308 985.093C320.129 1001.42 303.173 1014.89 280.462 1017.23C295.727 1003.59 314.553 993.145 325.151 974.599C306.43 985.808 290.735 989.01 268.915 984.62C277.226 981.176 287.252 979.266 295.732 975.771C319.067 966.157 335.032 954.532 345.334 931.448C330.514 946.539 316.074 962.393 293.205 965.093C291.39 965.136 290.675 965.474 289.345 964.714L290.282 963.598C291.858 963.16 296.074 960.485 297.513 959.537C309.93 951.352 326.965 937.919 334.754 925.594C321.788 931.611 311.975 933.684 297.862 931.053C314.42 923.878 332.052 914.452 342.04 898.587C340.425 899.722 338.801 900.845 337.169 901.956C321.308 912.726 304.608 917.38 285.444 913.717C292.06 910.953 298.925 908.708 305.567 905.748C321.734 898.543 343.53 884.969 351.937 868.97C338.477 879.501 319.38 888.708 302.009 889.173C323.039 872.794 344.791 862.24 359.1 837.086C355.433 839.32 351.182 842.621 347.468 845.065C335.032 853.247 323.697 859.412 309.071 862.493C316.62 855.092 324.747 848.304 333.373 842.193C352.31 828.523 360.09 824.395 373.445 804.49C370.819 806.319 366.335 810.583 363.582 812.738C348.959 824.187 341.273 829.246 323.001 829.003C342.351 814.928 365.353 809.101 380.623 787.837C370.989 792.229 366.28 792.959 355.74 793C372.101 783.434 380.441 784.787 390.901 765.34C389.756 766.21 388.597 767.062 387.425 767.895C372.304 778.656 360.149 780.158 342.192 777.12C361.552 770.945 368.393 768.422 386.388 758.766Z"/><path fill="#F4873A" d="M318.933 1024C323.236 1021.57 326.263 1019.3 330.258 1016.46C328.895 1019.91 328.553 1020.67 326.943 1024L318.933 1024Z"/><path fill="#FEFAEA" d="M432.374 782.811L432.142 782.674C431.723 782.432 429.57 781.382 429.849 780.641C430.423 780.317 431.24 780.563 431.857 780.712L432.374 782.811Z"/><path fill="#F5C27A" d="M640.201 758.824C649.147 765.403 671.559 773.043 682.463 777.903C665.452 778.822 651.396 778.729 637.691 766.507C636.754 765.668 635.826 764.817 634.908 763.956C640.576 778.782 653.663 785.043 667.664 791.317C668.214 791.565 668.767 791.805 669.324 792.037C657.073 792.246 657.236 791.465 645.763 788.609C659.645 808.198 683.816 816.388 702.376 829.052C698.922 829.072 694.582 829.132 691.235 828.613C679.041 826.723 664.246 815.62 655.614 807.145C654.671 806.217 653.775 805.243 652.929 804.226C659.017 821.343 678.535 832.329 692.456 842.274C699.015 846.96 711.501 856.871 716.878 862.43C698.493 859.194 681.339 847.611 666.524 836.569C670.55 849.243 692.418 867.379 703.292 875.028C709.882 879.663 717.148 884.179 723.716 889.111C704.527 888.249 688.388 879.363 672.85 868.728C685.766 888.382 707 901.344 728.72 909.21C730.509 909.858 738.457 912.693 738.832 913.963C735.497 914.915 733.18 914.485 729.88 914.666C712.589 915.617 697.739 907.56 683.851 898.324C697.841 916.514 709.301 922.145 729.191 931.2C715.08 932.577 705.049 932.312 691.775 926.042C701.764 940.977 722.81 955.905 738.317 965.496C720.302 963.86 706.84 957.233 693.277 945.004C689.404 941.513 684.647 935.573 681.168 932.604C686.663 945.491 692.652 952.059 703.45 961.032C719.589 974.443 737.332 978.261 756.864 984.694C735.322 988.622 719.536 986.332 700.982 974.454C710.102 991.453 731.998 1005.49 746.945 1017.45C722.444 1013.48 707.069 1002.97 690.277 984.695C698.316 1003.52 714.561 1015.24 732.412 1024L705.314 1024L698.652 1024L654.099 1024C641.796 1015.18 636.183 1009.38 627.665 996.655C642.103 1005.04 650.306 1008.92 666.598 1011.68C652.374 1002.58 635.477 991.393 626.278 977.03C623.317 972.409 621.193 966.954 619.144 961.851C628.498 970.19 651.772 985.513 663.301 991.047C642.381 964.378 614.271 952.909 599.232 921.037C615.813 935.256 624.524 939.289 643.564 948.176C636.234 941.584 627.633 932.878 622.364 924.624C636.511 927.635 641.999 928.519 656.442 929.036C651.537 925.95 643.934 922.751 638.602 919.788C617.73 908.188 600.527 895.05 592.022 871.854C605.689 885.35 618.784 893.543 637.88 898.139C626.182 887.428 621.397 883.899 612.686 870.315C618.289 870.84 623.404 871.36 629.04 871.462C605.861 859.417 596.854 849.033 587.357 824.19C605.825 838.61 621.831 842.408 644.628 836.114C629.108 833.835 611.546 829.809 599.668 818.896C607.626 818.127 609.415 818.035 616.865 815.247C602.819 813.805 592.112 812.133 580.263 803.773C590.561 802.725 600.149 800.683 609.603 796.428L605.747 795.807C596.548 796.841 584.64 796.307 575.831 793.304C584.096 789.474 589.536 786.943 597.109 781.801C596.389 781.543 595.831 781.302 595.084 781.159C591.139 781.783 580.941 783.611 577.352 783.552C580.435 781.44 588.334 777.832 592.176 775.918C600.089 772.017 607.518 767.202 614.31 761.572C611.411 765.723 608.469 769.422 605.338 773.384C618.921 770.365 628.921 767.243 640.201 758.824Z"/><path fill="#F4873A" d="M695.78 1016.83C699.074 1018.86 702.157 1021.64 705.314 1024L698.652 1024C697.702 1022.05 696.763 1019.11 695.78 1016.83Z"/><path fill="#FEFAEA" d="M595.084 781.159C596.048 780.869 600.542 779.995 597.109 781.801C596.389 781.543 595.831 781.302 595.084 781.159Z"/><path fill="#FEFAEA" d="M605.747 795.807C606.389 795.718 610.029 795.052 610.355 795.795C610.186 796.075 609.861 796.237 609.603 796.428L605.747 795.807Z"/><path fill="#35173A" d="M247.293 993.079L248.08 994.787C245.558 999.701 242.381 1006.57 239.166 1011.01C239.658 1009.42 242.236 1003.81 242.325 1003C242.823 998.483 232.739 1006.03 232.456 1006.52C231.205 1008.69 228.879 1007.67 228.639 1005.53C232.898 1006.61 244.164 996.363 247.293 993.079Z"/><path fill="#441628" d="M323.818 769.156C324.952 767.781 334.006 762.559 336.153 761.318C332.943 764.95 322.088 777.109 318.57 779.865C319.64 778.281 326.82 770.449 325.922 769.103C325.505 768.992 324.388 769.17 323.818 769.156Z"/><path fill="#35173A" d="M709.616 801.724C710.578 802.479 712.988 804.158 713.586 805.055C711.58 808.852 719.064 820.555 720.832 825.066C716.923 820.746 711.741 807.486 709.616 801.724Z"/><path fill="#35173A" d="M689.979 761.65C693.351 763.67 697.044 765.871 700.316 768.047L700.304 768.997C700.206 772.088 700.862 771.622 701.902 774.398C698.628 771.358 693.573 765.329 689.979 761.65Z"/><path fill="#441628" d="M328.912 745.177C329.655 744.404 337.924 739.837 339.444 738.959C336.844 741.935 330.062 749.403 327.12 751.956C328.982 748.52 333.39 745.802 328.912 745.177Z"/><path fill="#441628" d="M775.506 990.155C777.044 991.747 779.915 994.495 781.216 996.064L781.057 996.787C780.214 1000.48 784.279 1006.18 785.793 1010.06C782.757 1006.38 777.552 994.742 775.506 990.155Z"/><path fill="#35173A" d="M690.508 741.783C692.355 742.825 695.336 744.285 696.983 745.371C692.158 744.868 695.685 747.297 697.383 750.44C694.795 748.149 692.531 745.272 689.788 742.723L690.508 741.783Z"/><path fill="#35173A" d="M732.17 850.987C735.152 852.794 737.311 854.017 740.418 855.594C739.315 856.894 739.53 857.281 739.744 858.984C737.204 856.846 734.369 853.528 732.17 850.987Z"/><path fill="#35173A" d="M758.834 920.789C760.851 922.047 763.038 923.269 765.005 924.587C763.165 926.563 765.713 927.95 766.931 930.457C764.035 928.174 760.925 923.869 758.834 920.789Z"/><path fill="#441628" d="M311.834 805.588C312.511 804.779 315.16 803.265 316.202 802.605C315.951 803.235 315.7 803.865 315.449 804.496C314.415 807.108 313.19 809.64 311.784 812.073C312.083 809.701 312.747 807.817 311.834 805.588Z"/><path fill="#4D1716" d="M247.293 993.079C247.789 992.49 248.88 991.017 249.639 990.897C250.259 991.279 248.289 994.419 248.08 994.787L247.293 993.079Z"/><path fill="#FEFAEA" d="M487.385 780.714C484.247 777.554 484.773 777.822 488.575 778.856L487.385 780.714Z"/><path fill="#4D1716" d="M689.788 742.723C689.465 742.437 687.312 740.751 687.481 740.276C688.099 740.041 689.973 741.459 690.508 741.783L689.788 742.723Z"/><path fill="#280C49" fill-opacity="0.70980394" d="M709.212 766.991C711.016 769.025 714.582 774.349 711.098 776.694C706.7 779.655 711.153 783.4 712.423 785.99C711.246 784.967 702.632 775.499 701.902 774.398C700.862 771.622 700.206 772.088 700.304 768.997L700.316 768.047C704.409 770.681 708.476 773.357 712.514 776.075C711.292 772.126 710.762 770.837 709.212 766.991Z"/><path fill="#35173A" fill-opacity="0.98823529" d="M206.031 504.646L206.645 504.389C210.105 502.893 213.84 501.65 217.47 500.044C207.799 510.165 194.172 517.844 179.791 514.562C188.392 514.391 191.579 513.82 199.488 510.251C200.742 509.708 201.562 509.198 202.866 508.739C204.332 508.343 205.768 508.057 207.223 507.423C207.748 507.194 210.127 505.468 208.207 505.166C207.956 505.161 207.705 505.157 207.455 505.153L206.031 504.646Z"/><path fill="#280C49" fill-opacity="0.98823529" d="M261.07 673.491C263.967 674.156 266.864 675.396 269.546 676.657C264.714 677.379 260.126 678.12 255.251 678.543C252.818 678.755 247.44 678.918 245.479 679.553C245.058 677.925 244.908 677.211 244.707 675.508L246.456 675.927C248.568 676.482 249.853 677.434 252.249 677.374C254.93 677.305 261.442 677.37 261.07 673.491Z"/><path fill="#280C49" fill-opacity="0.84313726" d="M574.924 261.256C579.003 261.331 583.484 261.276 587.575 261.249C590.072 262.931 592.541 263.691 595.498 264.086L598.25 264.451C599.489 264.604 600.629 265.144 601.788 265.573C598.432 265.213 595.364 264.601 591.89 264.239C590.849 263.922 589.741 263.944 588.664 263.847C581.762 263.124 575.29 263.632 568.422 263.796C570.751 262.788 572.584 262.133 574.924 261.256Z"/><path fill="#280C49" fill-opacity="0.73333335" d="M284.945 701.254C289.045 700.912 296.621 698.172 298.143 702.971C293.803 703.99 289.367 704.29 285.008 705.278C285.084 704.717 285.149 704.21 285.207 703.644C285.775 703.478 287.14 703.189 287.571 702.98C289.314 702.135 287.604 701.609 286.691 701.553L285.257 701.458L284.945 701.254Z"/><path fill="#280C49" fill-opacity="0.98039216" d="M574.924 261.256C577.923 260.154 581.15 258.825 584.257 258.089C586.52 257.568 588.8 257.123 591.093 256.752C590.67 259.949 590.509 259.948 587.575 261.249C583.484 261.276 579.003 261.331 574.924 261.256Z"/><path fill="#280C49" fill-opacity="0.98823529" d="M220.376 618.153C222.072 618.763 224.253 620.041 226.132 620.854L225.576 622.587C218.592 622.316 212.959 621.678 206.232 619.44C208.524 619.523 219.74 621.901 220.376 618.153Z"/><path fill="#35173A" fill-opacity="0.98823529" d="M796.382 454.541C799.72 456.958 805.114 460.57 807.974 462.931C805.071 463.368 805.796 464.448 806.439 467.129C802.605 463.718 799.059 458.916 796.382 454.541Z"/><path fill="#280C49" fill-opacity="0.086274512" d="M822.369 505.652C825.58 505.814 828.142 506.715 831.593 506.606C826.647 509.004 825.377 506.981 825.03 512.037C822.892 510.862 820.406 509.623 818.215 508.484C821.183 508.203 822.076 508.864 822.369 505.652Z"/><path fill="#280C49" fill-opacity="0.98823529" d="M192.491 505.971C195.427 507.154 202.807 505.229 206.031 504.646L207.455 505.153C204.801 505.626 203.36 505.982 200.998 507.399C198.858 509.471 197.496 508.895 194.456 509.376C192.604 508.07 192.157 508.211 192.491 505.971Z"/><path fill="#280C49" fill-opacity="0.062745102" d="M217.966 616.859C219.019 617.286 219.397 617.557 220.376 618.153C219.74 621.901 208.524 619.523 206.232 619.44L204.83 619.025C205.269 618.985 208.172 618.833 208.299 618.721C208.229 618.49 208.158 618.258 208.088 618.026L208.192 617.844C210.78 618.421 211.31 619.628 213.825 618.188C215.483 617.238 215.992 620.497 217.966 616.859Z"/><path fill="#35173A" fill-opacity="0.98823529" d="M804.726 103.569L805.165 104.064C805.922 104.985 807.016 105.423 808.075 105.914C805.555 107.287 802.938 108.473 800.246 109.464L798.28 110.167C800.498 107.686 802.781 106.065 804.726 103.569Z"/><path fill="#35173A" fill-opacity="0.98823529" d="M488.08 242.295L488.769 244.34C489.133 245.417 489.582 245.481 490.556 245.813C490.147 246.452 488.211 247.988 487.471 248.651L484.714 249.539C485.8 247.09 486.956 244.722 488.08 242.295Z"/><path fill="#280C49" fill-opacity="0.043137256" d="M207.455 505.153C207.705 505.157 207.956 505.161 208.207 505.166C210.127 505.468 207.748 507.194 207.223 507.423C205.768 508.057 204.332 508.343 202.866 508.739L200.998 507.399C203.36 505.982 204.801 505.626 207.455 505.153Z"/><path fill="#280C49" fill-opacity="0.29411766" d="M194.456 509.376C197.496 508.895 198.858 509.471 200.998 507.399L202.866 508.739C201.562 509.198 200.742 509.708 199.488 510.251C197.52 508.941 196.823 509.813 194.456 509.376Z"/><path fill="#280C49" fill-opacity="0.28627452" d="M219.544 463.319C220.442 460.015 225.467 459.667 220.401 464.826L219.544 463.319Z"/><path fill="#280C49" fill-opacity="0.72941178" d="M244.707 675.508L244.805 674.502L244.888 673.487C244.944 672.857 245.318 670.606 246.252 672.426C246.426 672.765 246.426 675.395 246.456 675.927L244.707 675.508Z"/><path fill="#280C49" fill-opacity="0.45882353" d="M285.257 701.458L286.691 701.553C287.604 701.609 289.314 702.135 287.571 702.98C287.14 703.189 285.775 703.478 285.207 703.644L285.257 701.458Z"/></svg>