<?xml version="1.0" encoding="utf-8" ?><svg xmlns="http://www.w3.org/2000/svg" xmlns:xlink="http://www.w3.org/1999/xlink" width="1024" height="1024" viewBox="0 0 1024 1024"><path fill="#F7F0DC" d="M315.785 143.858C321.862 137.556 336.809 139.838 342.371 136.353C353.766 129.216 364.627 123.215 376.783 117.407C401.835 105.543 428.343 97.0346 455.62 92.1028C471.735 89.3147 492.315 86.7443 508.506 86.7454C554.704 86.7485 600.485 96.2783 642.401 115.804C654.727 121.546 665.553 128.444 677.145 135.398C683.976 139.471 698.414 137.49 703.92 143.264C703.744 144.993 703.631 147.175 703.084 148.78C698.584 148.346 698.442 148.253 693.825 148.643C692.84 149.303 692.4 148.73 691.392 149.085C691.185 149.549 692.268 149.606 691.94 151.001C691.227 154.032 699.628 151.247 702.559 151.302C710.237 155.485 722.062 155.576 730.295 157.54C743.796 160.76 763.324 167.525 775.294 174.059C777.633 175.335 792.153 185.7 794.684 187.719C796.497 188.662 798.696 189.565 799.488 191.465C798.73 192.349 799.145 192.037 798.32 192.492C796.043 191.478 795.76 191.499 793.325 190.76C787.966 189.063 767.631 190.529 761.669 191.487C780 195.908 793.673 203.166 809.861 212.602C814.003 215.017 821.973 222.644 825.015 223.246C828.089 226.061 835.6 232.911 836.893 236.546L836.677 237.027L834.909 236.514C832.41 235.033 830.655 234.309 828.07 233.179C819.799 227.196 801.097 226.004 791.048 225.465C804.669 231.802 817.318 240.049 828.611 249.957C835.619 256.027 842.497 263.373 849.077 269.939C851.831 272.687 853.46 276.719 855.997 277.777L855.424 276.383L855.64 276.945C854.742 275.276 854.678 275.352 854.755 273.362C857.156 277.223 859.275 282.335 860.513 286.715C861.94 290.625 864.191 296.057 865.266 299.807C861.87 299.111 863.076 297.112 860.719 303.729C862.064 306.846 863.333 307.655 865.925 309.261C869.758 318.136 871.068 321.545 873.353 330.928C875.747 333.731 880.803 337.525 883.797 339.918C909.86 360.746 944.012 367.041 962.574 397.333C949.216 394.47 936.962 391.577 923.211 392.507C934.436 402.026 943.21 413.467 947.588 427.733C953.697 447.645 951.42 479.131 937.03 495.187C936.562 481.067 935.56 473.849 924.716 463.489C927.428 487.425 927.28 503.701 912.181 524.27C877.696 571.246 815.498 563.094 835.778 637.499C840.729 657.851 822.083 658.491 808.117 652.807C783.701 642.87 771.765 624.942 761.525 601.769C756.389 606.625 751.958 613.765 746.97 619.25C733.908 633.615 719.534 644.617 703.908 656.077C704.862 675.03 714.149 702.146 721.982 719.605C726.255 729.129 731.893 738.386 735.584 748.549C750.523 789.129 741.908 834.638 713.172 866.951C689.546 893.055 661.807 906.492 627.633 914.602C618.17 916.847 607.96 917.585 598.975 919.596C590.332 923.022 580.276 928.848 571.699 932.909C549.621 943.36 528.6 944.553 504.633 944.323C480.374 944.09 457.547 937.493 436.557 925.274C432.578 922.958 428.024 919.93 423.714 918.505C421.009 917.963 417.775 917.54 415.049 917.198C368.831 911.392 326.695 891.828 299.542 852.53C275.599 819.67 276.235 771.365 294.276 735.772C307.84 709.013 315.338 686.91 321.179 656.63C318.631 654.595 315.896 652.727 313.192 650.782C297.188 639.269 281.72 626.075 269.03 610.94C266.8 608.28 265.035 604.624 263.318 601.626C253.52 624.599 241.573 642.12 217.881 652.248C203.712 658.306 184.457 658.302 189.181 637.175C190.782 630.557 191.756 626.805 192.517 620.076C194.927 598.789 187.256 580.747 169.515 568.549C162.541 563.762 154.583 559.727 147.509 555.147C121.371 538.226 98.0521 514.321 98.0875 481.209C98.0932 475.935 99.1517 469.534 99.736 464.148C99.0505 464.706 98.3757 465.278 97.7122 465.863C89.2198 473.409 88.0167 483.281 87.3909 493.81C68.3764 471 70.2442 429.406 88.0076 406.488C91.7819 401.619 96.9066 396.843 101.325 392.511C87.5537 391.899 75.7584 394.758 62.4487 397.573C83.6249 366.445 107.403 364.677 135.809 343.568C140.798 339.86 146.665 335.508 150.747 330.892C152.585 326.372 153.051 321.816 154.716 317.109C155.263 315.162 157.353 308.968 157.483 307.497C158.261 298.693 162.598 295.121 164.339 286.607C165.154 282.194 166.452 279.506 169.094 275.824C169.812 274.726 172.152 271.051 173.018 270.399C173.196 270.676 173.344 271.126 173.685 271.216C173.714 271.208 175.816 269.789 176.332 269.536C179.722 266.745 184.59 259.633 188.727 255.938C201.955 244.126 216.616 233.657 232.368 225.496C223.341 225.419 211.744 227.009 203.239 230.088C199.087 231.591 195.17 233.609 191.11 235.056L190.722 235.192C190.45 235.212 190.179 235.232 189.907 235.252C189.523 234.501 192.118 232.578 192.598 230.827L192.852 229.954C193.211 228.966 195.374 226.683 196.152 225.872C199.688 219.396 214.66 203.02 220.834 198.957C221.236 197.128 221.745 195.614 221.596 193.729C223.129 189.757 224.327 189.784 228.141 188.287C233.25 185.252 238.369 180.178 242.885 177.512C253.218 171.412 266.516 166.325 277.681 162.004C286.805 158.473 304.827 157.196 310.653 151.348C313.191 151.557 315.021 152.152 317.248 152.346C320.102 152.595 322.534 151.842 325.738 152.143C328.176 151.319 329.777 150.761 332.107 149.67C329.728 147.56 321.75 141.734 320.028 147.065C319.895 146.717 319.769 146.366 319.649 146.013C318.944 143.875 317.924 144.254 315.785 143.858ZM766.782 313.477C765.917 309.706 765.02 305.887 763.613 302.271L763.348 301.563C761.475 299.912 759.732 298.523 759.098 296.001C758.677 294.467 758.148 292.538 757.015 291.377C756.914 291.273 753.518 293.25 753.445 293.31C753.233 294.065 754.819 295.127 752.568 296.099C751.816 296.423 751.608 298.074 751.434 298.8C750.602 299.652 749.841 300.115 748.733 300.542C746.775 301.297 750.394 304.558 751.35 306.965C752.132 308.044 753.363 309.038 754.369 309.938C758.792 314.229 761.305 317.797 765.217 322.134C766.908 321.342 765.417 317.102 766.467 314.336L766.782 313.477ZM263.734 364.855L259.159 375.899C258.249 374.109 258.58 372.344 258.435 370.284C258.32 360.623 263.211 338.148 267.346 329.128C270.296 319.062 277.802 306.995 283.667 298.244C274.626 304.754 269.769 309.972 262.173 317.893C262.011 317.754 261.849 317.616 261.687 317.477C261.588 317.501 260.915 317.952 260.738 318.039L260.657 317.884C261.106 317.302 261.268 317.4 261.259 316.581L261.236 314.892C262.614 311.894 260.704 311.405 258.224 310.237C265.844 285.39 277.862 265.715 298.69 249.61L298.322 248.709C287.984 253.192 280.821 257.463 272.095 264.625C273.343 262.919 274.639 261.074 275.968 259.445C279.179 255.606 282.225 252.41 285.672 248.78C286.77 248.117 289.619 245.351 290.646 244.344C303.518 231.721 319.636 225.08 336.044 218.244C323.978 211.763 305.173 210.667 291.603 211.36C298.169 208.699 305.097 204.91 311.687 202.026C320.447 198.191 328.376 195.709 337.518 193.024C310.275 177.533 278.004 175.498 248.144 183.674C244.386 184.703 231.076 189.05 228.141 188.287C224.327 189.784 223.129 189.757 221.596 193.729C221.745 195.614 221.236 197.128 220.834 198.957C214.66 203.02 199.688 219.396 196.152 225.872C195.374 226.683 193.211 228.966 192.852 229.954L192.598 230.827C192.118 232.578 189.523 234.501 189.907 235.252C190.179 235.232 190.45 235.212 190.722 235.192L191.11 235.056C195.17 233.609 199.087 231.591 203.239 230.088C211.744 227.009 223.341 225.419 232.368 225.496C216.616 233.657 201.955 244.126 188.727 255.938C184.59 259.633 179.722 266.745 176.332 269.536C175.816 269.789 173.714 271.208 173.685 271.216C173.344 271.126 173.196 270.676 173.018 270.399C172.152 271.051 169.812 274.726 169.094 275.824C166.452 279.506 165.154 282.194 164.339 286.607C162.598 295.121 158.261 298.693 157.483 307.497C157.353 308.968 155.263 315.162 154.716 317.109C153.051 321.816 152.585 326.372 150.747 330.892C146.665 335.508 140.798 339.86 135.809 343.568C107.403 364.677 83.6249 366.445 62.4487 397.573C75.7584 394.758 87.5537 391.899 101.325 392.511C96.9066 396.843 91.7819 401.619 88.0076 406.488C70.2442 429.406 68.3764 471 87.3909 493.81C88.0167 483.281 89.2198 473.409 97.7122 465.863C98.3757 465.278 99.0505 464.706 99.736 464.148C99.1517 469.534 98.0932 475.935 98.0875 481.209C98.0521 514.321 121.371 538.226 147.509 555.147C154.583 559.727 162.541 563.762 169.515 568.549C187.256 580.747 194.927 598.789 192.517 620.076C191.756 626.805 190.782 630.557 189.181 637.175C184.457 658.302 203.712 658.306 217.881 652.248C241.573 642.12 253.52 624.599 263.318 601.626C275.61 561.961 271.931 527.844 260.509 488.576C267.325 462.864 266.775 425.86 267.165 399.015L265.281 398.498C264.224 401.331 263.129 404.14 262.264 407.038C261.144 405.045 261.626 403.413 261.429 400.737C261.272 387.525 263.23 376.419 266.275 363.705L265.247 361.614L263.734 364.855ZM670.548 747.781C669.427 750.229 669.049 750.311 670.711 752.346C671.486 750.447 672.298 749.239 670.548 747.781ZM686.394 153.723C687.651 153.573 689.981 153.495 691.193 152.884C692.021 152.467 691.509 150.586 691.194 150.027C691.094 149.847 689.884 149.844 690.115 149.82C690.066 149.814 690.017 149.808 689.967 149.801C688.684 150.693 683.065 153.31 686.394 153.723ZM609.442 403.671C622.488 411.978 633.493 422.587 650.278 422.352C672.304 422.045 679.262 411.132 692.615 398.035C694.449 396.213 696.054 394.908 698.032 393.269C699.936 391.308 702.787 388.942 705.065 387.455C701.959 373.064 696.575 360.461 686.348 349.723C648.18 309.651 595.641 341.715 594.846 392.251L594.507 392.992C599.516 396.498 604.578 399.971 609.442 403.671ZM374.809 343.836C355.267 344.835 340.22 361.464 341.173 381.008C342.125 400.553 358.718 415.639 378.265 414.733C397.878 413.825 413.026 397.164 412.071 377.553C411.115 357.942 394.418 342.833 374.809 343.836ZM261.942 364.463C266.018 357.889 263.289 351.056 262.335 354.359C261.967 356.493 258.307 365.56 261.942 364.463Z"/><defs><linearGradient id="gradient_0" gradientUnits="userSpaceOnUse" x1="757.44708" y1="308.92538" x2="754.91699" y2="293.76416"><stop offset="0" stop-color="#F9F2DE" stop-opacity="0.70588237"/><stop offset="1" stop-color="#FAF0DB" stop-opacity="0.84705883"/></linearGradient></defs><path fill="url(#gradient_0)" d="M751.434 298.8C751.608 298.074 751.816 296.423 752.568 296.099C754.819 295.127 753.233 294.065 753.445 293.31C753.518 293.25 756.914 291.273 757.015 291.377C758.148 292.538 758.677 294.467 759.098 296.001C759.732 298.523 761.475 299.912 763.348 301.563L763.613 302.271C765.02 305.887 765.917 309.706 766.782 313.477L766.467 314.336C765.417 317.102 766.908 321.342 765.217 322.134C761.305 317.797 758.792 314.229 754.369 309.938C754.141 307.566 751.489 306.981 751.563 304.463C751.655 301.276 759.46 298.548 751.434 298.8ZM764.504 318.931L764.843 318.114C766.162 315.309 766.288 311.859 762.355 311.957L761.792 312.469C759.006 314.643 762.703 317.653 764.504 318.931Z"/><path fill="#FCECD1" fill-opacity="0.32549021" d="M762.355 311.957C766.288 311.859 766.162 315.309 764.843 318.114L764.504 318.931C762.703 317.653 759.006 314.643 761.792 312.469L762.355 311.957Z"/><path fill="#FCECD1" fill-opacity="0.80784315" d="M751.434 298.8C759.46 298.548 751.655 301.276 751.563 304.463C751.489 306.981 754.141 307.566 754.369 309.938C753.363 309.038 752.132 308.044 751.35 306.965C750.394 304.558 746.775 301.297 748.733 300.542C749.841 300.115 750.602 299.652 751.434 298.8Z"/><path fill="#FCECD1" fill-opacity="0.98823529" d="M257.217 314.954C259.414 318.656 257.332 321.346 261.236 314.892L261.259 316.581C261.268 317.4 261.106 317.302 260.657 317.884L260.738 318.039C260.915 317.952 261.588 317.501 261.687 317.477C261.849 317.616 262.011 317.754 262.173 317.893C260.964 319.895 258.795 321.994 257.38 324.109L255.273 324.632C255.814 321.385 256.485 318.163 257.217 314.954Z"/><path fill="#FCECD1" fill-opacity="0.88235295" d="M257.217 314.954C257.507 313.274 257.923 311.855 258.224 310.237C260.704 311.405 262.614 311.894 261.236 314.892C257.332 321.346 259.414 318.656 257.217 314.954Z"/><path fill="#FCDAA1" d="M303.619 377.409C301.851 391.983 302.199 398.5 304.897 412.927C302.257 416.497 298.043 421.346 295.934 425.081C280.188 452.978 280.651 478.58 286.878 508.785C296.714 495.383 309.007 482.941 325.864 478.978C308.745 489.32 297.103 507.507 292.346 526.697C285.987 552.29 290.012 579.359 303.541 601.994C311.062 614.501 322.827 627.017 333.573 636.844C329.386 621.261 328.725 602.487 337.303 588.186C337.863 587.252 338.462 586.341 339.099 585.456C342.285 616.344 356.642 635.65 380.058 655.381C386.118 660.488 404.699 672.481 412.02 675.736L412.776 677.656C424.476 690.549 443.191 706.613 460.138 711.344C490.321 725.077 526.936 725.555 557.829 713.901C559.882 713.136 561.907 712.298 563.9 711.388C580.226 706.546 597.918 690.915 609.747 679.068L611.486 675.856C619.618 671.658 627.447 666.897 634.914 661.607C662.263 642.455 679.786 619.111 685.579 585.965C695.818 602.69 694.721 617.959 691.254 636.09C698.73 630.533 704.532 623.467 710.318 616.281C744.53 573.794 744.673 513.464 698.873 479.031C717.142 485.365 726.856 493.606 737.136 509.989C737.533 503.645 740.387 494.271 741.051 487.03C743.663 458.515 735.832 434.46 718.357 412.341C721.997 401.395 721.131 389.217 720.071 377.887C730.374 384.387 739.293 402.557 741.869 414.135C743.695 422.344 744.097 431.465 744.238 439.851C751.025 423.45 752.594 402.025 752.487 384.24C754.246 388.656 755.468 390.516 757.891 394.617C757.056 425.435 758.111 457.605 763.734 487.917C764.335 491.161 759.12 507.952 758.172 512.477C751.919 542.338 751.637 572.602 761.525 601.769C756.389 606.625 751.958 613.765 746.97 619.25C733.908 633.615 719.534 644.617 703.908 656.077C704.862 675.03 714.149 702.146 721.982 719.605C726.255 729.129 731.893 738.386 735.584 748.549C750.523 789.129 741.908 834.638 713.172 866.951C689.546 893.055 661.807 906.492 627.633 914.602C618.17 916.847 607.96 917.585 598.975 919.596C590.332 923.022 580.276 928.848 571.699 932.909C549.621 943.36 528.6 944.553 504.633 944.323C480.374 944.09 457.547 937.493 436.557 925.274C432.578 922.958 428.024 919.93 423.714 918.505C421.009 917.963 417.775 917.54 415.049 917.198C368.831 911.392 326.695 891.828 299.542 852.53C275.599 819.67 276.235 771.365 294.276 735.772C307.84 709.013 315.338 686.91 321.179 656.63C318.631 654.595 315.896 652.727 313.192 650.782C297.188 639.269 281.72 626.075 269.03 610.94C266.8 608.28 265.035 604.624 263.318 601.626C275.61 561.961 271.931 527.844 260.509 488.576C267.325 462.864 266.775 425.86 267.165 399.015L265.281 398.498C265.815 397.283 266.272 396.09 266.761 394.857C268.282 391.828 270.183 388.623 271.869 385.652C271.706 404.193 272.181 421.122 279.241 438.742C278.528 425.689 281.629 411.933 286.873 400.001C289.758 393.436 297.301 381.015 303.619 377.409ZM670.711 752.346C671.486 750.447 672.298 749.239 670.548 747.781C669.427 750.229 669.049 750.311 670.711 752.346Z"/><path fill="#F7F0DC" d="M675.443 733.77C674.335 796.265 661.722 858.968 614.861 904.161C612.082 906.871 609.19 909.461 606.193 911.926C604.044 913.662 600.203 916.101 598.705 918.049C598.784 918.717 598.764 918.964 598.975 919.596C590.332 923.022 580.276 928.848 571.699 932.909C549.621 943.36 528.6 944.553 504.633 944.323C480.374 944.09 457.547 937.493 436.557 925.274C432.578 922.958 428.024 919.93 423.714 918.505C421.333 915.322 414.687 910.676 411.448 907.813C375.87 876.361 356.844 830.166 350.38 783.877C348.098 767.501 347.35 750.147 346.422 733.396C352.753 746.144 358.522 758.459 366.198 770.479C387.993 804.607 421.003 833.291 459.605 846.404C500.092 860.066 544.346 857.1 582.648 838.158C622.72 818.13 651.157 782.902 670.641 743.365C672.194 740.214 673.787 736.855 675.443 733.77ZM670.711 752.346C671.486 750.447 672.298 749.239 670.548 747.781C669.427 750.229 669.049 750.311 670.711 752.346Z"/><path fill="#FCECD1" fill-opacity="0.88235295" d="M670.548 747.781C672.298 749.239 671.486 750.447 670.711 752.346C669.049 750.311 669.427 750.229 670.548 747.781Z"/><path fill="#C9A87C" d="M696.134 660.562C693.025 666.5 688.758 672.106 684.737 677.48C667.815 700.393 647.085 720.231 623.451 736.13C522.968 803.309 410.006 770.739 339.172 678.4C334.718 672.593 331.051 666.448 326.998 660.378C362.79 679.95 380.929 687.149 421.531 695.331C416.828 688.07 415.155 685.92 412.776 677.656C424.476 690.549 443.191 706.613 460.138 711.344C490.321 725.077 526.936 725.555 557.829 713.901C559.882 713.136 561.907 712.298 563.9 711.388C580.226 706.546 597.918 690.915 609.747 679.068C608.894 684.451 605.009 690.456 602.214 695.222C634.109 690.835 668.568 676.888 696.134 660.562Z"/><path fill="#8B5E3C" d="M266.761 394.857C267.085 396.631 267.114 397.186 267.165 399.015L265.281 398.498C265.815 397.283 266.272 396.09 266.761 394.857Z"/><path fill="#FCDAA1" d="M228.141 188.287C231.076 189.05 244.386 184.703 248.144 183.674C278.004 175.498 310.275 177.533 337.518 193.024C328.376 195.709 320.447 198.191 311.687 202.026C305.097 204.91 298.169 208.699 291.603 211.36C305.173 210.667 323.978 211.763 336.044 218.244C319.636 225.08 303.518 231.721 290.646 244.344C289.619 245.351 286.77 248.117 285.672 248.78C282.225 252.41 279.179 255.606 275.968 259.445C274.639 261.074 273.343 262.919 272.095 264.625C280.821 257.463 287.984 253.192 298.322 248.709L298.69 249.61C277.862 265.715 265.844 285.39 258.224 310.237C257.923 311.855 257.507 313.274 257.217 314.954C256.485 318.163 255.814 321.385 255.273 324.632L257.38 324.109C258.795 321.994 260.964 319.895 262.173 317.893C269.769 309.972 274.626 304.754 283.667 298.244C277.802 306.995 270.296 319.062 267.346 329.128C263.211 338.148 258.32 360.623 258.435 370.284C258.58 372.344 258.249 374.109 259.159 375.899L263.734 364.855L265.247 361.614L266.275 363.705C263.23 376.419 261.272 387.525 261.429 400.737C261.626 403.413 261.144 405.045 262.264 407.038C263.129 404.14 264.224 401.331 265.281 398.498L267.165 399.015C266.775 425.86 267.325 462.864 260.509 488.576C271.931 527.844 275.61 561.961 263.318 601.626C253.52 624.599 241.573 642.12 217.881 652.248C203.712 658.306 184.457 658.302 189.181 637.175C190.782 630.557 191.756 626.805 192.517 620.076C194.927 598.789 187.256 580.747 169.515 568.549C162.541 563.762 154.583 559.727 147.509 555.147C121.371 538.226 98.0521 514.321 98.0875 481.209C98.0932 475.935 99.1517 469.534 99.736 464.148C99.0505 464.706 98.3757 465.278 97.7122 465.863C89.2198 473.409 88.0167 483.281 87.3909 493.81C68.3764 471 70.2442 429.406 88.0076 406.488C91.7819 401.619 96.9066 396.843 101.325 392.511C87.5537 391.899 75.7584 394.758 62.4487 397.573C83.6249 366.445 107.403 364.677 135.809 343.568C140.798 339.86 146.665 335.508 150.747 330.892C152.585 326.372 153.051 321.816 154.716 317.109C155.263 315.162 157.353 308.968 157.483 307.497C158.261 298.693 162.598 295.121 164.339 286.607C165.154 282.194 166.452 279.506 169.094 275.824C169.812 274.726 172.152 271.051 173.018 270.399C173.196 270.676 173.344 271.126 173.685 271.216C173.714 271.208 175.816 269.789 176.332 269.536C179.722 266.745 184.59 259.633 188.727 255.938C201.955 244.126 216.616 233.657 232.368 225.496C223.341 225.419 211.744 227.009 203.239 230.088C199.087 231.591 195.17 233.609 191.11 235.056L190.722 235.192C190.45 235.212 190.179 235.232 189.907 235.252C189.523 234.501 192.118 232.578 192.598 230.827L192.852 229.954C193.211 228.966 195.374 226.683 196.152 225.872C199.688 219.396 214.66 203.02 220.834 198.957C221.236 197.128 221.745 195.614 221.596 193.729C223.129 189.757 224.327 189.784 228.141 188.287ZM187.861 278.494C191.433 275.428 188.805 276.203 193.532 274.295C194.372 274.443 194.475 275.507 195.466 274.892C196.368 272.866 194.104 272.316 192.476 271.963C185.693 273.455 181.218 274.969 174.808 278.054C172.576 279.385 171.214 280.14 169.16 281.8L168.966 282.272C168.634 284.272 166.593 293.725 174.262 291.593C174.927 291.409 176.93 289.418 178.46 288.64C178.891 288.328 179.317 288.009 179.738 287.683L180.074 287.069C180.689 285.92 181.292 284.889 181.918 283.759C184.343 281.766 184.883 280.167 187.861 278.494Z"/><path fill="#FCECD1" fill-opacity="0.84313726" d="M174.808 278.054C181.218 274.969 185.693 273.455 192.476 271.963C194.104 272.316 196.368 272.866 195.466 274.892C194.475 275.507 194.372 274.443 193.532 274.295C188.805 276.203 191.433 275.428 187.861 278.494C184.883 280.167 184.343 281.766 181.918 283.759C181.616 284.002 180.404 284.967 180.226 285.228C178.571 287.659 177.279 286.973 176.242 287.473L176.246 287.509L176.41 287.572C175.221 288.392 174.258 289.202 173.209 290.215C173.089 290.33 172.779 290.189 172.743 290.147C171.87 289.131 169.373 287.566 168.417 286.925C170.471 283.892 172.723 281.132 174.808 278.054Z"/><path fill="#FCECD1" fill-opacity="0.90196079" d="M169.16 281.8C171.214 280.14 172.576 279.385 174.808 278.054C172.723 281.132 170.471 283.892 168.417 286.925C169.373 287.566 171.87 289.131 172.743 290.147C172.779 290.189 173.089 290.33 173.209 290.215C174.258 289.202 175.221 288.392 176.41 287.572L176.246 287.509L176.242 287.473C177.279 286.973 178.571 287.659 180.226 285.228C180.404 284.967 181.616 284.002 181.918 283.759C181.292 284.889 180.689 285.92 180.074 287.069L179.738 287.683C179.317 288.009 178.891 288.328 178.46 288.64C176.93 289.418 174.927 291.409 174.262 291.593C166.593 293.725 168.634 284.272 168.966 282.272L169.16 281.8Z"/><path fill="#CF8C58" d="M161.658 320.005C155.042 339.935 144.535 357.896 135.191 376.594C118.041 410.914 122.099 453.798 141.205 486.728C141.28 485.381 141.409 484.194 141.56 482.855C138.63 446.686 142.972 421.166 166.837 391.674C174.384 382.346 186.908 372.432 197.775 366.901C175.184 389.125 162.015 406.49 161.805 440.224C161.734 462.834 169.819 484.711 184.577 501.841C189.77 507.975 196.282 513.986 201.805 519.973C208.632 527.48 215.147 535.265 221.333 543.307C225.998 549.25 231.453 556.448 234.908 563.118L236.112 562.715L236.366 562.844L236.593 565.379C237.549 567.78 233.909 582.962 233.158 586.266C227.454 611.39 212.91 627.656 189.181 637.175C190.782 630.557 191.756 626.805 192.517 620.076C194.927 598.789 187.256 580.747 169.515 568.549C162.541 563.762 154.583 559.727 147.509 555.147C121.371 538.226 98.0521 514.321 98.0875 481.209C98.0932 475.935 99.1517 469.534 99.736 464.148C99.0505 464.706 98.3757 465.278 97.7122 465.863C89.2198 473.409 88.0167 483.281 87.3909 493.81C68.3764 471 70.2442 429.406 88.0076 406.488C91.7819 401.619 96.9066 396.843 101.325 392.511C87.5537 391.899 75.7584 394.758 62.4487 397.573C83.6249 366.445 107.403 364.677 135.809 343.568C140.798 339.86 146.665 335.508 150.747 330.892C153.524 329.793 159.397 322.644 161.658 320.005Z"/><path fill="#F4C8A0" d="M141.56 482.855C141.693 483.497 142.526 487.458 142.024 487.73C141.586 487.617 141.412 487.088 141.205 486.728C141.28 485.381 141.409 484.194 141.56 482.855Z"/><path fill="#F4C8A0" d="M236.112 562.715L236.366 562.844L236.593 565.379C235.22 564.915 235.629 564.485 234.908 563.118L236.112 562.715Z"/><path fill="#8C4318" d="M298.322 248.709L298.69 249.61C277.862 265.715 265.844 285.39 258.224 310.237C257.923 311.855 257.507 313.274 257.217 314.954C256.485 318.163 255.814 321.385 255.273 324.632L257.38 324.109C258.795 321.994 260.964 319.895 262.173 317.893C269.769 309.972 274.626 304.754 283.667 298.244C277.802 306.995 270.296 319.062 267.346 329.128C263.211 338.148 258.32 360.623 258.435 370.284C258.58 372.344 258.249 374.109 259.159 375.899L263.734 364.855L265.247 361.614L266.275 363.705C263.23 376.419 261.272 387.525 261.429 400.737C261.626 403.413 261.144 405.045 262.264 407.038C263.129 404.14 264.224 401.331 265.281 398.498L267.165 399.015C266.775 425.86 267.325 462.864 260.509 488.576C271.931 527.844 275.61 561.961 263.318 601.626C253.52 624.599 241.573 642.12 217.881 652.248C203.712 658.306 184.457 658.302 189.181 637.175C212.91 627.656 227.454 611.39 233.158 586.266C233.909 582.962 237.549 567.78 236.593 565.379L236.366 562.844L236.112 562.715C235.615 558.318 233.92 551.542 232.948 547.006C231.194 538.783 229.494 530.549 227.847 522.304C222.98 498.221 216.307 472.322 218.269 447.726C219.711 429.653 224.798 411.363 227.963 393.515C228.771 388.962 229.839 383.929 231.062 379.497C232.558 371.707 232.781 359.002 233.763 350.432C238.045 313.034 247.945 285.533 274.544 258.197L275.968 259.445C274.639 261.074 273.343 262.919 272.095 264.625C280.821 257.463 287.984 253.192 298.322 248.709Z"/><path fill="#8B5E3C" d="M231.062 379.497C232.406 381.647 232.791 401.576 233.211 405.851C233.957 413.108 234.992 420.332 236.314 427.506C240.265 447.971 246.13 468.02 253.832 487.389C251.56 497.604 239.294 559.03 236.366 562.844L236.112 562.715C235.615 558.318 233.92 551.542 232.948 547.006C231.194 538.783 229.494 530.549 227.847 522.304C222.98 498.221 216.307 472.322 218.269 447.726C219.711 429.653 224.798 411.363 227.963 393.515C228.771 388.962 229.839 383.929 231.062 379.497Z"/><path fill="#F4C8A0" d="M262.264 407.038C262.171 407.631 262.067 408.265 261.897 408.84L261.894 408.769C260.26 412.334 261.396 400.938 261.429 400.737C261.626 403.413 261.144 405.045 262.264 407.038Z"/><path fill="#F4C8A0" d="M259.159 375.899C259.209 375.65 258.679 378.059 258.265 377.203C257.624 375.879 258.166 371.881 258.435 370.284C258.58 372.344 258.249 374.109 259.159 375.899Z"/><path fill="#EDE0BE" d="M255.273 324.632L257.38 324.109C256.479 325.316 254.749 328.3 255.273 324.632Z"/><path fill="#FCECD1" d="M231.639 190.672C236.887 188.911 254.205 190.937 260.728 191.203C240.76 197.924 222.356 205.596 205.985 219.279C204.284 220.701 197.951 225.703 196.152 225.872C199.688 219.396 214.66 203.02 220.834 198.957C221.236 197.128 221.745 195.614 221.596 193.729C223.826 193.341 226.012 192.623 228.091 191.727C229.233 192.079 229.911 192.238 231.062 192.487C232.306 191.957 232.289 191.791 231.639 190.672Z"/><path fill="#FDFDF9" d="M228.091 191.727C229.233 192.079 229.911 192.238 231.062 192.487C224.987 195.238 225.387 195.979 220.834 198.957C221.236 197.128 221.745 195.614 221.596 193.729C223.826 193.341 226.012 192.623 228.091 191.727Z"/><path fill="#FCECD1" d="M168.966 282.272C168.634 284.272 166.593 293.725 174.262 291.593C174.927 291.409 176.93 289.418 178.46 288.64C171.884 296.073 164.121 302.263 159.199 311.198C158.315 312.801 156.58 315.628 155.156 316.755L154.716 317.109C155.263 315.162 157.353 308.968 157.483 307.497C158.261 298.693 162.598 295.121 164.339 286.607C165.79 285.636 167.643 283.556 168.966 282.272Z"/><path fill="#F7F0DC" d="M198.926 270.287C199.611 270.184 207.379 268.729 203.063 270.823C200.291 272.666 192.06 278.512 189.601 279.691C186.524 282.35 182.937 285.13 179.738 287.683L180.074 287.069C180.689 285.92 181.292 284.889 181.918 283.759C184.343 281.766 184.883 280.167 187.861 278.494C191.433 275.428 188.805 276.203 193.532 274.295C194.372 274.443 194.475 275.507 195.466 274.892C196.368 272.866 194.104 272.316 192.476 271.963C194.667 271.399 196.68 270.802 198.926 270.287Z"/><path fill="#EDE0BE" d="M173.018 270.399C173.196 270.676 173.344 271.126 173.685 271.216C173.714 271.208 175.816 269.789 176.332 269.536C175.499 270.692 174.651 271.837 173.787 272.97C172.8 274.29 171.959 275.634 170.997 276.937C170.032 278.354 167.185 280.945 169.16 281.8L168.966 282.272C167.643 283.556 165.79 285.636 164.339 286.607C165.154 282.194 166.452 279.506 169.094 275.824C169.812 274.726 172.152 271.051 173.018 270.399Z"/><path fill="#CF8C58" d="M274.544 258.197C276.757 256.105 283.422 249.858 285.672 248.78C282.225 252.41 279.179 255.606 275.968 259.445L274.544 258.197Z"/><path fill="#F7F0DC" d="M231.639 190.672C232.289 191.791 232.306 191.957 231.062 192.487C229.911 192.238 229.233 192.079 228.091 191.727C229.292 191.399 230.445 191.02 231.639 190.672Z"/><path fill="#FCDAA1" d="M686.207 193.556C712.025 176.339 752.585 175.744 781.162 184.991C783.888 185.873 792.261 188.736 794.684 187.719C796.497 188.662 798.696 189.565 799.488 191.465C798.73 192.349 799.145 192.037 798.32 192.492C796.043 191.478 795.76 191.499 793.325 190.76C787.966 189.063 767.631 190.529 761.669 191.487C780 195.908 793.673 203.166 809.861 212.602C814.003 215.017 821.973 222.644 825.015 223.246C828.089 226.061 835.6 232.911 836.893 236.546L836.677 237.027L834.909 236.514C832.41 235.033 830.655 234.309 828.07 233.179C819.799 227.196 801.097 226.004 791.048 225.465C804.669 231.802 817.318 240.049 828.611 249.957C835.619 256.027 842.497 263.373 849.077 269.939C851.831 272.687 853.46 276.719 855.997 277.777L855.424 276.383L855.64 276.945C854.742 275.276 854.678 275.352 854.755 273.362C857.156 277.223 859.275 282.335 860.513 286.715C861.94 290.625 864.191 296.057 865.266 299.807C861.87 299.111 863.076 297.112 860.719 303.729C862.064 306.846 863.333 307.655 865.925 309.261C869.758 318.136 871.068 321.545 873.353 330.928C875.747 333.731 880.803 337.525 883.797 339.918C909.86 360.746 944.012 367.041 962.574 397.333C949.216 394.47 936.962 391.577 923.211 392.507C934.436 402.026 943.21 413.467 947.588 427.733C953.697 447.645 951.42 479.131 937.03 495.187C936.562 481.067 935.56 473.849 924.716 463.489C927.428 487.425 927.28 503.701 912.181 524.27C877.696 571.246 815.498 563.094 835.778 637.499C840.729 657.851 822.083 658.491 808.117 652.807C783.701 642.87 771.765 624.942 761.525 601.769C751.637 572.602 751.919 542.338 758.172 512.477C759.12 507.952 764.335 491.161 763.734 487.917C758.111 457.605 757.056 425.435 757.891 394.617C759.8 398.952 761.099 402.626 761.886 407.34C762.268 406.346 762.644 405.35 763.015 404.352C762.9 389.788 761.764 376.983 758.295 362.77L759.091 361.722C761.334 366.21 763.768 373.068 765.723 376.663C766.114 374.11 765.863 372.392 766.061 369.752C766.326 351.562 754.14 314.284 741.807 300.661L742.031 299.809C745.469 302.115 748.137 304.333 751.35 306.965C752.132 308.044 753.363 309.038 754.369 309.938C758.792 314.229 761.305 317.797 765.217 322.134C766.908 321.342 765.417 317.102 766.467 314.336L766.782 313.477C765.917 309.706 765.02 305.887 763.613 302.271L763.348 301.563C754.981 277.772 741.93 261.825 721.814 246.858C734.573 251.97 741.367 256.488 752.06 264.443C750.894 262.823 749.603 261.189 748.385 259.598L749.055 258.046C746.819 255.849 740.577 249.576 738.274 248.377C735.024 246.107 730.083 241.399 726.28 238.554C716.662 231.357 698.466 221.184 686.781 218.851C697.043 213.966 717.363 209.913 728.452 211.179L729.49 209.878C717.664 204.278 699.063 195.4 686.207 193.556Z"/><path fill="#CF8C58" d="M881.652 489.724C901.049 455.918 907.373 416.589 891.153 380.19C885.439 367.369 878.122 355.595 871.99 342.996C868.226 335.261 864.93 327.138 861.588 319.201C864.643 322.635 869.705 328.595 873.353 330.928C875.747 333.731 880.803 337.525 883.797 339.918C909.86 360.746 944.012 367.041 962.574 397.333C949.216 394.47 936.962 391.577 923.211 392.507C934.436 402.026 943.21 413.467 947.588 427.733C953.697 447.645 951.42 479.131 937.03 495.187C936.562 481.067 935.56 473.849 924.716 463.489C927.428 487.425 927.28 503.701 912.181 524.27C877.696 571.246 815.498 563.094 835.778 637.499C805.329 623.422 793.317 604.988 788.469 571.562C788.21 569.776 787.308 567.156 787.862 565.56C789.016 564.101 790.349 561.762 791.415 560.126C802.601 542.961 815.703 527.124 830.086 512.548C834.54 508.034 839.641 502.974 843.471 497.924C858.904 477.72 865.626 452.188 862.143 427.004C859.09 405.261 846.609 382.465 829.051 369.328L829.861 368.659C832.223 369.721 836.137 372.231 838.308 373.715C875.062 398.846 890.484 447.223 881.652 489.724Z"/><path fill="#8C4318" d="M721.814 246.858C734.573 251.97 741.367 256.488 752.06 264.443C750.894 262.823 749.603 261.189 748.385 259.598L749.055 258.046C777.202 286.913 786.264 310.503 791.029 350.439C792.069 359.157 792.074 370.374 793.577 378.74C798.443 405.704 807.235 432.508 807.309 460.074C807.347 474.475 803.879 487.438 801.33 501.353C797.434 522.618 791.322 544.332 787.862 565.56C787.308 567.156 788.21 569.776 788.469 571.562C793.317 604.988 805.329 623.422 835.778 637.499C840.729 657.851 822.083 658.491 808.117 652.807C783.701 642.87 771.765 624.942 761.525 601.769C751.637 572.602 751.919 542.338 758.172 512.477C759.12 507.952 764.335 491.161 763.734 487.917C758.111 457.605 757.056 425.435 757.891 394.617C759.8 398.952 761.099 402.626 761.886 407.34C762.268 406.346 762.644 405.35 763.015 404.352C762.9 389.788 761.764 376.983 758.295 362.77L759.091 361.722C761.334 366.21 763.768 373.068 765.723 376.663C766.114 374.11 765.863 372.392 766.061 369.752C766.326 351.562 754.14 314.284 741.807 300.661L742.031 299.809C745.469 302.115 748.137 304.333 751.35 306.965C752.132 308.044 753.363 309.038 754.369 309.938C758.792 314.229 761.305 317.797 765.217 322.134C766.908 321.342 765.417 317.102 766.467 314.336L766.782 313.477C765.917 309.706 765.02 305.887 763.613 302.271L763.348 301.563C754.981 277.772 741.93 261.825 721.814 246.858Z"/><path fill="#FCECD1" d="M766.782 313.477C767.862 318.22 768.283 323.02 769.043 327.826C768.132 326.551 765.996 323.533 765.217 322.134C766.908 321.342 765.417 317.102 766.467 314.336L766.782 313.477Z"/><path fill="#EDE0BE" d="M766.061 369.752C766.305 371.173 766.949 376.368 766.135 377.526L766.08 377.533C765.686 377.201 765.797 377.368 765.723 376.663C766.114 374.11 765.863 372.392 766.061 369.752Z"/><path fill="#F4C8A0" d="M761.886 407.34C762.268 406.346 762.644 405.35 763.015 404.352C763.014 405.146 763.199 408.203 762.592 408.841C762.536 408.844 762.48 408.847 762.425 408.85C761.995 408.483 761.999 407.857 761.886 407.34Z"/><path fill="#FCECD1" d="M819.124 269.289C822.016 269.771 824.882 270.349 827.757 270.921L830.256 271.441C837.973 273.064 847.535 276.914 854.295 281.214C855.627 282.061 858.077 285.05 860.513 286.715C861.94 290.625 864.191 296.057 865.266 299.807C861.87 299.111 863.076 297.112 860.719 303.729C854.56 297.723 849.71 291.453 842.946 285.776C834.928 279.046 828.192 274.37 819.124 269.289Z"/><path fill="#C9A87C" d="M829.051 369.328C828.675 369.059 826.717 367.822 826.878 367.236C827.729 366.86 829.242 368.212 829.861 368.659L829.051 369.328Z"/><path fill="#EDE0BE" d="M729.49 209.878C732.752 211.486 730.208 211.267 728.452 211.179L729.49 209.878Z"/><path fill="#EDE0BE" d="M594.507 392.992C589.055 390.758 580.493 386.558 575.29 383.75C556.689 373.498 542.833 356.38 536.682 336.051C530.784 315.908 533.069 294.251 543.039 275.782C567.349 231.632 621.779 220.894 664.501 245.011C686.967 257.863 703.539 278.965 710.697 303.837C696.093 304.192 681.068 303.833 666.332 304.124C676.231 308.298 690.204 318.983 697.4 326.792C701.695 331.453 711.312 343.363 711.091 349.944C715.278 358.716 718.749 368.191 720.071 377.887C721.131 389.217 721.997 401.395 718.357 412.341C712.648 405.778 705.514 397.713 698.032 393.269C696.054 394.908 694.449 396.213 692.615 398.035C679.262 411.132 672.304 422.045 650.278 422.352C633.493 422.587 622.488 411.978 609.442 403.671C604.578 399.971 599.516 396.498 594.507 392.992ZM594.507 392.992C599.516 396.498 604.578 399.971 609.442 403.671C622.488 411.978 633.493 422.587 650.278 422.352C672.304 422.045 679.262 411.132 692.615 398.035C694.449 396.213 696.054 394.908 698.032 393.269C699.936 391.308 702.787 388.942 705.065 387.455C701.959 373.064 696.575 360.461 686.348 349.723C648.18 309.651 595.641 341.715 594.846 392.251L594.507 392.992Z"/><path fill="#2C1A0E" d="M594.846 392.251C595.641 341.715 648.18 309.651 686.348 349.723C696.575 360.461 701.959 373.064 705.065 387.455C702.787 388.942 699.936 391.308 698.032 393.269C696.054 394.908 694.449 396.213 692.615 398.035C679.262 411.132 672.304 422.045 650.278 422.352C633.493 422.587 622.488 411.978 609.442 403.671C604.578 399.971 599.516 396.498 594.507 392.992L594.846 392.251ZM665.657 356.998C663.005 358.803 663.767 355.587 662.365 356.908C662.121 357.138 662.749 358.382 662.684 359.33C665.791 363.028 669.523 361.813 665.657 356.998ZM623.852 353.259C623.597 355.271 623.12 357.661 624.159 359.589C626.741 365.054 627.74 366.478 633.638 366.917C635.502 365.278 638.91 362.807 638.186 360.01C637.275 356.494 639.78 354.882 636.875 352.048C635.832 351.03 635.714 350.612 635.712 349.307L635.493 348.867L633.492 348.876C633.193 348.717 632.957 348.567 632.637 348.476L631.694 347.807C628.845 349.261 626.207 351.095 623.852 353.259Z"/><path fill="#150F0D" d="M631.694 347.807C638.393 344.386 646.008 343.191 653.433 344.394C669.7 347.03 681.991 360.553 683.066 376.997C684.14 393.442 673.714 408.449 657.928 413.18C642.142 417.911 625.181 411.111 617.034 396.786C608.888 382.46 611.716 364.407 623.852 353.259C623.597 355.271 623.12 357.661 624.159 359.589C626.741 365.054 627.74 366.478 633.638 366.917C635.502 365.278 638.91 362.807 638.186 360.01C637.275 356.494 639.78 354.882 636.875 352.048C635.832 351.03 635.714 350.612 635.712 349.307L635.493 348.867L633.492 348.876C633.193 348.717 632.957 348.567 632.637 348.476L631.694 347.807ZM665.657 356.998C663.005 358.803 663.767 355.587 662.365 356.908C662.121 357.138 662.749 358.382 662.684 359.33C665.791 363.028 669.523 361.813 665.657 356.998Z"/><path fill="#8B5E3C" d="M653.433 344.394C669.7 347.03 681.991 360.553 683.066 376.997C684.14 393.442 673.714 408.449 657.928 413.18C642.142 417.911 625.181 411.111 617.034 396.786C608.888 382.46 611.716 364.407 623.852 353.259C623.597 355.271 623.12 357.661 624.159 359.589C620.426 366.845 620.82 377.332 624.301 384.674C630.599 397.958 647.556 402.968 660.473 395.826C666.566 392.4 671.072 386.721 673.024 380.009C677.967 362.813 667.562 349.571 651.132 345.426C651.431 344.382 652.27 344.664 653.433 344.394Z"/><path fill="#FDFBF9" d="M635.712 349.307L636.355 349.709C643.645 354.116 643.188 364.422 633.638 366.917C635.502 365.278 638.91 362.807 638.186 360.01C637.275 356.494 639.78 354.882 636.875 352.048C635.832 351.03 635.714 350.612 635.712 349.307Z"/><path fill="#8B5E3C" d="M631.694 347.807C638.393 344.386 646.008 343.191 653.433 344.394C652.27 344.664 651.431 344.382 651.132 345.426C646.547 345.677 639.135 345.309 635.493 348.867L633.492 348.876C633.193 348.717 632.957 348.567 632.637 348.476L631.694 347.807Z"/><path fill="#FDFDF9" d="M662.684 359.33C660.977 357.907 654.455 353.209 654.451 352.512C654.421 346.771 664.726 356.166 665.657 356.998C663.005 358.803 663.767 355.587 662.365 356.908C662.121 357.138 662.749 358.382 662.684 359.33Z"/><path fill="#FDFDF9" fill-opacity="0.96470588" d="M662.684 359.33C662.749 358.382 662.121 357.138 662.365 356.908C663.767 355.587 663.005 358.803 665.657 356.998C669.523 361.813 665.791 363.028 662.684 359.33Z"/><path fill="#FDFDF9" fill-opacity="0.80784315" d="M631.694 347.807L632.637 348.476L632.093 349.329C629.566 353.189 632.944 352.766 634.713 350.825L634.707 350.845C634.45 350.171 633.943 349.828 633.492 348.876L635.493 348.867L635.712 349.307C635.714 350.612 635.832 351.03 636.875 352.048C639.78 354.882 637.275 356.494 638.186 360.01C638.91 362.807 635.502 365.278 633.638 366.917C627.74 366.478 626.741 365.054 624.159 359.589C623.12 357.661 623.597 355.271 623.852 353.259C626.207 351.095 628.845 349.261 631.694 347.807ZM630.666 365.146C633.72 363.893 631.627 361.105 628.969 360.261L628.331 360.636C625.556 362.021 629.356 364.222 630.666 365.146Z"/><path fill="#FDFBF9" fill-opacity="0.53333336" d="M628.969 360.261C631.627 361.105 633.72 363.893 630.666 365.146C629.356 364.222 625.556 362.021 628.331 360.636L628.969 360.261Z"/><path fill="#FDFBF9" fill-opacity="0.63529414" d="M632.637 348.476C632.957 348.567 633.193 348.717 633.492 348.876C633.943 349.828 634.45 350.171 634.707 350.845L634.713 350.825C632.944 352.766 629.566 353.189 632.093 349.329L632.637 348.476Z"/><path fill="#F4C8A0" d="M594.846 392.251C594.173 389.953 593.222 389.151 592.114 387.13C572.82 351.923 570.154 293.87 618.622 282.463C628.419 280.157 637.018 281.809 646.204 284.043C641.042 292.948 632.792 300.412 623.624 305.062C632.226 305.16 640.214 305.024 648.744 306.627C671.492 310.899 693.042 322.619 705.925 342.289C707.604 344.853 709.377 347.403 711.091 349.944C715.278 358.716 718.749 368.191 720.071 377.887C721.131 389.217 721.997 401.395 718.357 412.341C712.648 405.778 705.514 397.713 698.032 393.269C699.936 391.308 702.787 388.942 705.065 387.455C701.959 373.064 696.575 360.461 686.348 349.723C648.18 309.651 595.641 341.715 594.846 392.251Z"/><path fill="#EDE0BE" d="M313.417 303.883C321.26 278.263 338.241 256.315 362.026 243.599C405.332 220.447 458.6 233.515 481.892 277.988C502.742 317.799 485.437 363.915 446.784 384.733C441.12 387.783 434.498 389.896 428.605 392.742C424.306 396.289 418.78 400.083 414.203 403.395C400.9 412.909 390.914 422.173 373.37 422.374C362.315 422.423 351.649 418.296 343.506 410.819C339.759 407.336 335.426 402.106 331.316 398.115L325.856 393.146C317.904 398.634 310.836 405.305 304.897 412.927C302.199 398.5 301.851 391.983 303.619 377.409C305.416 367.35 308.687 357.611 313.326 348.506C314.455 335.432 333.87 318.642 344.409 312.258C346.143 311.207 356.241 304.591 356.627 304.093C353.032 303.389 346.679 303.838 342.805 303.781C333.182 303.639 323.014 304.221 313.417 303.883ZM378.265 414.733C397.878 413.825 413.026 397.164 412.071 377.553C411.115 357.942 394.418 342.833 374.809 343.836C355.267 344.835 340.22 361.464 341.173 381.008C342.125 400.553 358.718 415.639 378.265 414.733Z"/><path fill="#2C1A0E" d="M318.798 387.828C325.244 359.231 343.316 333.201 375.672 331.656C387.993 331.067 402.995 338.546 411.49 347.253C422.999 359.049 428.756 375.8 428.656 392.247L428.605 392.742C424.306 396.289 418.78 400.083 414.203 403.395C400.9 412.909 390.914 422.173 373.37 422.374C362.315 422.423 351.649 418.296 343.506 410.819C339.759 407.336 335.426 402.106 331.316 398.115L325.856 393.146C323.275 390.984 321.673 389.588 318.798 387.828ZM378.265 414.733C397.878 413.825 413.026 397.164 412.071 377.553C411.115 357.942 394.418 342.833 374.809 343.836C355.267 344.835 340.22 361.464 341.173 381.008C342.125 400.553 358.718 415.639 378.265 414.733Z"/><path fill="#8B5E3C" d="M374.809 343.836C394.418 342.833 411.115 357.942 412.071 377.553C413.026 397.164 397.878 413.825 378.265 414.733C358.718 415.639 342.125 400.553 341.173 381.008C340.22 361.464 355.267 344.835 374.809 343.836ZM369.564 347.28C355.908 351.509 348.084 365.825 351.9 379.602C355.716 393.379 369.789 401.63 383.675 398.231C397.561 394.832 406.232 381.013 403.253 367.031C400.274 353.049 386.722 343.966 372.657 346.523C371.612 346.713 370.579 346.966 369.564 347.28Z"/><path fill="#150F0D" d="M372.657 346.523C386.722 343.966 400.274 353.049 403.253 367.031C406.232 381.013 397.561 394.832 383.675 398.231C369.789 401.63 355.716 393.379 351.9 379.602C348.084 365.825 355.908 351.509 369.564 347.28C370.579 346.966 371.612 346.713 372.657 346.523ZM369.634 348.952C365.637 353.169 364.14 357.595 368.581 362.379C371.238 364.392 371.059 364.198 374.123 365.49C375.623 365.356 375.921 365.311 377.396 364.855C383.33 362.398 382.878 360.606 384.379 355.295C385.712 356.278 386.614 357.117 388.202 357.511C388.29 357.968 388.581 358.361 388.993 358.577C389.72 360.04 392.225 362.186 393.355 359.875C393.676 359.207 393.688 358.431 393.388 357.753C392.751 356.35 390.974 354.334 389.522 353.737C386.784 351.015 385.399 349.991 381.871 349.874C381.2 349.344 380.787 349.04 380.078 348.555C377.835 347.508 377.158 347.317 374.599 346.893C372.768 347.471 371.521 347.595 370.069 348.915L369.634 348.952Z"/><path fill="#FDFBF9" fill-opacity="0.56862748" d="M380.078 348.555C380.787 349.04 381.2 349.344 381.871 349.874C380.463 351.84 379.507 354.393 376.171 353.325C374.623 352.829 373.022 353.808 372.747 355.515C372.763 357.488 377.187 357.29 378.268 357.302C384.088 357.363 378.291 363.803 377.396 364.855C375.921 365.311 375.623 365.356 374.123 365.49C382.688 358.753 371.253 358.88 369.087 361.726L368.581 362.379C364.14 357.595 365.637 353.169 369.634 348.952L370.069 348.915C369.414 351.623 367.651 354.304 371.247 354.659C374.919 347.952 378.403 355.845 380.078 348.555Z"/><path fill="#FDFBF9" fill-opacity="0.72549021" d="M381.871 349.874C385.399 349.991 386.784 351.015 389.522 353.737C386.598 353.797 385.467 351.638 383.798 354.763C383.992 354.941 384.185 355.118 384.379 355.295C382.878 360.606 383.33 362.398 377.396 364.855C378.291 363.803 384.088 357.363 378.268 357.302C377.187 357.29 372.763 357.488 372.747 355.515C373.022 353.808 374.623 352.829 376.171 353.325C379.507 354.393 380.463 351.84 381.871 349.874Z"/><path fill="#FDFBF9" fill-opacity="0.36470589" d="M374.599 346.893C377.158 347.317 377.835 347.508 380.078 348.555C378.403 355.845 374.919 347.952 371.247 354.659C367.651 354.304 369.414 351.623 370.069 348.915C371.521 347.595 372.768 347.471 374.599 346.893Z"/><path fill="#FDFDF9" fill-opacity="0.48627451" d="M384.379 355.295C384.185 355.118 383.992 354.941 383.798 354.763C385.467 351.638 386.598 353.797 389.522 353.737C390.974 354.334 392.751 356.35 393.388 357.753C393.688 358.431 393.676 359.207 393.355 359.875C392.225 362.186 389.72 360.04 388.993 358.577C389.625 358.908 390.401 358.759 390.865 358.217C391.328 357.675 391.355 356.884 390.93 356.312C390.505 355.739 389.741 355.537 389.088 355.824C388.435 356.111 388.068 356.811 388.202 357.511C386.614 357.117 385.712 356.278 384.379 355.295Z"/><path fill="#FDFDF9" fill-opacity="0.14117648" d="M368.581 362.379L369.087 361.726C371.253 358.88 382.688 358.753 374.123 365.49C371.059 364.198 371.238 364.392 368.581 362.379Z"/><path fill="#FCECD1" fill-opacity="0.070588239" d="M388.202 357.511C388.068 356.811 388.435 356.111 389.088 355.824C389.741 355.537 390.505 355.739 390.93 356.312C391.355 356.884 391.328 357.675 390.865 358.217C390.401 358.759 389.625 358.908 388.993 358.577C388.581 358.361 388.29 357.968 388.202 357.511Z"/><path fill="#2C1A0E" d="M369.564 347.28C370.579 346.966 371.612 346.713 372.657 346.523C373.319 346.583 373.947 346.764 374.599 346.893C372.768 347.471 371.521 347.595 370.069 348.915L369.634 348.952L369.564 347.28Z"/><path fill="#F4C8A0" d="M378.001 283.995C385.801 281.663 391.815 280.684 400.042 281.385C420.33 283.113 436.77 297.688 442.313 317.129C449.162 341.15 442.32 366.531 430.68 387.917C429.529 390.031 429.181 389.848 428.656 392.247C428.756 375.8 422.999 359.049 411.49 347.253C402.995 338.546 387.993 331.067 375.672 331.656C343.316 333.201 325.244 359.231 318.798 387.828C321.673 389.588 323.275 390.984 325.856 393.146C317.904 398.634 310.836 405.305 304.897 412.927C302.199 398.5 301.851 391.983 303.619 377.409C305.416 367.35 308.687 357.611 313.326 348.506C335.979 315.936 359.613 306.496 398.366 304.984C389.299 298.259 383.467 294.105 378.001 283.995Z"/><path fill="#F4C8A0" d="M331.316 398.115C335.426 402.106 339.759 407.336 343.506 410.819C351.649 418.296 362.315 422.423 373.37 422.374C390.914 422.173 400.9 412.909 414.203 403.395C412.934 409.119 405.214 420.551 401.252 425.144C393.843 433.733 382.331 440.142 370.854 440.806C361.128 441.356 351.587 437.985 344.365 431.447C335.088 423.076 331.959 410.143 331.316 398.115Z"/><path fill="#F4C8A0" d="M609.442 403.671C622.488 411.978 633.493 422.587 650.278 422.352C672.304 422.045 679.262 411.132 692.615 398.035C691.433 411.443 688.012 423.947 677.086 432.959C669.978 438.802 660.829 441.562 651.675 440.624C640.319 439.492 628.187 432.147 621.149 423.323C617.93 419.287 610.93 408.297 609.442 403.671Z"/><path fill="#FCDAA1" d="M563.9 711.388C564.833 709.856 573.292 703.258 575.174 701.621C592.37 686.652 602.106 673.199 608.797 651.475C611.11 657.157 611.627 660.846 611.829 667.031C611.919 669.787 610.814 674.097 611.486 675.856L609.747 679.068C597.918 690.915 580.226 706.546 563.9 711.388Z"/><path fill="#FCDAA1" d="M413.984 651.398C421.854 673.218 430.814 686.913 448.698 702.173C450.935 704.081 459.269 709.63 460.138 711.344C443.191 706.613 424.476 690.549 412.776 677.656L412.02 675.736C411.235 666.115 411.347 660.815 413.984 651.398Z"/><path fill="#FDFDF9" d="M332.107 149.67C334.213 150.987 334.697 151.549 336.585 153.11C332.899 152.616 329.156 152.722 325.738 152.143C328.176 151.319 329.777 150.761 332.107 149.67Z"/><path fill="#8B5E3C" d="M738.274 248.377C740.577 249.576 746.819 255.849 749.055 258.046L748.385 259.598C745.001 255.98 741.919 251.979 738.274 248.377Z"/><path fill="#8B5E3C" d="M265.247 361.614C265.762 360.126 267.157 357.743 267.96 356.23C267.399 358.663 266.708 361.256 266.275 363.705L265.247 361.614Z"/><path fill="#8B5E3C" d="M298.322 248.709C298.907 248.295 299.889 247.445 300.671 247.752C300.849 248.3 298.969 249.422 298.69 249.61L298.322 248.709Z"/><path fill="#CF8C58" d="M758.295 362.77C758.169 362.264 757.309 360.02 757.776 359.734C758.262 359.852 758.893 361.339 759.091 361.722L758.295 362.77Z"/><path fill="#CF8C58" d="M741.807 300.661C738.316 297.766 739.994 298.758 742.031 299.809L741.807 300.661Z"/><path fill="#2C1A0E" d="M407.91 482.472C408.287 461.848 415.894 444.293 429.116 428.649C447.541 406.909 473.871 393.407 502.278 391.132C532.595 388.781 559.292 396.503 582.871 416.379C602.542 432.958 614.92 457.14 616.772 482.94C612.675 481.464 608.465 480.322 604.185 479.522C599.453 478.62 578.151 476.318 574.3 477.9C573.946 479.116 573.905 479.538 573.69 480.794C572.51 497.412 565.204 509.601 552.64 520.408C547.295 524.982 541.3 528.737 534.852 531.549C519.226 537.447 505.615 539.007 489.775 532.267C468.223 521.891 451.078 506.457 449.305 481.296L448.659 478.547C442.29 475.103 415.015 480.885 407.91 482.472Z"/><path fill="#EDE0BE" d="M407.91 482.472C408.287 461.848 415.894 444.293 429.116 428.649C447.541 406.909 473.871 393.407 502.278 391.132C532.595 388.781 559.292 396.503 582.871 416.379C602.542 432.958 614.92 457.14 616.772 482.94C612.675 481.464 608.465 480.322 604.185 479.522C599.453 478.62 578.151 476.318 574.3 477.9C573.946 479.116 573.905 479.538 573.69 480.794C573.904 473.947 573.241 469.983 571.29 463.558C556.963 424.018 470.294 422.566 452.47 462.571C452.196 463.193 451.94 463.823 451.702 464.46C449.46 470.778 449.142 474.496 449.305 481.296L448.659 478.547C442.29 475.103 415.015 480.885 407.91 482.472Z"/><path fill="#150F0D" d="M571.29 463.558C573.241 469.983 573.904 473.947 573.69 480.794C572.51 497.412 565.204 509.601 552.64 520.408C547.295 524.982 541.3 528.737 534.852 531.549C519.226 537.447 505.615 539.007 489.775 532.267C468.223 521.891 451.078 506.457 449.305 481.296C449.142 474.496 449.46 470.778 451.702 464.46C454.031 466.381 453.966 476.044 459.496 480.249C468.273 487.554 476.349 477.999 485.19 477.001C494.197 475.984 496.059 484.261 496.398 491.362C492.434 498.461 490.123 499.515 483.094 503.499C491.361 515.877 512.052 518.001 525.11 513.46C531.837 511.121 535.534 508.515 539.881 502.884C529.653 498.458 521.995 492.197 529.995 480.336C537.016 469.926 547.807 485.044 558.898 482.304C572.017 479.064 567.408 468.507 571.29 463.558Z"/><path fill="#614A3B" d="M507.407 442.663C512.291 442.081 518.124 442.269 523.003 442.902C534.311 444.37 535.84 450.833 523.666 453.331C518.204 453.862 506.839 454.424 502.316 451.331C494.5 445.985 502.215 443.527 507.407 442.663Z"/><path fill="#2C1A0E" d="M489.775 532.267C505.615 539.007 519.226 537.447 534.852 531.549C540.97 576.164 582.323 599.4 624.496 592.059C628.431 591.375 633.22 590.424 637.071 589.904C638.061 589.284 639.022 588.618 639.952 587.911C652.704 578.046 662.154 561.831 664.171 545.762C665.073 545.033 664.811 545.639 665.156 546.833C662.593 591.187 618.878 624.203 579.817 638.069C572.888 640.528 565.654 642.215 558.484 643.826C557.892 644.435 557.861 644.339 557.565 645.134C544.263 680.795 499.475 690.871 474.759 660.628C470.515 655.435 467.656 649.181 464.518 643.295C418.907 633.502 368.092 602.99 359.64 553.437C359.92 552.039 359.973 552.096 360.801 550.88C364.798 565.868 372.262 580.383 385.549 589.195C386.803 589.095 391.288 590.261 392.77 590.634C437.308 601.822 480.393 578.497 489.775 532.267Z"/><path fill="#F08784" d="M470.447 603.729C473.007 601.5 477.2 599.308 480.257 597.824C501.058 587.729 532.958 588.397 551.601 603.149C570.091 612.892 561.149 628.051 558.484 643.826C557.892 644.435 557.861 644.339 557.565 645.134C544.263 680.795 499.475 690.871 474.759 660.628C470.515 655.435 467.656 649.181 464.518 643.295C461.702 628.13 453.602 613.464 470.447 603.729Z"/><path fill="#BE6758" d="M470.447 603.729C473.007 601.5 477.2 599.308 480.257 597.824C501.058 587.729 532.958 588.397 551.601 603.149C542.455 602.275 532.079 601.372 524.247 607.443C515.326 614.358 512.604 632.958 511.621 643.737C511.585 644.125 511.553 644.513 511.525 644.901C510.019 633.829 508.559 613.856 498.952 607.022C489.846 600.545 480.085 602.868 470.447 603.729Z"/><path fill="#F4C8A0" d="M489.775 532.267C505.615 539.007 519.226 537.447 534.852 531.549C540.97 576.164 582.323 599.4 624.496 592.059C628.431 591.375 633.22 590.424 637.071 589.904C600.309 618.267 542.327 599.441 519.905 561.7C515.885 554.934 513.678 547.868 511.52 540.386C508.882 552.092 505.437 560.469 497.911 569.926C482.982 588.364 461.443 600.244 437.883 603.035C419.332 605.136 400.306 600.985 385.549 589.195C386.803 589.095 391.288 590.261 392.77 590.634C437.308 601.822 480.393 578.497 489.775 532.267Z"/><path fill="#FCECD1" fill-opacity="0.9254902" d="M262.335 354.359C263.289 351.056 266.018 357.889 261.942 364.463C258.307 365.56 261.967 356.493 262.335 354.359Z"/><path fill="#FDFDF9" fill-opacity="0.98823529" d="M689.967 149.801C690.017 149.808 690.066 149.814 690.115 149.82C689.884 149.844 691.094 149.847 691.194 150.027C691.509 150.586 692.021 152.467 691.193 152.884C689.981 153.495 687.651 153.573 686.394 153.723C683.065 153.31 688.684 150.693 689.967 149.801Z"/><path fill="#614A3B" d="M359.092 543.582C359.308 543.908 359.567 544.068 359.889 544.335C360.001 546.579 360.285 547.789 360.651 549.998L360.773 550.7C360.783 550.76 360.792 550.82 360.801 550.88C359.973 552.096 359.92 552.039 359.64 553.437C359.069 550.862 359.036 546.267 359.092 543.582Z"/><path fill="#C9A87C" d="M664.171 545.762C664.909 536.752 665.754 543.322 665.156 546.833C664.811 545.639 665.073 545.033 664.171 545.762Z"/><path fill="#FCECD1" d="M359.092 543.582C359.116 543.206 359.065 542.405 359.351 542.064L359.425 542.057C359.826 542.505 359.83 543.576 359.87 544.109L359.889 544.335C359.567 544.068 359.308 543.908 359.092 543.582Z"/><path fill="#FCECD1" fill-opacity="0.98823529" d="M190.722 235.192L191.11 235.056C195.17 233.609 199.087 231.591 203.239 230.088C211.744 227.009 223.341 225.419 232.368 225.496C216.616 233.657 201.955 244.126 188.727 255.938C184.59 259.633 179.722 266.745 176.332 269.536C175.816 269.789 173.714 271.208 173.685 271.216C173.344 271.126 173.196 270.676 173.018 270.399C177.266 262.771 180.639 251.023 187.082 244.695L190.908 240.883C191.621 240.753 192.161 240.627 192.245 239.807C192.486 239.715 192.727 239.623 192.968 239.531C193.657 237.501 189.873 238.479 189.437 236.803C189.749 235.863 189.889 235.889 190.722 235.192Z"/><path fill="#FCECD1" fill-opacity="0.93333334" d="M791.048 225.465C801.097 226.004 819.799 227.196 828.07 233.179L828.077 233.855C828.046 235.997 832.373 239.34 833.841 240.705C839.639 249.787 846.386 258.106 851.4 267.772C852.156 269.231 854.371 272.147 854.755 273.362C854.678 275.352 854.742 275.276 855.64 276.945L855.424 276.383L855.997 277.777C853.46 276.719 851.831 272.687 849.077 269.939C842.497 263.373 835.619 256.027 828.611 249.957C817.318 240.049 804.669 231.802 791.048 225.465Z"/><path fill="#FCECD1" fill-opacity="0.97254902" d="M761.669 191.487C767.631 190.529 787.966 189.063 793.325 190.76C793.709 193.4 796.332 194.998 798.692 195.842L803.062 199.799C805.832 202.309 808.393 206.985 811.067 209.77C815.238 214.114 821.317 218.615 825.015 223.246C821.973 222.644 814.003 215.017 809.861 212.602C793.673 203.166 780 195.908 761.669 191.487Z"/><path fill="#FDFBF9" fill-opacity="0.3137255" d="M320.028 147.065C321.75 141.734 329.728 147.56 332.107 149.67C329.777 150.761 328.176 151.319 325.738 152.143C322.534 151.842 320.102 152.595 317.248 152.346C315.021 152.152 313.191 151.557 310.653 151.348L310.637 150.956C311.853 150.926 318.963 149.576 315.121 148.304C316.691 147.876 317.705 148.049 319.299 147.363L320.028 147.065Z"/><path fill="#FCECD1" fill-opacity="0.84705883" d="M860.719 303.729C863.076 297.112 861.87 299.111 865.266 299.807C867.152 304.254 865.608 303.961 865.925 309.261C863.333 307.655 862.064 306.846 860.719 303.729Z"/><path fill="#FCECD1" fill-opacity="0.8509804" d="M693.825 148.643C698.442 148.253 698.584 148.346 703.084 148.78C702.826 149.782 702.706 150.264 702.559 151.302C699.628 151.247 691.227 154.032 691.94 151.001C692.268 149.606 691.185 149.549 691.392 149.085C692.4 148.73 692.84 149.303 693.825 148.643Z"/><path fill="#EDE0BE" d="M190.908 240.883C187.519 239.248 183.42 241.077 187.089 236.294C188.948 233.871 190.589 232.041 192.852 229.954L192.598 230.827C192.118 232.578 189.523 234.501 189.907 235.252C190.179 235.232 190.45 235.212 190.722 235.192C189.889 235.889 189.749 235.863 189.437 236.803C189.873 238.479 193.657 237.501 192.968 239.531C192.727 239.623 192.486 239.715 192.245 239.807C192.161 240.627 191.621 240.753 190.908 240.883Z"/><path fill="#FCECD1" fill-opacity="0.98431373" d="M315.785 143.858C317.924 144.254 318.944 143.875 319.649 146.013C319.769 146.366 319.895 146.717 320.028 147.065L319.299 147.363C317.705 148.049 316.691 147.876 315.121 148.304C313.747 148.312 312.372 148.293 310.998 148.248C312.661 146.657 314.219 145.611 315.785 143.858Z"/><path fill="#FDFBF9" fill-opacity="0.88627452" d="M828.07 233.179C830.655 234.309 832.41 235.033 834.909 236.514C834.512 237.922 834.21 239.292 833.841 240.705C832.373 239.34 828.046 235.997 828.077 233.855L828.07 233.179Z"/><path fill="#FDFDF9" fill-opacity="0.96470588" d="M793.325 190.76C795.76 191.499 796.043 191.478 798.32 192.492C798.398 193.754 798.513 194.585 798.692 195.842C796.332 194.998 793.709 193.4 793.325 190.76Z"/><path fill="#FCECD1" fill-opacity="0.27843139" d="M310.637 150.956C310.771 150.055 310.892 149.152 310.998 148.248C312.372 148.293 313.747 148.312 315.121 148.304C318.963 149.576 311.853 150.926 310.637 150.956Z"/></svg>